<svg xmlns="http://www.w3.org/2000/svg" width="555.667" height="339.402" viewBox="0 0 555.667 339.402"><g transform="translate(-3755.586 2425.339)"><path d="M3793.712-2208.852c41.021-38.084-23.845-246.348,167.07-146.742,79.412,41.432,113.62-6.644,177.833,14.27,58.973,19.207,60.328,74.611,52.872,94.557-8.147,21.794,24.342,47.851,57.616,65.746,52.193,28.072,13.813,126.725-35.495,127.2s-411.559-.939-411.559-.939S3703.311-2124.921,3793.712-2208.852Z" transform="translate(0 -32.863)" fill="#fff4e4"/><g transform="translate(4105.351 -2425.339)"><g transform="translate(0)"><rect width="134.167" height="135.518" fill="#111e61"/><g transform="translate(5.717 4.951)"><rect width="122.733" height="125.511" fill="#f3f9ff"/></g></g><g transform="translate(19.964 113.523)"><rect width="15.185" height="1.537" fill="#a9c2ff"/><g transform="translate(18.702)"><rect width="15.185" height="1.537" fill="#a9c2ff"/></g><g transform="translate(0 3.411)"><rect width="21.06" height="1.537" fill="#a9c2ff"/></g></g><g transform="translate(42.884 73.456)"><rect width="23.299" height="1.403" fill="#a9c2ff"/><g transform="translate(0 6.265)"><rect width="21.472" height="1.403" fill="#a9c2ff"/></g><g transform="translate(0 3.133)"><g transform="translate(16.948)"><rect width="6.351" height="1.403" fill="#a9c2ff"/></g><rect width="15.188" height="1.403" fill="#a9c2ff"/></g></g><g transform="translate(97.665 73.456)"><rect width="23.299" height="1.403" fill="#a9c2ff"/><g transform="translate(0 6.265)"><rect width="21.472" height="1.403" fill="#a9c2ff"/></g><g transform="translate(0 3.133)"><g transform="translate(16.948)"><rect width="6.351" height="1.403" fill="#a9c2ff"/></g><rect width="15.188" height="1.403" fill="#a9c2ff"/></g></g><g transform="translate(62.734 95.633)"><g transform="translate(4.147 14.506)"><path d="M5527.791-1951.01a9.444,9.444,0,0,1-9.224-7.518.646.646,0,0,1,.5-.761.646.646,0,0,1,.761.5,8.149,8.149,0,0,0,7.96,6.487,8.164,8.164,0,0,0,7.944-6.41.645.645,0,0,1,.766-.5.645.645,0,0,1,.5.766A9.46,9.46,0,0,1,5527.791-1951.01Z" transform="translate(-5518.553 1959.302)" fill="#a9c2ff"/></g><g transform="translate(4.129 3.969)"><path d="M5519.124-1995.507a.621.621,0,0,1-.124-.012.644.644,0,0,1-.51-.755,9.424,9.424,0,0,1,9.243-7.615,9.4,9.4,0,0,1,9.131,7.116.645.645,0,0,1-.469.783.645.645,0,0,1-.782-.469,8.111,8.111,0,0,0-7.88-6.14,8.132,8.132,0,0,0-7.977,6.571A.645.645,0,0,1,5519.124-1995.507Z" transform="translate(-5518.479 2003.89)" fill="#a9c2ff"/></g><path d="M5514.39-1993.916a13.4,13.4,0,0,1-13.383-13.384,13.4,13.4,0,0,1,13.383-13.383,13.4,13.4,0,0,1,13.384,13.383A13.4,13.4,0,0,1,5514.39-1993.916Zm0-24.933a11.563,11.563,0,0,0-11.549,11.55,11.563,11.563,0,0,0,11.549,11.55,11.563,11.563,0,0,0,11.55-11.55A11.563,11.563,0,0,0,5514.39-2018.849Z" transform="translate(-5501.007 2020.683)" fill="#a9c2ff"/><g transform="translate(9.482 11.707)"><g transform="translate(1.251)"><rect width="5.301" height="0.848" fill="#a9c2ff"/></g><g transform="translate(1.251 3.472)"><rect width="5.301" height="0.848" fill="#a9c2ff"/></g><g transform="translate(0 1.676)"><rect width="7.802" height="0.848" fill="#a9c2ff"/></g></g></g><g transform="translate(95.017 95.633)"><g transform="translate(4.147 14.506)"><path d="M5664.39-1951.01a9.444,9.444,0,0,1-9.224-7.518.645.645,0,0,1,.5-.761.646.646,0,0,1,.761.5,8.149,8.149,0,0,0,7.96,6.487,8.165,8.165,0,0,0,7.944-6.41.645.645,0,0,1,.766-.5.646.646,0,0,1,.5.766A9.461,9.461,0,0,1,5664.39-1951.01Z" transform="translate(-5655.153 1959.302)" fill="#ff912b"/></g><g transform="translate(4.129 3.969)"><path d="M5655.723-1995.507a.623.623,0,0,1-.123-.012.644.644,0,0,1-.51-.755,9.424,9.424,0,0,1,9.243-7.615,9.4,9.4,0,0,1,9.131,7.116.645.645,0,0,1-.468.783.646.646,0,0,1-.783-.469,8.111,8.111,0,0,0-7.88-6.14,8.132,8.132,0,0,0-7.977,6.571A.645.645,0,0,1,5655.723-1995.507Z" transform="translate(-5655.078 2003.89)" fill="#ff912b"/></g><path d="M5650.99-1993.916a13.4,13.4,0,0,1-13.383-13.384,13.4,13.4,0,0,1,13.383-13.383,13.4,13.4,0,0,1,13.383,13.383A13.4,13.4,0,0,1,5650.99-1993.916Zm0-24.933a11.563,11.563,0,0,0-11.55,11.55,11.563,11.563,0,0,0,11.55,11.55,11.563,11.563,0,0,0,11.55-11.55A11.563,11.563,0,0,0,5650.99-2018.849Z" transform="translate(-5637.607 2020.683)" fill="#ff912b"/><g transform="translate(9.482 11.707)"><g transform="translate(1.251)"><rect width="5.301" height="0.848" fill="#ff912b"/></g><g transform="translate(1.251 3.472)"><rect width="5.301" height="0.848" fill="#ff912b"/></g><g transform="translate(0 1.676)"><rect width="7.802" height="0.848" fill="#ff912b"/></g></g></g><g transform="translate(21.966 67.982)"><g transform="translate(0 2.732)"><path d="M5344.435-2110.194H5328.5v-15.932h15.932Zm-15.182-.75h14.431v-14.431h-14.431Z" transform="translate(-5328.503 2126.126)" fill="#a8ccff"/></g><g transform="translate(2.32)"><path d="M5344.36-2122.224a1.127,1.127,0,0,1-.868-.408l-4.916-5.947a1.126,1.126,0,0,1,.151-1.585,1.125,1.125,0,0,1,1.584.151l3.9,4.716,7.053-11.838a1.127,1.127,0,0,1,1.543-.391,1.126,1.126,0,0,1,.391,1.543l-7.87,13.21a1.126,1.126,0,0,1-.881.546C5344.417-2122.225,5344.388-2122.224,5344.36-2122.224Z" transform="translate(-5338.318 2137.685)" fill="#ff912b"/></g></g><g transform="translate(77.82 67.982)"><g transform="translate(0 2.732)"><path d="M5580.771-2110.194H5564.84v-15.932h15.931Zm-15.181-.75h14.431v-14.431H5565.59Z" transform="translate(-5564.84 2126.126)" fill="#a8ccff"/></g><g transform="translate(2.32)"><path d="M5580.7-2122.224a1.127,1.127,0,0,1-.868-.408l-4.916-5.947a1.126,1.126,0,0,1,.15-1.585,1.125,1.125,0,0,1,1.584.151l3.9,4.716,7.053-11.838a1.126,1.126,0,0,1,1.543-.391,1.126,1.126,0,0,1,.391,1.543l-7.87,13.21a1.126,1.126,0,0,1-.881.546C5580.754-2122.225,5580.725-2122.224,5580.7-2122.224Z" transform="translate(-5574.655 2137.685)" fill="#ff912b"/></g></g><g transform="translate(42.884 45.805)"><rect width="23.299" height="1.403" fill="#a9c2ff"/><g transform="translate(0 6.265)"><rect width="21.472" height="1.403" fill="#a9c2ff"/></g><g transform="translate(0 3.133)"><g transform="translate(16.948)"><rect width="6.351" height="1.403" fill="#a9c2ff"/></g><rect width="15.188" height="1.403" fill="#a9c2ff"/></g></g><g transform="translate(97.665 45.805)"><rect width="23.299" height="1.403" fill="#a9c2ff"/><g transform="translate(0 6.265)"><rect width="21.472" height="1.403" fill="#a9c2ff"/></g><g transform="translate(0 3.133)"><g transform="translate(16.948)"><rect width="6.351" height="1.403" fill="#a9c2ff"/></g><rect width="15.188" height="1.403" fill="#a9c2ff"/></g></g><g transform="translate(21.966 40.33)"><g transform="translate(0 2.732)"><path d="M5344.435-2227.2H5328.5v-15.932h15.932Zm-15.182-.751h14.431v-14.43h-14.431Z" transform="translate(-5328.503 2243.128)" fill="#a8ccff"/></g><g transform="translate(2.32)"><path d="M5344.36-2239.226a1.127,1.127,0,0,1-.868-.408l-4.916-5.947a1.125,1.125,0,0,1,.151-1.584,1.124,1.124,0,0,1,1.584.15l3.9,4.716,7.053-11.838a1.127,1.127,0,0,1,1.543-.391,1.127,1.127,0,0,1,.391,1.543l-7.87,13.209a1.128,1.128,0,0,1-.881.547Z" transform="translate(-5338.318 2254.687)" fill="#ff912b"/></g></g><g transform="translate(77.82 40.33)"><g transform="translate(0 2.732)"><path d="M5580.771-2227.2H5564.84v-15.932h15.931Zm-15.181-.751h14.431v-14.43H5565.59Z" transform="translate(-5564.84 2243.128)" fill="#a8ccff"/></g><g transform="translate(2.32)"><path d="M5580.7-2239.226a1.127,1.127,0,0,1-.868-.408l-4.916-5.947a1.125,1.125,0,0,1,.15-1.584,1.125,1.125,0,0,1,1.584.15l3.9,4.716,7.053-11.838a1.127,1.127,0,0,1,1.543-.391,1.127,1.127,0,0,1,.391,1.543l-7.87,13.209a1.127,1.127,0,0,1-.881.547Z" transform="translate(-5574.655 2254.687)" fill="#ff912b"/></g></g><g transform="translate(16.06 19.503)"><rect width="103.076" height="2.166" fill="#a9c2ff"/></g><g transform="translate(16.06 26.02)"><rect width="79.532" height="2.166" fill="#a9c2ff"/></g><g transform="translate(16.06 14.017)"><g transform="translate(37.489)"><rect width="28.099" height="2.166" fill="#a9c2ff"/></g><g transform="translate(70.453)"><rect width="32.623" height="2.166" fill="#a9c2ff"/></g><rect width="33.307" height="2.166" fill="#a9c2ff"/></g></g><path d="M4372.52-993.442h-535.2a.656.656,0,0,1-.654-.654h0a.656.656,0,0,1,.654-.654h535.2a.656.656,0,0,1,.654.654h0A.656.656,0,0,1,4372.52-993.442Z" transform="translate(-61.921 -1092.495)" fill="#111e61"/><g transform="translate(3990.603 -2363.227)"><g transform="translate(0)"><path d="M5167.442-1108.454s-9.611-10.986-12.33-15.988l-7.477-13.809-9.789,2.421,12.423,17.606,12.977,10.981Z" transform="translate(-5046.191 1380.319)" fill="#ffb27d"/><path d="M4809.377-2160.474a12.669,12.669,0,0,0-6.856-1.312,3.208,3.208,0,0,1,1.446-.687c-1.174-.174-3.793.99-3.793.99-16.325-6.29-18.89,17.746-18.547,23.33s-5.486,7.407-13.979,11.807c-16.2,8.4-17.628,19.636-17.628,19.636.126.075.258.16.4.256.8-1.362,2.459-3.92,3.855-4.306a57.667,57.667,0,0,0-2.245,5.469c4.78,3.636,13.724,11.695,19.957,17.408a9.151,9.151,0,0,1,.424-3.539l.77,4.637c3.335,3.066,5.635,5.223,5.635,5.223-.412-4.512,20.409-28.326,31.272-35.458,2.644-3.893,3.583-10.771,3.655-11.312-.456,5.453-1.39,8.512-2.224,10.234C4820.716-2126.564,4815.362-2157.073,4809.377-2160.474Z" transform="translate(-4750.02 2162.523)" fill="#111e61"/><path d="M4951.764-2020.452c.055.025-5.245,2.776-9.231,1.686-3.75-1.023-6.2-5.884-6.148-5.9,1.588-.315,2.046-2.5,2.013-11.874l.717.141,12.07,2.39s-.274,3.8-.283,7.377C4950.893-2023.623,4951.075-2020.773,4951.764-2020.452Z" transform="translate(-4892.34 2066.31)" fill="#ffb27d"/><path d="M4943.705-2146.62s5.954-6.339,13.429-.324C4957.134-2146.944,4952.784-2147.7,4943.705-2146.62Z" transform="translate(-4897.931 2152.605)" fill="#e37970"/><path d="M4960.008-2033.547s-.274,3.8-.282,7.377c-6.754-.19-10.325-6.351-11.788-9.767Z" transform="translate(-4901.164 2065.853)" fill="#d68d5d"/><path d="M4928.147-2121.632s-3.54-5.593-4.389-10.375c-.606-3.414,1.133-16.069,13.849-14.246a17.274,17.274,0,0,1,7.166,2.709c2.761,1.865,6.746,5.891,2.29,16.934l-1.157,3.73Z" transform="translate(-4882.619 2150.234)" fill="#111e61"/><path d="M4981.182-1547.568l-6.4.2-6.925.212s-16-17.809-24.969-46.359q-.313-1-.663-2.015c-4.911-14.318-15.091-32.291-20.455-48.558-.854-2.592-1.62-5.03-2.309-7.339-.22-.74-.435-1.465-.639-2.18a172.574,172.574,0,0,1-6.153-32.391l38.737.31S4957.663-1619.893,4981.182-1547.568Z" transform="translate(-4874.232 1798.62)" fill="#80bdcc"/><path d="M4947.713-1914.755a52.054,52.054,0,0,1-36.3,2.224c-.232-.073,1.3-76.2,6.893-78.292,1.286,1.6,5.094,3.2,8.5,3.127,3.926-.086,5.2-1.767,5-3.6,4.185,2.328,7.523,4.528,7.523,4.528C4942.887-1980.594,4947.713-1914.755,4947.713-1914.755Z" transform="translate(-4873.254 2031.765)" fill="#ff9800"/><path d="M4870.61-1873.7c-1.693,2.4-4.94,16.963-13.017,18.794,4.162-10.382,7.322-14.934,7.815-18.126a78.739,78.739,0,0,0,.48-17.939c2.7-4.739,4.722-7.988,4.722-7.988.212-.766,4.3-13.4,5.606-2.107S4872.5-1876.379,4870.61-1873.7Z" transform="translate(-4832.17 1966.421)" fill="#5f9aa8"/><path d="M4956.3-2098.617s-15.979.264-15.991-9.69-2.081-16.624,8.122-17.213,12.188,3.207,13,6.528S4960.457-2098.942,4956.3-2098.617Z" transform="translate(-4895.201 2134.312)" fill="#ffb27d"/><path d="M4939.106-2132.892s-4.375,11.678-11.089,13.4-9.627-.073-9.627-.073a19.014,19.014,0,0,0,6.219-11.233S4935.807-2138.45,4939.106-2132.892Z" transform="translate(-4878.599 2141.44)" fill="#111e61"/><path d="M5001.462-2128.5s3.267,2.607,4.064,5.142,1.154,7.753,2.676,7.575c0,0,3.3-7.937-.409-12.427C5003.865-2132.968,5001.462-2128.5,5001.462-2128.5Z" transform="translate(-4942.039 2137.992)" fill="#163560"/><path d="M5280.636-1964.47s2.252-8.119,11.178-6.972c1.024.321,4.017,1.515,2.1,4.719-1.41,2.362-2.021,1.143-4.239,4.317s-4.626,3.892-7.377,3.511Z" transform="translate(-5155.234 2016.685)" fill="#ffb27d"/><path d="M4917.551-1104.809c-.543-2.991-1.579-8.163-1.579-8.163l.24-18.352h-11.146l4.171,17.566a17.883,17.883,0,0,1-.857,7.336s-1.07,4.877,3.732,4.968S4918.095-1101.818,4917.551-1104.809Z" transform="translate(-4868.423 1375.03)" fill="#ffb27d"/><path d="M4927.034-1019.009h-9.99c-.5-2.613.365-7.346.365-7.346,5.437,5.269,8.841-.132,8.841-.132C4927.062-1024.427,4927.044-1019.778,4927.034-1019.009Z" transform="translate(-4877.453 1294.969)" fill="#c45446"/><path d="M5201.028-1048.738h-12.315c-1.068-.994-2.092-2.951-3.338-5.508a5.954,5.954,0,0,0-4.01-2.746v8.254h-2.553l-2.342-8.78c-1.569-2.954-.368-5.61.736-7.943,1.285,0,4.978.877,11.521,8.43a8.487,8.487,0,0,0,6.881,3.288.638.638,0,0,0,.1.052C5199.395-1051.987,5200.624-1049.9,5201.028-1048.738Z" transform="translate(-5075.111 1324.732)" fill="#c45446"/><path d="M5064.624-1979.55s-10.489,5.865-14.236,7.556c-2.136.964-7.051,3.266-10.515,4.892a5.406,5.406,0,0,1-6.406-1.381c-5.687-6.643-20.488-21.05-35.692-22.817,0,0,9.245,22.84,9.518,27.462s1.087,75.588,1.087,75.588-.543,3.263,5.71,1.9,7.885-2.719,7.885-2.719-5.981-43.776-4.35-59a33.959,33.959,0,0,0-.646-9.86,77.87,77.87,0,0,0,20.223,8.138,113.568,113.568,0,0,0,19.4-11.782c3.516-2.576,9.694-12.4,9.694-12.4Z" transform="translate(-4939.223 2031.765)" fill="#d35700"/><path d="M4994.668-1456.693l-6.925.212s-16-17.809-24.969-46.359q-.314-1-.664-2.015c-4.91-14.318-15.09-32.291-20.455-48.558-.854-2.592-1.62-5.03-2.308-7.339-.22-.74-.435-1.465-.639-2.18l5.7-4.329s17.127,27.734,22.43,53.833C4971.448-1490.756,4989.893-1463.477,4994.668-1456.693Z" transform="translate(-4894.115 1707.94)" fill="#5f9aa8"/><path d="M4869.5-1534.781c.1,12.692-.544,41.873-2.2,53.953h-6.134c-3.39,0-5.082-.049-5.082-.049-4.146-21-7.1-38.384-9.245-53.36-1.762-12.29-3.328-22.826-4.532-31.9-1.213-9.128-2.056-16.771-2.358-23.229-.045-1.017-.081-2.006-.1-2.966s-.024-1.9-.017-2.814l33.471-3.263C4872.884-1576.166,4869.444-1542.157,4869.5-1534.781Z" transform="translate(-4818.605 1731.724)" fill="#80bdcc"/><path d="M4861.556-1451.606c-3.39,0-5.082-.049-5.082-.049-4.146-21-7.1-38.384-9.245-53.36-1.762-12.29-3.327-22.826-4.532-31.9-1.213-9.128-2.055-16.771-2.357-23.229l12.283,7.225s-7.84,2.765-4.849,23.7S4857.393-1454.57,4861.556-1451.606Z" transform="translate(-4818.994 1702.502)" fill="#5f9aa8"/><path d="M4838.985-1888.074s-2.356,8.517-10.513,7.429-19.758-5.982-19.758-5.982,3.488-11.014,7.819-25.485c.047-.152.091-.307.138-.462,5.116-17.087,11.366-38.837,14.474-52.99.066-.3.13-.6.194-.894a88.071,88.071,0,0,0,1.664-9.713l6.892-13.12s9.965,22.636,10.51,28.347S4838.985-1888.074,4838.985-1888.074Z" transform="translate(-4794.843 2030.231)" fill="#d35700"/><path d="M4856.268-1961.791l9.055-27.5c-.024.011-11.4,3.339-17.066,6.2,0,0-3.539,4.563-5.729,15.09,0,0-2.313,25.273,2.853,34.518,0,0,16.314,3.263,42.417-5.71v-5.981s-28.549,1.5-34.4,2.175Z" transform="translate(-4820.271 2030.228)" fill="#ffb27d"/><path d="M4863.554-1872.31c-.36,9.12-2.484,26.711-21.167,36.407,5.115-17.087,11.365-38.837,14.473-52.99C4860.249-1883.692,4863.739-1877.121,4863.554-1872.31Z" transform="translate(-4820.558 1953.56)" fill="#b53c00"/><path d="M4862.522-1989.286s-16.68,1.156-20.667,10.038-5.257,38.429-.182,47.129c0,0,6.988,1.99,19.346-.321l.457-.087s3.942-9.653.408-11.556c0,0-10.423.544-9.335-2.9S4862.522-1989.286,4862.522-1989.286Z" transform="translate(-4817.47 2030.228)" fill="#d35700"/><path d="M5023.357-1832.534a14.283,14.283,0,0,0,2.76-5.571c.484-2.815,1.99-4.9,5.916-5.417s5.613-.572,5.6.535-3.207,8.832-8.84,13.446S5023.357-1832.534,5023.357-1832.534Z" transform="translate(-4958.758 1919.182)" fill="#ffb27d"/></g><g transform="translate(41.699 60.678)"><path d="M4934.261-1901.522l-6.114,1.606a.771.771,0,0,1-.941-.549l-.718-2.735a.771.771,0,0,1,.55-.941l6.114-1.606a.77.77,0,0,1,.941.549l.718,2.735A.77.77,0,0,1,4934.261-1901.522Z" transform="translate(-4926.462 1905.774)" fill="#deedff"/><rect width="2.06" height="2.761" transform="translate(0.961 2.323) rotate(-14.711)" fill="#739af0"/><path d="M4945.151-1901.429l-2.479.651a.346.346,0,0,1-.421-.246h0a.346.346,0,0,1,.246-.421l2.48-.651a.346.346,0,0,1,.421.246h0A.346.346,0,0,1,4945.151-1901.429Z" transform="translate(-4938.51 1902.974)" fill="#739af0"/><path d="M4946.58-1896.4l-2.893.76a.132.132,0,0,1-.16-.094h0a.132.132,0,0,1,.094-.16l2.893-.76a.131.131,0,0,1,.16.094h0A.131.131,0,0,1,4946.58-1896.4Z" transform="translate(-4939.49 1898.812)" fill="#739af0"/><path d="M4947.04-1894.651l-2.893.76a.132.132,0,0,1-.161-.094h0a.131.131,0,0,1,.094-.16l2.893-.76a.132.132,0,0,1,.161.094h0A.133.133,0,0,1,4947.04-1894.651Z" transform="translate(-4939.841 1897.477)" fill="#739af0"/></g></g><g transform="translate(3906.499 -2277.401)"><g transform="translate(30.443 50.001)"><path d="M4522.964-1245.513h264.711v-77.894l-264.711-.777Z" transform="translate(-4522.964 1386.483)" fill="#699ff0"/><rect width="264.711" height="20.37" fill="#699ff0"/></g><rect width="316.594" height="14.682" rx="7.341" transform="translate(0 35.319)" fill="#466aa5"/><path d="M4719.77-1649.675c-.034.021-.071.042-.107.061l.033-.061Z" transform="translate(-4642.733 1685.052)" fill="#5f9aa8"/><path d="M4537.581-1459.67l257.8.777V-1501.6h-257.8Z" transform="translate(-4503.684 1571.97)" fill="#afcdfb" opacity="0.9"/><g transform="translate(264.181 0)"><path d="M5519.588-1799.365l-7.6,35.319h29.627l6.626-35.319Z" transform="translate(-5511.986 1799.365)" fill="#699ff0"/><path d="M5526.275-1794.607l-6.866,31.9h26.76l5.986-31.9Z" transform="translate(-5517.654 1795.731)" fill="#f3f9ff"/></g><g transform="translate(269.801 3.686)"><path d="M5575.1-1783.767H5554.73a.684.684,0,0,0-.682.682.684.684,0,0,0,.682.682H5575.1a.684.684,0,0,0,.683-.682A.684.684,0,0,0,5575.1-1783.767Z" transform="translate(-5549.728 1783.767)" fill="#699ff0"/><path d="M5570.7-1770.159h-20.368a.685.685,0,0,0-.683.682.685.685,0,0,0,.683.682H5570.7a.684.684,0,0,0,.682-.682A.684.684,0,0,0,5570.7-1770.159Z" transform="translate(-5546.368 1773.375)" fill="#699ff0"/><path d="M5567.95-1757.1h-20.369a.684.684,0,0,0-.683.682.684.684,0,0,0,.683.682h20.369a.684.684,0,0,0,.682-.682A.684.684,0,0,0,5567.95-1757.1Z" transform="translate(-5544.268 1763.403)" fill="#699ff0"/><path d="M5563.964-1730.177H5543.6a.684.684,0,0,0-.682.682.684.684,0,0,0,.682.682h20.369a.684.684,0,0,0,.682-.682A.684.684,0,0,0,5563.964-1730.177Z" transform="translate(-5541.225 1742.842)" fill="#699ff0"/><path d="M5559.566-1716.568H5539.2a.685.685,0,0,0-.683.682.685.685,0,0,0,.683.682h20.368a.685.685,0,0,0,.683-.682A.685.685,0,0,0,5559.566-1716.568Z" transform="translate(-5537.866 1732.449)" fill="#699ff0"/><path d="M5556.816-1703.51h-20.367a.684.684,0,0,0-.683.682.684.684,0,0,0,.683.682h20.367a.685.685,0,0,0,.684-.682A.685.685,0,0,0,5556.816-1703.51Z" transform="translate(-5535.767 1722.477)" fill="#699ff0"/></g><rect width="15.268" height="0.845" transform="matrix(0.289, -0.957, 0.957, 0.289, 254.764, 34.298)" fill="#a53d38"/><path d="M5464.985-1660.195a2.921,2.921,0,0,0-2.953,2.429h5.906A2.921,2.921,0,0,0,5464.985-1660.195Z" transform="translate(-5209.658 1693.085)" fill="#b64c41"/><g transform="translate(256.855 19.423)"><path d="M5483.333-1701.675a15.705,15.705,0,0,1-2.343-.2l.033-.192c1.129.193,4.135.486,4.472-.46a4.911,4.911,0,0,0-.184-2.1,21.245,21.245,0,0,1-.259-8.222c.489-2.937.125-3.827-.266-4.056-.409-.24-.961.2-.967.2l-.122-.152c.027-.022.664-.526,1.188-.219.646.378.767,1.81.36,4.256a21.045,21.045,0,0,0,.257,8.152,4.939,4.939,0,0,1,.176,2.208C5485.456-1701.84,5484.392-1701.675,5483.333-1701.675Z" transform="translate(-5480.99 1717.179)" fill="#b64c41"/></g><g transform="translate(201.798 54.425)"><path d="M5253.649-1569.072l1.738,3.522,3.887.565-2.812,2.742.664,3.871-3.476-1.828-3.477,1.828.664-3.871-2.812-2.742,3.887-.565Z" transform="translate(-5248.024 1569.072)" fill="#ff9800"/><path d="M5319.613-1569.072l1.738,3.522,3.887.565-2.812,2.742.664,3.871-3.477-1.828-3.476,1.828.664-3.871-2.812-2.742,3.887-.565Z" transform="translate(-5298.398 1569.072)" fill="#ff9800"/><path d="M5389.337-1569.072l1.738,3.522,3.887.565-2.812,2.742.664,3.871-3.476-1.828-3.476,1.828.664-3.871-2.812-2.742,3.887-.565Z" transform="translate(-5351.645 1569.072)" fill="#ff9800"/><path d="M5459.308-1569.072l1.738,3.522,3.887.565-2.812,2.742.664,3.871-3.477-1.828-3.476,1.828.664-3.871-2.812-2.742,3.886-.565Z" transform="translate(-5405.08 1569.072)" fill="#ff9800"/><path d="M5520.006-1569.072l1.739,3.522,3.887.565-2.812,2.742.664,3.871-3.477-1.828-3.476,1.828.664-3.871-2.812-2.742,3.887-.565Z" transform="translate(-5451.433 1569.072)" fill="#ff9800"/></g></g><g transform="translate(4195.466 -2186.931)"><g transform="translate(53.05 39.621)"><path d="M5880.6-1232.113s-6.943-8.1-.429-13.245c0,0,4.759-2.881,8.639-2.647,0,0-5.5,9.219-3.719,10.136s5.386-10.715,5.386-10.715,10.829-1.05,14.312.625c0,0-9.257,7.576-7.308,8.026s11.949-6.984,11.949-6.984,10.078,1.715,9.541,7.863-4.01,8.047-5.536,7.883-10.456-3.572-10.649-2.321,5.18,5.338,8.943,5.529c0,0-7.106,7.836-11.828,5.575s-5.126-5.847-8.069-7.191-5.457-1.341-4.242.03,6.543,2.7,8.227,5.682,3.194,4.986-1.692,4.251-12.828-4.31-13.176-8.4Z" transform="translate(-5868.862 1248.907)" fill="#82b378"/><g transform="translate(0 9.973)"><path d="M5904.724-1206.659s-27.375-1.055-33.42,6.774a19.8,19.8,0,0,1-5.451,7.65l-.642,1.748s4.744-5,6.441-5.3C5871.653-1195.792,5869-1205.491,5904.724-1206.659Z" transform="translate(-5859.57 1206.707)" fill="#82b378"/><path d="M5847.621-1147.7a17.187,17.187,0,0,0-6.284,12.11l1.066.1s1.876-8.028,5.269-11.168S5847.621-1147.7,5847.621-1147.7Z" transform="translate(-5841.337 1162.17)" fill="#82b378"/></g></g><g transform="translate(0 17.629)"><path d="M5657.375-1313.36s11.044-6.185,5.89-14.578c0,0-4.124-5.154-8.541-6.479,0,0,2.355,12.516,0,12.811s-1.621-14.136-1.621-14.136-11.632-5.6-16.2-5.154c0,0,7.216,12.222,4.859,11.927s-10.455-12.664-10.455-12.664-11.928-2.208-13.842,4.86,1.178,10.6,2.944,11.044,13.106.294,12.811,1.767-7.951,3.829-12.222,2.5c0,0,4.713,11.633,10.9,11.044s8.1-4.418,11.928-4.712,6.626.736,4.712,1.767-8.393.338-11.486,2.967-5.6,4.249.147,5.427,16.051.442,18.113-3.976Z" transform="translate(-5616.865 1341.959)" fill="#a8d29f"/><g transform="translate(6.053 7.395)"><path d="M5642.476-1310.669s30.923,10.013,34.458,21.2a23.5,23.5,0,0,0,2.945,10.75v2.209s-3.24-7.51-5.007-8.541C5674.872-1285.046,5681.793-1294.765,5642.476-1310.669Z" transform="translate(-5642.476 1310.669)" fill="#82b378"/><path d="M5795.965-1179.9a20.4,20.4,0,0,1,2.05,16.057l-1.227-.329s1.191-9.709-1.3-14.593S5795.965-1179.9,5795.965-1179.9Z" transform="translate(-5758.562 1211.855)" fill="#82b378"/></g></g><g transform="translate(48.51)"><path d="M5831.7-1378.856s-14.558-8.153-7.764-19.217c0,0,5.435-6.794,11.258-8.541,0,0-3.106,16.5,0,16.888s2.135-18.635,2.135-18.635,15.334-7.376,21.352-6.794c0,0-9.511,16.111-6.405,15.723s13.782-16.693,13.782-16.693,15.723-2.911,18.247,6.406-1.553,13.976-3.882,14.558-17.276.388-16.887,2.329,10.481,5.047,16.111,3.3c0,0-6.212,15.335-14.365,14.558s-10.676-5.823-15.723-6.212-8.734.971-6.211,2.33,11.064.445,15.141,3.911,7.376,5.6-.194,7.154-21.158.582-23.875-5.241Z" transform="translate(-5822.126 1416.555)" fill="#a8d29f"/><g transform="translate(1.882 9.748)"><path d="M5895.5-1375.309s-40.762,13.2-45.421,27.952a30.966,30.966,0,0,1-3.883,14.17v2.912s4.271-9.9,6.6-11.259C5852.8-1341.534,5843.672-1354.345,5895.5-1375.309Z" transform="translate(-5842.389 1375.309)" fill="#82b378"/><path d="M5833.9-1202.933s-6.286,9.546-2.7,21.166l1.617-.434s-1.569-12.8,1.719-19.236S5833.9-1202.933,5833.9-1202.933Z" transform="translate(-5830.089 1245.055)" fill="#82b378"/></g></g><path d="M5768.4-1093.039a28.517,28.517,0,0,0,28.518-28.517h-57.035A28.517,28.517,0,0,0,5768.4-1093.039Z" transform="translate(-5710.81 1191.274)" fill="#f1a34f"/><path d="M5786.648-1093.257a28.59,28.59,0,0,1-3.543.218,28.516,28.516,0,0,1-28.516-28.517h7.085A28.522,28.522,0,0,0,5786.648-1093.257Z" transform="translate(-5722.04 1191.274)" fill="#ffb973"/><path d="M5796.038-1006.119h-57.822a3.518,3.518,0,0,1,3.518-3.518h50.786a3.519,3.519,0,0,1,3.518,3.518Z" transform="translate(-5709.537 1105.805)" fill="#f1a34f"/><rect width="58.621" height="0.875" transform="translate(28.135 69.718)" fill="#d86713"/></g><g transform="translate(3782.834 -2371.11)"><path d="M3919.047-2031.044a75.084,75.084,0,0,0-26.981-7.007A18.645,18.645,0,0,0,3873-2025.3q-.232.7-.441,1.458c-3.733,13.426-1.7,54.07,10.859,64.672s35.633,6.129,35.633,6.129Z" transform="translate(-3870.879 2075.39)" fill="#111e61"/><path d="M4099.595-1614.948s-1.346,16.8-2.929,37c-2.151,27.434-10.339,95.792-10.339,95.792s1.736,2.725-6.69.95c0,0-10.325-23.284-12.47-50.067-.033-.439-.067-.881-.1-1.323-2-27.265-5.1-84.676-5.1-84.676Z" transform="translate(-4016.809 1754.019)" fill="#1100a3"/><path d="M4100.055-1631.994s-1.806,22.607-3.389,42.8l-29.5,46.675c-.033-.439-.067-.881-.1-1.323-2-27.265-5.1-84.676-5.1-84.676Z" transform="translate(-4016.809 1765.258)" fill="#111e61"/><path d="M4010.159-1663.41l-50.7,145.884s-5.3-1-6.491-3.343c0,0-1.458-61.7,7.131-76.58,4.853-8.411,7.325-31.988,7.662-39.968,1-23.719,3.52-30.145,3.52-30.145Z" transform="translate(-3933.493 1792.42)" fill="#1100a3"/><g transform="translate(58.263 268.842)"><path d="M4120.767-1043.354h4.128c1.383-.218,2.4-.618,3.822-.8a3.825,3.825,0,0,1,3.342.8c.026.026.039.041.039.041h17.536c.441-.63.017-2.089-.4-3.163a2.5,2.5,0,0,0-1.642-1.5c-1.86-.538-5.526-1.018-8.883-4.057-1.889-1.707-9.121-6.276-9.121-6.276l-.038-.009c-.159,0-.915.235-4.2,3.013-1.7,1.433-4.6-2.024-4.6-2.024a4.124,4.124,0,0,0-.951,1.289,4.359,4.359,0,0,0-.376,2.692c.262,1.58-.583,4.516-1.256,6.5-.409,1.2-.753,2.057-.753,2.057S4117.215-1043.8,4120.767-1043.354Z" transform="translate(-4117.411 1058.318)" fill="#111e61"/><path d="M4120.775-1006.226h4.11c1.382-.218,2.414-.677,3.832-.862a3.825,3.825,0,0,1,3.342.8c.026.026.039.041.039.041h17.536c.441-.63.018-2.089-.4-3.163-.533-.474-.683,2.057-.977,2.46s-14.305.147-15.114-.441a8.46,8.46,0,0,0-6.62-.809c-2.945.7-7.285-1.1-8.359-1.58-.409,1.2-.753,2.057-.753,2.057S4117.224-1006.67,4120.775-1006.226Z" transform="translate(-4117.411 1021.249)" fill="#111e61"/></g><g transform="translate(16.111 268.842)"><path d="M3942.407-1043.354h4.128c1.383-.218,2.4-.618,3.822-.8a3.828,3.828,0,0,1,3.343.8c.026.026.038.041.038.041h17.536c.441-.63.018-2.089-.4-3.163a2.5,2.5,0,0,0-1.642-1.5c-1.86-.538-5.526-1.018-8.883-4.057-1.889-1.707-9.121-6.276-9.121-6.276l-.038-.009c-.158,0-.915.235-4.2,3.013-1.7,1.433-4.6-2.024-4.6-2.024a4.121,4.121,0,0,0-.95,1.289,4.354,4.354,0,0,0-.376,2.692c.261,1.58-.583,4.516-1.256,6.5-.409,1.2-.753,2.057-.753,2.057S3938.856-1043.8,3942.407-1043.354Z" transform="translate(-3939.052 1058.318)" fill="#111e61"/><path d="M3942.416-1006.226h4.111c1.383-.218,2.413-.677,3.832-.862a3.826,3.826,0,0,1,3.342.8c.026.026.038.041.038.041h17.536c.442-.63.018-2.089-.4-3.163-.533-.474-.683,2.057-.977,2.46s-14.305.147-15.114-.441a8.46,8.46,0,0,0-6.62-.809c-2.945.7-7.285-1.1-8.359-1.58-.409,1.2-.753,2.057-.753,2.057S3938.865-1006.67,3942.416-1006.226Z" transform="translate(-3939.052 1021.249)" fill="#111e61"/></g><path d="M4063.419-2083.525s16.43,8.087,25.927,5.09a22.777,22.777,0,0,0-6.413-5.228c.233-1.382.419-2.645.565-3.77a59.143,59.143,0,0,0,.546-6.388l-10.069-8.117-2.259-1.82a28.7,28.7,0,0,1-.308,5.355c-.019.13-.038.26-.06.387A23.78,23.78,0,0,1,4063.419-2083.525Z" transform="translate(-4017.916 2125.53)" fill="#ffae73"/><path d="M4023.739-1944.374c-.049,1.047,2.106,2.2,3.042,2.615a79.838,79.838,0,0,0,12.23,4.476,54.024,54.024,0,0,0,8.8,1.6c8.8.9,19.194-1.079,22.762-1.03a1.552,1.552,0,0,0,1-.379c.238-.192.428-10.937.238-24.49,0-.522,0-1.1-.045-1.618v-.189c-.049-5.279-.241-10.843-.479-16.358-.522-12.173-1.471-23.92-3.091-30.435-1.9-7.654-9.094-17.241-13.871-19.865-4.042-2.221-17.331-4.548-18-4.072-7.8,5.826-12.1,23.061-12.023,42.632,0,.616.008,1.239.017,1.861.035,2.02.108,4.065.224,6.121a262.278,262.278,0,0,1-.519,34.235C4023.885-1947.181,4023.771-1945.52,4023.739-1944.374Z" transform="translate(-3987.613 2072.399)" fill="#ff9800"/><path d="M4096.63-2092.283s.027.051.082.149c.635,1.139,4.976,8.479,12.149,10.583a59.143,59.143,0,0,0,.546-6.388l-10.069-8.117a28.183,28.183,0,0,0-2.566,3.535C4096.679-2092.367,4096.63-2092.283,4096.63-2092.283Z" transform="translate(-4043.278 2119.648)" fill="#f48f4e"/><path d="M4102.363-2146.519s-15.685,2.606-17.158-7.187-4.489-16.052,5.464-18.129,12.464,1.366,13.75,4.515S4106.4-2147.449,4102.363-2146.519Z" transform="translate(-4033.328 2178)" fill="#ffae73"/><path d="M4067.738-2174.109s-2.083-2.1-.883-3.43,1.893.695,2.84.632,2.651-2.84,2.777-5.365,9.235,1.328,12.9.129,6.869-6.093,1.147-8.73c-3.363-1.55-20.174-9.532-26.554-1.434-8.133,10.324,2.729,21.142,4.18,22.783s2.281,1.156,2.281,1.156S4068.983-2171.834,4067.738-2174.109Z" transform="translate(-4012.989 2195.88)" fill="#111e61"/><path d="M4068.182-2189.6a10.831,10.831,0,0,1,.884-3.976,14.619,14.619,0,0,0,.253,3.114C4069.613-2189.411,4068.182-2189.6,4068.182-2189.6Z" transform="translate(-4021.552 2194.121)" fill="#2a3967"/><path d="M4061.157-2183.866s1.978.213,2.1,1.77l-.716.925A2.912,2.912,0,0,0,4061.157-2183.866Z" transform="translate(-4016.188 2186.706)" fill="#2a3967"/><g transform="translate(35.266 40.709)"><path d="M4021.2-1972.742l-.486-2.99a26.561,26.561,0,0,0,17.484-10.384,33.832,33.832,0,0,0,6.316-15.491c1.442-10.724-1.38-16.829-8.629-18.663-6.493-1.643-14,3.431-14.071,3.482l-1.717-2.5c.352-.242,8.7-5.906,16.531-3.924,6.109,1.546,12.957,6.618,10.887,22a36.586,36.586,0,0,1-6.9,16.918A29.5,29.5,0,0,1,4021.2-1972.742Z" transform="translate(-4020.102 2023.627)" fill="#111e61"/></g><path d="M4145.834-1741.8s2.072-1.053,3.2-1.561,3.333-1.865,3.5-.9,1.074,2.825-1.017,3.164S4145.834-1741.8,4145.834-1741.8Z" transform="translate(-4080.853 1851.25)" fill="#ffae73"/><g transform="translate(67.23 98.208)"><path d="M1.827,0h.551A1.827,1.827,0,0,1,4.2,1.827v0A1.827,1.827,0,0,1,2.378,3.654H1.827A1.827,1.827,0,0,1,0,1.827v0A1.827,1.827,0,0,1,1.827,0Z" transform="translate(12.683 4.7) rotate(-163.455)" fill="#3c5ca9"/><path d="M4160.516-1772.5l-5.074,17.086a2.2,2.2,0,0,0,1.479,2.727l6.483,1.926a2.2,2.2,0,0,0,2.728-1.478l5.074-17.086a2.2,2.2,0,0,0-1.478-2.727l-6.484-1.925A2.2,2.2,0,0,0,4160.516-1772.5Z" transform="translate(-4155.352 1775.55)" fill="#c5ddff"/><path d="M4160.311-1764.5l-4.869,16.394a2.2,2.2,0,0,0,1.479,2.727l6.483,1.926a2.2,2.2,0,0,0,2.728-1.478l4.769-16.057a14.384,14.384,0,0,0-4.746-.875C4164.608-1761.761,4161.7-1763.569,4160.311-1764.5Z" transform="translate(-4155.352 1768.244)" fill="#7db0ff"/><rect width="11.156" height="11.176" transform="translate(12.012 19.158) rotate(-163.46)" fill="#3c5ca9"/></g><path d="M4022.139-1889.828c-2.91-.728-5.53,1.056-9.581.414,0,0-20.064-14.073-23.58-17.59-2.545-2.544,7.667-14.021,12.986-22.935a2.251,2.251,0,0,1-.808-.285c-4.067-2.411-12.236-6.786-18.981-7.477a2.209,2.209,0,0,1-.714-.2c-4.321,9.33-8.766,21.392-10.118,33.623a4.743,4.743,0,0,0,1.623,4.1c4.947,4.275,18.51,11.848,34.816,16.54a22.737,22.737,0,0,0,7.118,3.1c3.5.654,4.94-1.285,10.016,1.634,2.34,1.346,3.075-1.521,2.788-3.005C4027.313-1883.9,4025.384-1889.016,4022.139-1889.828Z" transform="translate(-3947.578 1998.868)" fill="#ffae73"/><path d="M4014.285-2007.174a55.829,55.829,0,0,0-12.217,19.561s7.78,6.78,22.348,8.136c0,0,5.979-11,1.609-16.574S4014.285-2007.174,4014.285-2007.174Z" transform="translate(-3971.064 2051.771)" fill="#ff9800"/></g><g transform="translate(3830.338 -2361.236)"><g transform="translate(125.553 79.145)"><path d="M4620.178-1819.21s-.449,21.269.594,27.474-1.367,35.069-1.367,35.069l-4.979-.625s-12.465-47.147-11.192-53.2S4620.178-1819.21,4620.178-1819.21Z" transform="translate(-4603.142 1819.21)" fill="#ffae73"/><g transform="translate(10.769 61.918)"><path d="M4654.2-1556.59s1.923,6.456,1.464,7.69-2.908,3.812-4.928,5.381-.239-4.132.144-5.981-2.589-1.981-2.124-4.848l.466-2.867Z" transform="translate(-4648.709 1557.215)" fill="#ffae73"/><path d="M4648.77-1545.085s.013,5.343-.043,6.4,1.051.094,1.206-.836a4.594,4.594,0,0,1,1.581-2.611C4651.985-1542.263,4648.77-1545.085,4648.77-1545.085Z" transform="translate(-4648.721 1547.952)" fill="#ffae73"/></g></g><path d="M4518.288-1541.832c1.791,18.027,8.265,45.727,8.265,45.727l5.028-3.626s8.856-62.16,10.3-67.215c10.045-35.129,11.191-69.641,11.191-69.641l-29.393-8.674c-3,5.039-5.322,13.324-4.614,22.7C4522.156-1581.659,4516.143-1563.427,4518.288-1541.832Z" transform="translate(-4412.427 1765.516)" fill="#111e61"/><path d="M4383.088-1552.619a7.679,7.679,0,0,1-1.625,3.955c-.346.441-1.356,1.607-1.733,1.192s1.055-3.547.207-5.471C4379.633-1553.632,4383.088-1552.619,4383.088-1552.619Z" transform="translate(-4306.927 1695.199)" fill="#ffae73"/><path d="M4562.729-1037.451a2.017,2.017,0,0,0-1.327-1.212c-1.5-.435-4.464-.823-7.176-3.278-1.526-1.379-7.369-5.07-7.369-5.07l-.031-.007c-.128,0-.739.19-3.4,2.434-1.374,1.158-3.715-1.636-3.715-1.636a3.328,3.328,0,0,0-.767,1.041,3.516,3.516,0,0,0-.305,2.175c.212,1.276-.471,3.649-1.015,5.253-.331.972-.608,1.661-.608,1.661s-.16.8,2.71,1.16h3.334c1.117-.176,1.942-.5,3.088-.649a3.092,3.092,0,0,1,2.7.649.381.381,0,0,1,.031.033h14.167C4563.407-1035.4,4563.064-1036.584,4562.729-1037.451Z" transform="translate(-4427.093 1308.658)" fill="#111e61"/><path d="M4448.529-1547.537c1.791,18.027,7.875,46.32,7.875,46.32l4.445,1.434s9.83-67.812,11.275-72.866c10.045-35.13,11.6-76.838,11.6-76.838l-29.8-1.478c-3,5.039-5.322,13.324-4.614,22.7C4452.4-1587.363,4446.384-1569.132,4448.529-1547.537Z" transform="translate(-4359.154 1769.872)" fill="#1100a3"/><path d="M4491.663-1037.451a2.015,2.015,0,0,0-1.327-1.212c-1.5-.435-4.464-.823-7.176-3.278-1.526-1.379-7.368-5.07-7.368-5.07l-.031-.007c-.128,0-.739.19-3.4,2.434-1.374,1.158-3.594-1.708-3.594-1.708a3.5,3.5,0,0,0-.889,1.113,3.52,3.52,0,0,0-.3,2.175c.211,1.276-.471,3.649-1.015,5.253-.331.972-.609,1.661-.609,1.661s-.158.8,2.71,1.16H4472c1.117-.176,1.942-.5,3.088-.649a3.092,3.092,0,0,1,2.7.649.412.412,0,0,1,.031.033h14.167C4492.34-1035.4,4492-1036.584,4491.663-1037.451Z" transform="translate(-4372.821 1308.658)" fill="#111e61"/><g transform="translate(0 144.588)"><path d="M4130.711-1035.5a5.009,5.009,0,0,1-2.741,6.646,5.269,5.269,0,0,1-6.841-2.662,5.01,5.01,0,0,1,2.741-6.646A5.27,5.27,0,0,1,4130.711-1035.5Z" transform="translate(-4109.169 1157.621)" fill="#111e61"/><path d="M4288.895-1035.525a5.01,5.01,0,0,1-2.741,6.646,5.269,5.269,0,0,1-6.841-2.662,5.009,5.009,0,0,1,2.741-6.646A5.27,5.27,0,0,1,4288.895-1035.525Z" transform="translate(-4229.969 1157.637)" fill="#111e61"/><path d="M4117.436-1043.879l7.411,2.585a6.886,6.886,0,0,0,2.337.383l42.049-.418,4.591-7.393Z" transform="translate(-4106.671 1165.37)" fill="#eb7100"/><g transform="translate(32.965)"><path d="M4213.053-1502.472l11.747-28.365.015-.055c.071-.254,1.9-6.345,12.484-7.708l.049-.007,8.706-1.594c1.125-.288,4.375-.771,5.863.449a2.781,2.781,0,0,1,.817,2.59c-.218,2.379-8.036,20.77-13.236,32.552l1.665.694c1.336-3.027,13.062-29.667,13.375-33.09a4.432,4.432,0,0,0-1.456-4.095c-2.433-1.99-6.978-.93-7.459-.81l-8.585,1.569c-11.4,1.475-13.727,8.174-13.958,8.943l-11.706,28.269Z" transform="translate(-4211.372 1542.299)" fill="#e66b00"/></g><path d="M4298.588-1409.315l22.692,4.407s6.617,2.614,5.3,13.878c-1.154,9.912-6.219,65.526-6.219,65.526s-1.057,11.573-26.5,8.216Z" transform="translate(-4241.403 1440.743)" fill="#e66b00"/><path d="M4141.65-1394.377l-6.1,62.282a13.788,13.788,0,0,1-2.582,6.777,14.606,14.606,0,0,1-11.75,5.963l-21.046.127-.521,0-13.181.079a14.952,14.952,0,0,1-3.818-.468c-.285-.073-.564-.154-.841-.242a14.32,14.32,0,0,1-9.374-9.514,13.629,13.629,0,0,1-.373-6.014l9.558-59.592a14.321,14.321,0,0,1,12.938-11.843l3.717-.346.886-.081h0l.745-.068,12.426-1.154,1.524-.141,11.992-1.112a14.89,14.89,0,0,1,5.4.481c.11.031.222.063.333.1l.693.23A14.062,14.062,0,0,1,4141.65-1394.377Z" transform="translate(-4071.886 1441.103)" fill="#ff9800"/><path d="M4133.046-1075.568a14.607,14.607,0,0,1-11.751,5.963l-21.045.127-.521,0-13.18.079a14.96,14.96,0,0,1-3.819-.468q-.426-.109-.841-.242c-4.562-1.47-9.823-6.836-9.9-12.529,0,0,44.521-.566,53.825.83C4130.617-1081.084,4132.052-1077.823,4133.046-1075.568Z" transform="translate(-4071.966 1191.354)" fill="#fd8324"/><g transform="translate(5.832 31.863)"><g transform="translate(0 1.926)"><path d="M4118.751-1399.323c-.092.055-9.854,5.833-11.137,10.91-1.318,5.218-10.131,66.029-10.22,66.643a13.883,13.883,0,0,0,4.767,10.3l-.668-.155c-.285-.073-.564-.154-.841-.242a12.428,12.428,0,0,1-4.045-10.011c.363-2.51,8.909-61.466,10.236-66.72,1.164-4.6,8.045-9.193,10.275-10.577l.886-.081h0Z" transform="translate(-4096.562 1399.323)" fill="#e66b00"/></g><g transform="translate(20.545 0.631)"><path d="M4199.09-1404.8a18.457,18.457,0,0,0-7.908,12.186c-1.341,8.569-6.581,70.806-6.633,71.433l0,.045-.014.042c-.011.031-.758,3.391,1.4,5.673l-.528,0-.521,0a6.5,6.5,0,0,1-1.12-5.872c.163-1.924,5.307-62.943,6.638-71.443a19.113,19.113,0,0,1,7.167-11.93Z" transform="translate(-4183.495 1404.805)" fill="#e66b00"/></g><g transform="translate(40.043)"><path d="M4280.507-1407.144a16.413,16.413,0,0,0-3.815,3.062,17.36,17.36,0,0,0-4.3,9.077c-1.341,8.565-5.5,70.594-5.538,71.219l0,.049-.016.044c-.01.031-.193,3.827,1.963,6.109l-1.326.008c-1.648-2.085-1.546-5.856-1.408-6.3.133-1.983,4.21-62.741,5.541-71.24a17.6,17.6,0,0,1,7.876-12.353c.111.031.222.063.333.1Z" transform="translate(-4265.996 1407.474)" fill="#e66b00"/></g></g></g><path d="M4473.933-1862.546c-2.595,3.033-25.25,2.45-30.354,1.315q-5.249-1.166-8.137-11.052c-.638,4.6-2.075,9.99-5.289,10.324-5.266.547-7.445-.362-8.078-2.359-.1-.325.967-14.225,1.894-28.206.642-9.637,1.215-19.319,1.292-24.608.009-.665.009-1.256,0-1.776a80.585,80.585,0,0,0-11.621-.095,72.126,72.126,0,0,1,13.09-23.3c8.44-9.642,28.554-6.781,36.7-4.371,5.139,1.519,9.989,7.038,7.48,18.723-1.473,6.875.629,17.909,1.47,34.173C4473.2-1878.145,4474.493-1863.2,4473.933-1862.546Z" transform="translate(-4332.877 1997.49)" fill="#6b98f6"/><path d="M4637.709-1929.317s6.3,5.135,9.916,28.339c0,0-2.034,2.806-8.062,2.052S4637.709-1929.317,4637.709-1929.317Z" transform="translate(-4502.914 1982.44)" fill="#6b98f6"/><path d="M4517.753-2130.409s-14.611-16.595-21.793-5.515c0,0-5.519,2.472-7.273,12.033-1.79,9.754,4.864,16.945,8.147,15.031,2.106-1.228,3.83,2.469,3.83,2.469Z" transform="translate(-4389.954 2143.131)" fill="#111e61"/><path d="M4475.441-2148.659s-2.113-7.55-13.214-4.863c0,0,5.327-.822,6.85,1.2,0,0-4.292-1.823-6.9-.125s-2.891,7.175-2.449,8.827,3.511,6.521,5.452,6.467,4.189-1.821,4.189-1.821Z" transform="translate(-4367.939 2154.1)" fill="#111e61"/><path d="M4535.721-1994.192c-.3-1.65,1.348-4.547,1.059-13.744l.716.12,12.025,2.035s.281,9.778.373,13.324C4549.968-1989.5,4535.493-1991.567,4535.721-1994.192Z" transform="translate(-4426.074 2042.479)" fill="#ffae73"/><path d="M4555.372-2005.392s.107,3.545.2,7.091c-6.7,0-10.68-5.781-12.224-9.125Z" transform="translate(-4431.925 2042.091)" fill="#f48f4e"/><path d="M4522.513-2092.847s-3.662-5.444-4.636-10.159c-.695-3.366.678-15.954,13.33-14.5a17.123,17.123,0,0,1,7.175,2.486c2.788,1.771,6.847,5.651,2.738,16.717l-1.044,3.728Z" transform="translate(-4412.364 2126.243)" fill="#111e61"/><path d="M4550.7-2070.728s-15.827.7-16.113-9.16-2.522-16.415,7.571-17.281,12.167,2.841,13.063,6.11S4554.813-2071.165,4550.7-2070.728Z" transform="translate(-4424.927 2110.721)" fill="#ffae73"/><path d="M4533.286-2104.764s-4.013,11.693-10.618,13.59-9.542.194-9.542.194a18.853,18.853,0,0,0,5.853-11.3S4529.861-2110.181,4533.286-2104.764Z" transform="translate(-4408.847 2117.874)" fill="#111e61"/><path d="M4594-2100.882s3.31,2.493,4.169,4.982,1.359,7.651,2.86,7.433c0,0,3.048-7.957-.747-12.3C4596.253-2105.379,4594-2100.882,4594-2100.882Z" transform="translate(-4470.604 2114.96)" fill="#111e61"/><path d="M4560.917-2103s-2.75,12.2-11.038,16.319c0,0,8.188-7.679,8.678-15.7S4560.917-2103,4560.917-2103Z" transform="translate(-4436.915 2117.453)" fill="#111e61"/><path d="M4363.773-1586.093s-3.957,4.608-4.385,7-.2,8.793,1.012,9.022c1.3.245,2.067-4.2,2.486-5.067,1.413-2.942,4.193-1.563,4.564-2.618a51.573,51.573,0,0,0,.741-6.123Z" transform="translate(-4291.289 1720.331)" fill="#ffae73"/><path d="M4391.977-1853.814s-10.694,20.846-11.3,29.58-2.089,33.691-2.089,33.691l4.417,2.219s9.166-32.9,9.726-37.874c.624-5.55,18.76-23.957,18.76-23.957Z" transform="translate(-4306.106 1924.781)" fill="#ffae73"/><path d="M4437.77-1887.744H4421.8l-8.158,15.536s13.009,10.764,25.967,6.394S4437.77-1887.744,4437.77-1887.744Z" transform="translate(-4332.874 1950.693)" fill="#6b98f6"/></g></g></svg>