<svg xmlns="http://www.w3.org/2000/svg" width="76" height="76" viewBox="0 0 76 76"><g transform="translate(-718 -1265)"><circle cx="38" cy="38" r="38" transform="translate(718 1265)" fill="#fa9500"/><g transform="translate(-859.264 3585.185)"><g transform="translate(1593.264 -2307.185)"><path d="M1746.519-2059.741h-25.75a.732.732,0,0,0-.732.732.732.732,0,0,0,.732.732h25.75a.732.732,0,0,0,.732-.732A.733.733,0,0,0,1746.519-2059.741Z" transform="translate(-1707.656 2083.906)" fill="#fff"/><path d="M1746.519-2012.843h-25.75a.732.732,0,0,0-.732.732.733.733,0,0,0,.732.732h25.75a.732.732,0,0,0,.732-.732A.733.733,0,0,0,1746.519-2012.843Z" transform="translate(-1707.656 2041.587)" fill="#fff"/><path d="M1747.251-1965.213a.732.732,0,0,0-.732-.732h-25.75a.732.732,0,0,0-.732.732.732.732,0,0,0,.732.732h25.75A.732.732,0,0,0,1747.251-1965.213Z" transform="translate(-1707.656 1999.269)" fill="#fff"/><path d="M1720.768-1919.046a.732.732,0,0,0-.732.732.732.732,0,0,0,.732.732h12.846a.732.732,0,0,0,.732-.732.732.732,0,0,0-.732-.732Z" transform="translate(-1707.656 1956.95)" fill="#fff"/><path d="M1897.022-2139.146h-9.462a.732.732,0,0,0-.732.732.732.732,0,0,0,.732.732h9.462a.732.732,0,0,0,.732-.732A.732.732,0,0,0,1897.022-2139.146Z" transform="translate(-1858.159 2155.556)" fill="#fff"/><path d="M1897.022-2175.981h-9.462a.732.732,0,0,0-.732.732.733.733,0,0,0,.732.732h9.462a.732.732,0,0,0,.732-.732A.732.732,0,0,0,1897.022-2175.981Z" transform="translate(-1858.159 2188.794)" fill="#fff"/><path d="M1636.515-2274.108a.732.732,0,0,0,.732-.732v-22.153a3.329,3.329,0,0,0-.982-2.37l-6.84-6.84a3.331,3.331,0,0,0-2.37-.981h-22.508a3.355,3.355,0,0,0-3.351,3.351v15.749h-1.738c-1.97,0-2.874-1.4-3.751-2.021a2.812,2.812,0,0,1-.978-2.133v-7.024a1.889,1.889,0,0,1,1.887-1.887h1.861a.732.732,0,0,0,.732-.732.732.732,0,0,0-.732-.732h-1.861a3.355,3.355,0,0,0-3.351,3.352v38.727a3.355,3.355,0,0,0,3.351,3.352h29.348a3.355,3.355,0,0,0,3.351-3.351v-1.219h4.581a3.355,3.355,0,0,0,3.351-3.351v-6.31a.732.732,0,0,0-.732-.732.732.732,0,0,0-.732.732v6.31a1.889,1.889,0,0,1-1.887,1.887h-29.348a1.889,1.889,0,0,1-1.887-1.887v-38.727a1.889,1.889,0,0,1,1.887-1.887h22.508a1.9,1.9,0,0,1,.352.034v5.985a2.359,2.359,0,0,0,2.356,2.356h5.985a1.9,1.9,0,0,1,.034.353v22.153a.732.732,0,0,0,.732.732Zm-31.967,12.353h23.3v1.219a1.889,1.889,0,0,1-1.887,1.886h-29.348a1.889,1.889,0,0,1-1.887-1.886v-28.481l.023.021c.8.552,2.062,2.376,4.707,2.376h1.738v21.514a3.355,3.355,0,0,0,3.351,3.351Zm25.216-37.055a.892.892,0,0,1-.891-.891v-4.982l5.874,5.874Z" transform="translate(-1593.264 2307.185)" fill="#fff"/><path d="M1727.191-2235.214a7.166,7.166,0,0,0,7.155-7.155,7.163,7.163,0,0,0-7.155-7.155,7.163,7.163,0,0,0-7.155,7.155,7.166,7.166,0,0,0,7.155,7.155Zm0-1.465a5.659,5.659,0,0,1-3.462-1.179,3.827,3.827,0,0,1,2.113-2.014,2.985,2.985,0,0,0,1.349.321,2.984,2.984,0,0,0,1.349-.321,3.827,3.827,0,0,1,2.113,2.014,5.659,5.659,0,0,1-3.462,1.179Zm-1.54-5.877a1.542,1.542,0,0,1,1.54-1.54,1.542,1.542,0,0,1,1.54,1.54,1.542,1.542,0,0,1-1.54,1.54A1.542,1.542,0,0,1,1725.651-2242.555Zm1.54-5.5a5.7,5.7,0,0,1,5.69,5.69,5.661,5.661,0,0,1-1.142,3.416,5.2,5.2,0,0,0-2.019-1.983,2.986,2.986,0,0,0,.476-1.619,3.008,3.008,0,0,0-3.005-3.005,3.008,3.008,0,0,0-3.005,3.005,2.986,2.986,0,0,0,.476,1.619,5.2,5.2,0,0,0-2.019,1.983,5.66,5.66,0,0,1-1.142-3.416A5.7,5.7,0,0,1,1727.191-2248.059Z" transform="translate(-1707.656 2255.155)" fill="#fff"/></g></g></g></svg>