<svg xmlns="http://www.w3.org/2000/svg" width="163.704" height="180" viewBox="0 0 163.704 180"><g transform="translate(-180 -2910)"><rect width="95" height="180" rx="10" transform="translate(180 2910)" fill="rgba(255,212,148,0.25)"/><g transform="translate(-893.479 3582.531)"><path d="M1104.776-644.443a8.091,8.091,0,0,1,5.789-7.753,8.027,8.027,0,0,1,2.3-.334h21.571a8.09,8.09,0,0,0-8.091,8.087V-631.9h-17.526a4.042,4.042,0,0,1-4.042-4.042v-8.5Z" transform="translate(-3.229 -3.227)" fill="#acb0c8"/><path d="M1131.616-652.541h99.043a8.094,8.094,0,0,1,8.091,8.091v138.368h-90.956a8.089,8.089,0,0,1-8.087-8.087v-130.28a8.093,8.093,0,0,0-8.091-8.091Z" transform="translate(-20.554 -3.22)" fill="#f3f9ff"/><path d="M1180.182-273.284a8.09,8.09,0,0,0,8.087-8.091v-6.472a4.045,4.045,0,0,1,4.046-4.042h90.953a4.045,4.045,0,0,1,4.046,4.042v6.472a8.09,8.09,0,0,1-8.087,8.091Z" transform="translate(-51.903 -236.018)" fill="#acb0c8"/><path d="M1109.635-657.53a9.872,9.872,0,0,0-9.861,9.861v8.5a5.823,5.823,0,0,0,5.817,5.817h1.439a1.772,1.772,0,0,0,1.773-1.773,1.772,1.772,0,0,0-1.773-1.773h-1.439a2.274,2.274,0,0,1-2.272-2.272v-8.5a6.323,6.323,0,0,1,6.316-6.316h1.431a6.324,6.324,0,0,1,6.316,6.316v130.277a9.872,9.872,0,0,0,9.861,9.861h100.078a9.873,9.873,0,0,0,9.861-9.861v-6.471a5.824,5.824,0,0,0-5.817-5.817h-11.4v-44.266a1.773,1.773,0,0,0-1.773-1.773,1.773,1.773,0,0,0-1.773,1.773v44.266h-76.014a5.824,5.824,0,0,0-5.817,5.817v6.471a6.323,6.323,0,0,1-6.3,6.316h-1.048a6.323,6.323,0,0,1-6.316-6.316V-647.669a9.817,9.817,0,0,0-2.294-6.316h91.476a6.323,6.323,0,0,1,6.316,6.316v61.733a1.773,1.773,0,0,0,1.773,1.773,1.773,1.773,0,0,0,1.773-1.773v-61.733a9.872,9.872,0,0,0-9.861-9.861Zm124,140.139a6.323,6.323,0,0,1-6.316,6.316h-91.475a9.816,9.816,0,0,0,2.293-6.316v-6.471a2.275,2.275,0,0,1,2.272-2.272h90.954a2.274,2.274,0,0,1,2.272,2.272v6.471Z" fill="#111e61"/><path d="M1186.1-584.538v-9.3a3.545,3.545,0,0,1,3.545-3.545h69.227a3.545,3.545,0,0,1,3.545,3.545v9.3a3.545,3.545,0,0,1-3.545,3.545h-69.226A3.546,3.546,0,0,1,1186.1-584.538Z" transform="translate(-55.721 -38.822)" fill="#ffd494"/><g transform="translate(1131.275 -613.247)"><g transform="translate(0 0)"><g transform="translate(23.224)"><path d="M1254.143-530.844a1.773,1.773,0,0,1,1.773-1.773h6.588a1.773,1.773,0,0,1,1.772,1.773,1.773,1.773,0,0,1-1.772,1.773h-6.588A1.773,1.773,0,0,1,1254.143-530.844Z" transform="translate(-1254.143 532.616)" fill="#111e61"/></g><g transform="translate(0 6.517)"><path d="M1188.631-512.461a1.773,1.773,0,0,1,1.773-1.773h29.812a1.773,1.773,0,0,1,1.773,1.773,1.773,1.773,0,0,1-1.773,1.773H1190.4A1.773,1.773,0,0,1,1188.631-512.461Z" transform="translate(-1188.631 514.234)" fill="#111e61"/></g><g transform="translate(0 13.033)"><path d="M1188.631-494.079a1.773,1.773,0,0,1,1.773-1.773h29.812a1.773,1.773,0,0,1,1.773,1.773,1.773,1.773,0,0,1-1.773,1.773H1190.4A1.773,1.773,0,0,1,1188.631-494.079Z" transform="translate(-1188.631 495.852)" fill="#111e61"/></g></g><g transform="translate(0 19.549)"><path d="M1188.631-475.7a1.773,1.773,0,0,1,1.773-1.773h29.812a1.773,1.773,0,0,1,1.773,1.773,1.773,1.773,0,0,1-1.773,1.773H1190.4A1.773,1.773,0,0,1,1188.631-475.7Z" transform="translate(-1188.631 477.471)" fill="#111e61"/></g></g><g transform="translate(1173.45 -585.333)"><g transform="translate(0 0)"><g transform="translate(23.224)"><path d="M1373.111-452.1a1.773,1.773,0,0,1,1.773-1.773h6.588a1.773,1.773,0,0,1,1.773,1.773,1.773,1.773,0,0,1-1.773,1.773h-6.588A1.773,1.773,0,0,1,1373.111-452.1Z" transform="translate(-1373.111 453.875)" fill="#111e61"/></g><g transform="translate(0 6.516)"><path d="M1307.6-433.721a1.773,1.773,0,0,1,1.773-1.773h29.812a1.773,1.773,0,0,1,1.773,1.773,1.773,1.773,0,0,1-1.773,1.773h-29.812A1.773,1.773,0,0,1,1307.6-433.721Z" transform="translate(-1307.599 435.494)" fill="#111e61"/></g><g transform="translate(0 13.033)"><path d="M1307.6-415.339a1.773,1.773,0,0,1,1.773-1.773h29.812a1.773,1.773,0,0,1,1.773,1.773,1.773,1.773,0,0,1-1.773,1.773h-29.812A1.773,1.773,0,0,1,1307.6-415.339Z" transform="translate(-1307.599 417.112)" fill="#111e61"/></g></g><g transform="translate(0 19.549)"><path d="M1307.6-396.957a1.773,1.773,0,0,1,1.773-1.773h29.812a1.773,1.773,0,0,1,1.773,1.773,1.773,1.773,0,0,1-1.773,1.773h-29.812A1.773,1.773,0,0,1,1307.6-396.957Z" transform="translate(-1307.599 398.73)" fill="#111e61"/></g></g><g transform="translate(1173.45 -559.267)"><g transform="translate(0)"><g transform="translate(0.114)"><path d="M1309.693-376.8a1.773,1.773,0,0,1-1.773-1.773,1.773,1.773,0,0,1,1.773-1.773h6.588a1.773,1.773,0,0,1,1.773,1.773,1.773,1.773,0,0,1-1.773,1.773Z" transform="translate(-1307.92 380.349)" fill="#111e61"/></g><g transform="translate(0 6.516)"><path d="M1307.6-360.2a1.773,1.773,0,0,1,1.773-1.773h29.812a1.773,1.773,0,0,1,1.773,1.773,1.773,1.773,0,0,1-1.773,1.773h-29.812A1.773,1.773,0,0,1,1307.6-360.2Z" transform="translate(-1307.599 361.968)" fill="#111e61"/></g><g transform="translate(0 13.033)"><path d="M1307.6-341.813a1.773,1.773,0,0,1,1.773-1.773h29.812a1.773,1.773,0,0,1,1.773,1.773,1.773,1.773,0,0,1-1.773,1.773h-29.812A1.773,1.773,0,0,1,1307.6-341.813Z" transform="translate(-1307.599 343.586)" fill="#111e61"/></g></g><g transform="translate(0 19.549)"><path d="M1307.6-323.432a1.773,1.773,0,0,1,1.773-1.773h29.812a1.773,1.773,0,0,1,1.773,1.773,1.773,1.773,0,0,1-1.773,1.773h-29.812A1.773,1.773,0,0,1,1307.6-323.432Z" transform="translate(-1307.599 325.205)" fill="#111e61"/></g></g><path d="M1307.92-512.259v-19.735a1.773,1.773,0,0,1,1.773-1.773h29.585a1.773,1.773,0,0,1,1.772,1.773v19.735a1.773,1.773,0,0,1-1.772,1.773h-29.585A1.772,1.772,0,0,1,1307.92-512.259Z" transform="translate(-134.357 -79.889)" fill="#ff9800"/><path d="M1191.1-428.493v-19.735a1.773,1.773,0,0,1,1.772-1.773h29.585a1.773,1.773,0,0,1,1.772,1.773v19.735a1.773,1.773,0,0,1-1.772,1.773h-29.585A1.772,1.772,0,0,1,1191.1-428.493Z" transform="translate(-58.952 -133.959)" fill="#ffd494"/><path d="M1191.1-354.917v-18.664a1.773,1.773,0,0,1,1.772-1.773h29.585a1.773,1.773,0,0,1,1.772,1.773v18.664a1.773,1.773,0,0,1-1.772,1.773h-29.585A1.772,1.772,0,0,1,1191.1-354.917Z" transform="translate(-58.952 -182.142)" fill="#ff9800"/><g transform="translate(1130.377 -646.701)"><g transform="translate(0 0)"><path d="M1186.1-625.171v-.041a1.772,1.772,0,0,1,1.773-1.773,1.772,1.772,0,0,1,1.772,1.773v.041a1.772,1.772,0,0,1-1.772,1.773A1.772,1.772,0,0,1,1186.1-625.171Z" transform="translate(-1186.099 626.984)" fill="#ff9800"/><g transform="translate(5.71)"><path d="M1202.206-625.171v-.041a1.772,1.772,0,0,1,1.773-1.773,1.772,1.772,0,0,1,1.772,1.773v.041a1.772,1.772,0,0,1-1.772,1.773A1.772,1.772,0,0,1,1202.206-625.171Z" transform="translate(-1202.206 626.984)" fill="#ff9800"/></g><g transform="translate(11.42)"><path d="M1218.313-625.171v-.041a1.773,1.773,0,0,1,1.773-1.773,1.772,1.772,0,0,1,1.772,1.773v.041a1.772,1.772,0,0,1-1.772,1.773A1.772,1.772,0,0,1,1218.313-625.171Z" transform="translate(-1218.313 626.984)" fill="#ff9800"/></g></g><g transform="translate(47.935 0.021)"><path d="M1323.089-623.381a1.772,1.772,0,0,1-1.773-1.773,1.773,1.773,0,0,1,1.773-1.773h24.676a1.773,1.773,0,0,1,1.773,1.773,1.773,1.773,0,0,1-1.773,1.773Z" transform="translate(-1321.316 626.926)" fill="#ff9800"/></g></g><g transform="translate(1175.223 -610.304)"><g transform="translate(0 0)"><path d="M1320.962-520.769h-6.588a1.773,1.773,0,0,1-1.773-1.773,1.773,1.773,0,0,1,1.773-1.773h6.588a1.773,1.773,0,0,1,1.773,1.773A1.773,1.773,0,0,1,1320.962-520.769Z" transform="translate(-1312.602 524.314)" fill="#f3f9ff"/><g transform="translate(0 6.517)"><path d="M1340.639-502.387h-26.265a1.773,1.773,0,0,1-1.773-1.773,1.773,1.773,0,0,1,1.773-1.773h26.265a1.773,1.773,0,0,1,1.773,1.773A1.773,1.773,0,0,1,1340.639-502.387Z" transform="translate(-1312.602 505.932)" fill="#f3f9ff"/></g><g transform="translate(0 13.033)"><path d="M1340.639-484h-26.265a1.773,1.773,0,0,1-1.773-1.773,1.773,1.773,0,0,1,1.773-1.773h26.265a1.773,1.773,0,0,1,1.773,1.773A1.773,1.773,0,0,1,1340.639-484Z" transform="translate(-1312.602 487.55)" fill="#f3f9ff"/></g></g></g><g transform="translate(1133.811 -554.681)"><g transform="translate(0 0)"><path d="M1204.145-363.867h-6.588a1.773,1.773,0,0,1-1.773-1.773,1.773,1.773,0,0,1,1.773-1.773h6.588a1.773,1.773,0,0,1,1.773,1.773A1.773,1.773,0,0,1,1204.145-363.867Z" transform="translate(-1195.785 367.412)" fill="#f3f9ff"/><g transform="translate(0 6.517)"><path d="M1223.822-345.485h-26.265a1.773,1.773,0,0,1-1.773-1.773,1.773,1.773,0,0,1,1.773-1.773h26.265a1.773,1.773,0,0,1,1.772,1.773A1.773,1.773,0,0,1,1223.822-345.485Z" transform="translate(-1195.785 349.03)" fill="#f3f9ff"/></g><g transform="translate(0 13.033)"><path d="M1223.822-327.1h-26.265a1.773,1.773,0,0,1-1.773-1.773,1.773,1.773,0,0,1,1.773-1.773h26.265a1.773,1.773,0,0,1,1.772,1.773A1.773,1.773,0,0,1,1223.822-327.1Z" transform="translate(-1195.785 330.648)" fill="#f3f9ff"/></g></g></g><g transform="translate(1133.811 -580.608)"><g transform="translate(0 0)"><g transform="translate(19.677)"><path d="M1251.29-438.775a1.773,1.773,0,0,1,1.773-1.773h6.588a1.773,1.773,0,0,1,1.773,1.773A1.773,1.773,0,0,1,1259.65-437h-6.588A1.773,1.773,0,0,1,1251.29-438.775Z" transform="translate(-1251.29 440.548)" fill="#111e61"/></g><g transform="translate(0 6.517)"><path d="M1195.785-420.393a1.773,1.773,0,0,1,1.773-1.773h26.265a1.773,1.773,0,0,1,1.772,1.773,1.773,1.773,0,0,1-1.772,1.773h-26.265A1.773,1.773,0,0,1,1195.785-420.393Z" transform="translate(-1195.785 422.166)" fill="#111e61"/></g><g transform="translate(0 13.033)"><path d="M1195.785-402.011a1.773,1.773,0,0,1,1.773-1.773h26.265a1.773,1.773,0,0,1,1.772,1.773,1.773,1.773,0,0,1-1.772,1.773h-26.265A1.773,1.773,0,0,1,1195.785-402.011Z" transform="translate(-1195.785 403.784)" fill="#111e61"/></g></g></g><g transform="translate(1133.188 -626.337)"><path d="M1195.8-565.994a1.773,1.773,0,0,1-1.773-1.773,1.773,1.773,0,0,1,1.773-1.773h53.055a1.773,1.773,0,0,1,1.773,1.773,1.773,1.773,0,0,1-1.773,1.773Z" transform="translate(-1194.028 569.539)" fill="#111e61"/></g><g transform="translate(1133.188 -633.174)"><path d="M1195.8-585.28a1.773,1.773,0,0,1-1.773-1.773,1.773,1.773,0,0,1,1.773-1.773h24.676a1.773,1.773,0,0,1,1.772,1.773,1.773,1.773,0,0,1-1.772,1.773Z" transform="translate(-1194.028 588.825)" fill="#111e61"/></g></g></g></svg>