<svg xmlns="http://www.w3.org/2000/svg" width="76" height="76" viewBox="0 0 76 76"><g transform="translate(-718 -1164)"><circle cx="38" cy="38" r="38" transform="translate(718 1164)" fill="#fa9500"/><g transform="translate(-710.938 4513.402)"><g transform="translate(1446.261 -3313.491)"><path d="M1501.338-3100.3a.774.774,0,0,0-.774.774v22.5h-7.192v-4.522a3.217,3.217,0,0,0-3.213-3.213,3.217,3.217,0,0,0-3.213,3.213v4.522h-2.8v-4.522a3.217,3.217,0,0,0-3.213-3.213,3.217,3.217,0,0,0-3.213,3.213v4.522h-2.8v-4.522a3.217,3.217,0,0,0-3.213-3.213,3.217,3.217,0,0,0-3.213,3.213v4.522h-7.192v-4.347a.774.774,0,0,0-.774-.774.774.774,0,0,0-.774.774v5.121a.774.774,0,0,0,.774.773h40.8a.774.774,0,0,0,.774-.773v-23.275A.774.774,0,0,0,1501.338-3100.3Zm-27.96,23.275h-3.332v-4.522a1.668,1.668,0,0,1,1.666-1.666,1.668,1.668,0,0,1,1.666,1.666v4.522Zm9.223,0h-3.332v-4.522a1.668,1.668,0,0,1,1.666-1.666,1.668,1.668,0,0,1,1.666,1.666v4.522Zm9.223,0h-3.332v-4.522a1.668,1.668,0,0,1,1.666-1.666,1.668,1.668,0,0,1,1.666,1.666v4.522Z" transform="translate(-1459.759 3100.299)" fill="#fff"/></g><g transform="translate(1450.031 -3304.399)"><path d="M1504.137-2998.5a2.169,2.169,0,0,0-2.166,2.166v2.939a.773.773,0,0,0,.774.774h2.785a.773.773,0,0,0,.773-.774v-2.939A2.168,2.168,0,0,0,1504.137-2998.5Zm.619,4.332h-1.238v-2.166a.62.62,0,0,1,.619-.619.62.62,0,0,1,.619.619Z" transform="translate(-1501.971 2998.5)" fill="#fff"/></g><g transform="translate(1462.223 -3304.399)"><path d="M1640.627-2998.5a2.168,2.168,0,0,0-2.166,2.166v2.939a.774.774,0,0,0,.774.774h2.785a.773.773,0,0,0,.774-.774v-2.939A2.168,2.168,0,0,0,1640.627-2998.5Zm.619,4.332h-1.238v-2.166a.62.62,0,0,1,.619-.619.62.62,0,0,1,.619.619v2.166Z" transform="translate(-1638.461 2998.5)" fill="#fff"/></g><g transform="translate(1456.127 -3304.399)"><path d="M1572.382-2998.5a2.169,2.169,0,0,0-2.166,2.166v2.939a.774.774,0,0,0,.774.774h2.785a.773.773,0,0,0,.774-.774v-2.939A2.168,2.168,0,0,0,1572.382-2998.5Zm.619,4.332h-1.238v-2.166a.62.62,0,0,1,.619-.619.62.62,0,0,1,.619.619v2.166Z" transform="translate(-1570.216 2998.5)" fill="#fff"/></g><g transform="translate(1468.319 -3304.399)"><path d="M1708.872-2998.5a2.169,2.169,0,0,0-2.166,2.166v2.939a.773.773,0,0,0,.774.774h2.785a.774.774,0,0,0,.773-.774v-2.939A2.169,2.169,0,0,0,1708.872-2998.5Zm.619,4.332h-1.238v-2.166a.62.62,0,0,1,.619-.619.62.62,0,0,1,.619.619v2.166Z" transform="translate(-1706.706 2998.5)" fill="#fff"/></g><g transform="translate(1480.51 -3304.399)"><path d="M1845.361-2998.5a2.168,2.168,0,0,0-2.166,2.166v2.939a.774.774,0,0,0,.774.774h2.785a.774.774,0,0,0,.774-.774v-2.939A2.168,2.168,0,0,0,1845.361-2998.5Zm.619,4.332h-1.238v-2.166a.62.62,0,0,1,.619-.619.62.62,0,0,1,.619.619v2.166Z" transform="translate(-1843.195 2998.5)" fill="#fff"/></g><g transform="translate(1474.415 -3304.399)"><path d="M1777.116-2998.5a2.169,2.169,0,0,0-2.166,2.166v2.939a.773.773,0,0,0,.774.774h2.785a.773.773,0,0,0,.774-.774v-2.939A2.168,2.168,0,0,0,1777.116-2998.5Zm.619,4.332H1776.5v-2.166a.62.62,0,0,1,.619-.619.62.62,0,0,1,.619.619v2.166Z" transform="translate(-1774.95 2998.5)" fill="#fff"/></g><g transform="translate(1450.031 -3311.902)"><path d="M1504.137-3082.507a2.169,2.169,0,0,0-2.166,2.166v2.94a.774.774,0,0,0,.774.774h2.785a.774.774,0,0,0,.773-.774v-2.94A2.168,2.168,0,0,0,1504.137-3082.507Zm.619,4.332h-1.238v-2.166a.62.62,0,0,1,.619-.619.619.619,0,0,1,.619.619Z" transform="translate(-1501.971 3082.507)" fill="#fff"/></g><g transform="translate(1462.223 -3311.902)"><path d="M1640.627-3082.507a2.168,2.168,0,0,0-2.166,2.166v2.94a.774.774,0,0,0,.774.774h2.785a.774.774,0,0,0,.774-.774v-2.94A2.168,2.168,0,0,0,1640.627-3082.507Zm.619,4.332h-1.238v-2.166a.62.62,0,0,1,.619-.619.62.62,0,0,1,.619.619v2.166Z" transform="translate(-1638.461 3082.507)" fill="#fff"/></g><g transform="translate(1456.127 -3311.902)"><path d="M1572.382-3082.507a2.168,2.168,0,0,0-2.166,2.166v2.94a.774.774,0,0,0,.774.774h2.785a.774.774,0,0,0,.774-.774v-2.94A2.168,2.168,0,0,0,1572.382-3082.507Zm.619,4.332h-1.238v-2.166a.62.62,0,0,1,.619-.619.62.62,0,0,1,.619.619v2.166Z" transform="translate(-1570.216 3082.507)" fill="#fff"/></g><g transform="translate(1468.319 -3311.902)"><path d="M1708.872-3082.507a2.169,2.169,0,0,0-2.166,2.166v2.94a.774.774,0,0,0,.774.774h2.785a.774.774,0,0,0,.773-.774v-2.94A2.168,2.168,0,0,0,1708.872-3082.507Zm.619,4.332h-1.238v-2.166a.62.62,0,0,1,.619-.619.619.619,0,0,1,.619.619v2.166Z" transform="translate(-1706.706 3082.507)" fill="#fff"/></g><g transform="translate(1480.51 -3311.902)"><path d="M1845.361-3082.507a2.168,2.168,0,0,0-2.166,2.166v2.94a.774.774,0,0,0,.774.774h2.785a.774.774,0,0,0,.774-.774v-2.94A2.168,2.168,0,0,0,1845.361-3082.507Zm.619,4.332h-1.238v-2.166a.619.619,0,0,1,.619-.619.62.62,0,0,1,.619.619v2.166Z" transform="translate(-1843.195 3082.507)" fill="#fff"/></g><g transform="translate(1474.415 -3311.902)"><path d="M1777.116-3082.507a2.168,2.168,0,0,0-2.166,2.166v2.94a.774.774,0,0,0,.774.774h2.785a.774.774,0,0,0,.774-.774v-2.94A2.168,2.168,0,0,0,1777.116-3082.507Zm.619,4.332H1776.5v-2.166a.619.619,0,0,1,.619-.619.62.62,0,0,1,.619.619v2.166Z" transform="translate(-1774.95 3082.507)" fill="#fff"/></g><g transform="translate(1450.031 -3319.406)"><path d="M1504.136-3166.515a2.169,2.169,0,0,0-2.166,2.166v2.939a.774.774,0,0,0,.774.774h2.785a.774.774,0,0,0,.773-.774v-2.939A2.168,2.168,0,0,0,1504.136-3166.515Zm.619,4.332h-1.238v-2.166a.619.619,0,0,1,.619-.619.619.619,0,0,1,.619.619Z" transform="translate(-1501.97 3166.515)" fill="#fff"/></g><g transform="translate(1462.223 -3319.406)"><path d="M1640.625-3166.515a2.169,2.169,0,0,0-2.166,2.166v2.939a.774.774,0,0,0,.774.774h2.785a.774.774,0,0,0,.774-.774v-2.939A2.168,2.168,0,0,0,1640.625-3166.515Zm.619,4.332h-1.238v-2.166a.619.619,0,0,1,.619-.619.619.619,0,0,1,.619.619v2.166Z" transform="translate(-1638.459 3166.515)" fill="#fff"/></g><g transform="translate(1456.127 -3319.406)"><path d="M1572.381-3166.515a2.168,2.168,0,0,0-2.166,2.166v2.939a.774.774,0,0,0,.774.774h2.785a.774.774,0,0,0,.774-.774v-2.939A2.168,2.168,0,0,0,1572.381-3166.515Zm.619,4.332h-1.238v-2.166a.619.619,0,0,1,.619-.619.619.619,0,0,1,.619.619v2.166Z" transform="translate(-1570.215 3166.515)" fill="#fff"/></g><g transform="translate(1468.319 -3319.406)"><path d="M1708.87-3166.515a2.169,2.169,0,0,0-2.166,2.166v2.939a.774.774,0,0,0,.774.774h2.785a.774.774,0,0,0,.774-.774v-2.939A2.168,2.168,0,0,0,1708.87-3166.515Zm.619,4.332h-1.238v-2.166a.619.619,0,0,1,.619-.619.619.619,0,0,1,.619.619v2.166Z" transform="translate(-1706.704 3166.515)" fill="#fff"/></g><g transform="translate(1480.51 -3319.406)"><path d="M1845.361-3166.515a2.168,2.168,0,0,0-2.166,2.166v2.939a.774.774,0,0,0,.774.774h2.785a.774.774,0,0,0,.774-.774v-2.939A2.168,2.168,0,0,0,1845.361-3166.515Zm.619,4.332h-1.238v-2.166a.619.619,0,0,1,.619-.619.62.62,0,0,1,.619.619v2.166Z" transform="translate(-1843.195 3166.515)" fill="#fff"/></g><g transform="translate(1474.414 -3319.406)"><path d="M1777.115-3166.515a2.169,2.169,0,0,0-2.166,2.166v2.939a.774.774,0,0,0,.774.774h2.785a.774.774,0,0,0,.773-.774v-2.939A2.168,2.168,0,0,0,1777.115-3166.515Zm.619,4.332H1776.5v-2.166a.619.619,0,0,1,.619-.619.619.619,0,0,1,.619.619v2.166Z" transform="translate(-1774.949 3166.515)" fill="#fff"/></g><g transform="translate(1444.937 -3334.402)"><path d="M1489.163-3323.981h-3.47v-9.647a.774.774,0,0,0-.774-.773h-6.257a.773.773,0,0,0-.773.773.774.774,0,0,0,.773.774h5.483v8.873h-33.418v-8.873h25.356a.774.774,0,0,0,.774-.774.774.774,0,0,0-.774-.773h-26.13a.774.774,0,0,0-.774.773v9.647h-3.47a.774.774,0,0,0-.774.774v2.2a.773.773,0,0,0,.774.774h.55v23.089a.774.774,0,0,0,.773.774.774.774,0,0,0,.774-.774v-23.089h39.258v4.935a.774.774,0,0,0,.774.774.774.774,0,0,0,.774-.774v-4.935h.55a.774.774,0,0,0,.774-.774v-2.2A.774.774,0,0,0,1489.163-3323.981Zm-.774,2.2h-41.906v-.656h41.906Z" transform="translate(-1444.937 3334.402)" fill="#fff"/></g><path d="M1538.025-3301.552l.879,1.781,1.966.286-1.423,1.387.336,1.958-1.759-.925-1.758.925.336-1.958-1.422-1.387,1.966-.286Z" transform="translate(-82.182 -29.916)" fill="#fff"/><path d="M1626.774-3301.552l.879,1.781,1.966.286-1.423,1.387.336,1.958-1.758-.925-1.758.925.336-1.958-1.423-1.387,1.966-.286Z" transform="translate(-163.004 -29.916)" fill="#fff"/><path d="M1715.524-3301.552l.879,1.781,1.966.286-1.422,1.387.336,1.958-1.758-.925-1.759.925.336-1.958-1.422-1.387,1.966-.286Z" transform="translate(-243.826 -29.916)" fill="#fff"/><path d="M1804.273-3301.552l.879,1.781,1.966.286-1.423,1.387.336,1.958-1.758-.925-1.759.925.336-1.958-1.423-1.387,1.966-.286Z" transform="translate(-324.648 -29.916)" fill="#fff"/></g></g></svg>