<svg xmlns="http://www.w3.org/2000/svg" width="154.829" height="160" viewBox="0 0 154.829 160"><g transform="translate(-285 -1677)"><rect width="95" height="160" rx="10" transform="translate(285 1677)" fill="rgba(255,212,148,0.25)"/><g transform="translate(261.537 1655.522)"><path d="M63.638,48.393a6.917,6.917,0,0,1,6.915-6.915H89a6.918,6.918,0,0,0-6.919,6.915V59.12H67.094a3.456,3.456,0,0,1-3.456-3.456v-7.27Z" transform="translate(-3.486 -3.484)" fill="#acb0c8"/><path d="M87.409,41.467h59.944a6.921,6.921,0,0,1,6.919,6.919v88.929H101.243a6.917,6.917,0,0,1-6.915-6.915V48.386a6.921,6.921,0,0,0-6.918-6.919Z" transform="translate(-20.052 -3.477)" fill="#f3f9ff"/><g transform="translate(98.898 44.097)"><path d="M213.492,63.129a1.516,1.516,0,0,0-1.516-1.516H192.971a1.516,1.516,0,0,0-1.516,1.516v55.717h22.037Z" transform="translate(-191.455 -61.613)" fill="#fff1db"/></g><g transform="translate(80.859 98.667)"><g transform="translate(0 0)"><g transform="translate(34.028)"><path d="M254.965,243.146a1.516,1.516,0,0,0-1.516-1.516h-7.731a1.516,1.516,0,1,0,0,3.031h7.731A1.516,1.516,0,0,0,254.965,243.146Z" transform="translate(-244.202 -241.63)" fill="#ff9800"/></g><path d="M161.272,243.146a1.516,1.516,0,0,0-1.516-1.516H133.465a1.516,1.516,0,1,0,0,3.031h26.292A1.516,1.516,0,0,0,161.272,243.146Z" transform="translate(-131.949 -241.63)" fill="#ff9800"/><g transform="translate(0 6.738)"><path d="M131.949,265.374a1.516,1.516,0,0,0,1.516,1.516H144.5v-3.031H133.465A1.516,1.516,0,0,0,131.949,265.374Z" transform="translate(-131.949 -263.858)" fill="#ff9800"/></g></g><g transform="translate(0 13.476)"><path d="M131.949,287.6a1.516,1.516,0,0,0,1.516,1.516H144.5v-3.031H133.465A1.516,1.516,0,0,0,131.949,287.6Z" transform="translate(-131.949 -286.086)" fill="#ff9800"/><g transform="translate(0 6.738)"><path d="M131.949,309.83a1.516,1.516,0,0,0,1.516,1.516H144.5v-3.031H133.465A1.516,1.516,0,0,0,131.949,309.83Z" transform="translate(-131.949 -308.314)" fill="#ff9800"/></g></g></g><path d="M134.667,282.923a6.917,6.917,0,0,0,6.915-6.915V257.33a6.913,6.913,0,0,1,4.761-6.57,6.831,6.831,0,0,1,2.158-.345h18.442a6.917,6.917,0,0,0-6.915,6.915v25.593Z" transform="translate(-52.984 -149.085)" fill="#acb0c8"/><path d="M241.589,250.415a6.918,6.918,0,0,1,6.918,6.915v56.717H195.479a6.917,6.917,0,0,1-6.915-6.915v-49.8a6.918,6.918,0,0,0-6.919-6.915Z" transform="translate(-85.721 -149.085)" fill="#f3f9ff"/><path d="M234.385,322.669a1.516,1.516,0,0,1-1.516-1.516V275.374a1.516,1.516,0,0,1,1.516-1.516h15.177a1.516,1.516,0,0,1,1.516,1.516v45.78a1.516,1.516,0,0,1-1.516,1.516Z" transform="translate(-121.417 -165.421)" fill="#fff1db"/><path d="M181.65,250.415h11.7" transform="translate(-85.725 -149.085)" fill="#daffee"/><path d="M227.807,423.756a6.918,6.918,0,0,0,6.915-6.918V411.3a3.459,3.459,0,0,1,3.459-3.456h53.025a3.459,3.459,0,0,1,3.459,3.456v5.534a6.918,6.918,0,0,1-6.915,6.918Z" transform="translate(-117.89 -258.794)" fill="#acb0c8"/><path d="M67.067,36.478a8.442,8.442,0,0,0-8.432,8.432v7.269a4.98,4.98,0,0,0,4.974,4.974h.553a1.516,1.516,0,0,0,0-3.031h-.553a1.945,1.945,0,0,1-1.942-1.943V44.91a5.407,5.407,0,0,1,5.4-5.4h.294a5.407,5.407,0,0,1,5.4,5.4v82.011a8.442,8.442,0,0,0,8.432,8.432h20.132V137.6a1.516,1.516,0,1,0,3.031,0V108.246a8.393,8.393,0,0,0-1.961-5.4h53.472a5.407,5.407,0,0,1,5.4,5.4v39.292H120.291a4.979,4.979,0,0,0-4.974,4.974v5.533a5.407,5.407,0,0,1-5.4,5.4h-.158a5.407,5.407,0,0,1-5.4-5.4V147.855a1.516,1.516,0,0,0-3.031,0v10.191a8.442,8.442,0,0,0,8.432,8.432h60.1a8.442,8.442,0,0,0,8.432-8.432v-5.533a4.98,4.98,0,0,0-4.974-4.974H164.3V108.246a8.442,8.442,0,0,0-8.432-8.432H135.736V44.91a8.442,8.442,0,0,0-8.432-8.432ZM120.291,150.57h53.027a1.945,1.945,0,0,1,1.943,1.942v5.533a5.407,5.407,0,0,1-5.4,5.4H116.387a8.394,8.394,0,0,0,1.962-5.4v-5.533A1.945,1.945,0,0,1,120.291,150.57Zm-18.965-18.248H88.153a8.392,8.392,0,0,0,1.962-5.4V108.246a5.407,5.407,0,0,1,5.4-5.4,1.471,1.471,0,0,0,.2-.021,1.519,1.519,0,0,0,.2.021,5.407,5.407,0,0,1,5.4,5.4v24.076ZM75.793,44.91a8.4,8.4,0,0,0-1.961-5.4H127.3a5.407,5.407,0,0,1,5.4,5.4v54.9H95.515a8.442,8.442,0,0,0-8.432,8.432v18.675a5.407,5.407,0,0,1-5.4,5.4h-.488a5.407,5.407,0,0,1-5.4-5.4V44.91Z" transform="translate(0 0)" fill="#111e61"/><g transform="translate(86.065 45.484)"><path d="M224.9,108.693a4.79,4.79,0,0,0,4.785,4.785h1.838a4.791,4.791,0,0,0,4.785-4.785,2.91,2.91,0,0,0-1.362-2.461l-2.878-10.784a1.516,1.516,0,0,0-2.929,0l-2.877,10.784a2.91,2.91,0,0,0-1.362,2.461Zm5.7-6.975,1.084,4.063h-2.168Zm-2.669,7.095h5.338a1.756,1.756,0,0,1-1.75,1.635h-1.838A1.757,1.757,0,0,1,227.932,108.812Z" transform="translate(-201.927 -85.794)" fill="#111e61"/><path d="M150.485,106.232a2.91,2.91,0,0,0-1.363,2.461,4.791,4.791,0,0,0,4.785,4.785h1.838a4.791,4.791,0,0,0,4.785-4.785,2.91,2.91,0,0,0-1.362-2.461l-2.878-10.784a1.516,1.516,0,0,0-2.929,0l-2.877,10.784Zm4.342-4.514,1.084,4.063h-2.168Zm-2.669,7.095H157.5a1.756,1.756,0,0,1-1.75,1.635h-1.838A1.757,1.757,0,0,1,152.158,108.812Z" transform="translate(-149.122 -85.794)" fill="#111e61"/><path d="M161.271,96.092a1.516,1.516,0,1,0,0,3.031h15.674a1.516,1.516,0,0,0,0-3.031h-6.321V72.251h12.942a1.516,1.516,0,1,0,0-3.031H170.624V67.7a1.516,1.516,0,1,0-3.031,0V69.22H154.651a1.516,1.516,0,1,0,0,3.031h12.942V96.092Z" transform="translate(-151.918 -66.187)" fill="#111e61"/></g><g transform="translate(110.287 112.271)"><g transform="translate(0 0)"><g transform="translate(34.028)"><path d="M352.044,288.024a1.516,1.516,0,0,0-1.516-1.516H342.8a1.516,1.516,0,1,0,0,3.031h7.731A1.516,1.516,0,0,0,352.044,288.024Z" transform="translate(-341.281 -286.508)" fill="#ff9800"/></g><path d="M256.836,289.539a1.516,1.516,0,0,0,0-3.031H230.544a1.516,1.516,0,1,0,0,3.031Z" transform="translate(-229.028 -286.508)" fill="#ff9800"/><g transform="translate(38.668 6.738)"><path d="M362.71,310.253a1.516,1.516,0,0,0-1.516-1.516H358.1a1.516,1.516,0,1,0,0,3.031h3.091A1.516,1.516,0,0,0,362.71,310.253Z" transform="translate(-356.588 -308.737)" fill="#ff9800"/></g><g transform="translate(0 6.738)"><path d="M262.991,310.253a1.516,1.516,0,0,0-1.516-1.516H230.544a1.516,1.516,0,1,0,0,3.031h30.932A1.516,1.516,0,0,0,262.991,310.253Z" transform="translate(-229.028 -308.737)" fill="#ff9800"/></g><g transform="translate(0 13.477)"><path d="M272.3,334a1.516,1.516,0,0,0,0-3.031H230.545a1.516,1.516,0,1,0,0,3.031Z" transform="translate(-229.029 -330.965)" fill="#ff9800"/></g><g transform="translate(0 20.215)"><path d="M286.746,354.709a1.516,1.516,0,0,0,1.516,1.516h24.263a1.516,1.516,0,0,0,1.508-1.665,1.56,1.56,0,0,0-1.574-1.367h-24.2A1.515,1.515,0,0,0,286.746,354.709Z" transform="translate(-269.25 -353.193)" fill="#ff9800"/><path d="M229.037,354.56a1.516,1.516,0,0,0,1.508,1.665h10.071a1.516,1.516,0,0,0,0-3.031H230.61A1.559,1.559,0,0,0,229.037,354.56Z" transform="translate(-229.029 -353.193)" fill="#ff9800"/></g></g></g><g transform="translate(80.859 85.191)"><g transform="translate(0)"><g transform="translate(34.028)"><path d="M254.965,198.69a1.516,1.516,0,0,0-1.516-1.516h-7.731a1.516,1.516,0,0,0,0,3.031h7.731A1.516,1.516,0,0,0,254.965,198.69Z" transform="translate(-244.202 -197.174)" fill="#111e61"/></g><path d="M161.272,198.69a1.516,1.516,0,0,0-1.516-1.516H133.465a1.516,1.516,0,0,0,0,3.031h26.292A1.516,1.516,0,0,0,161.272,198.69Z" transform="translate(-131.949 -197.174)" fill="#111e61"/><g transform="translate(38.668 6.738)"><path d="M265.631,220.918a1.516,1.516,0,0,0-1.516-1.516h-3.091a1.516,1.516,0,1,0,0,3.031h3.091A1.516,1.516,0,0,0,265.631,220.918Z" transform="translate(-259.509 -219.402)" fill="#111e61"/></g><g transform="translate(0 6.738)"><path d="M165.912,220.918A1.516,1.516,0,0,0,164.4,219.4H133.465a1.516,1.516,0,1,0,0,3.031H164.4A1.516,1.516,0,0,0,165.912,220.918Z" transform="translate(-131.949 -219.402)" fill="#111e61"/></g></g></g><g transform="translate(110.288 139.224)"><g transform="translate(0)"><path d="M272.3,378.452a1.516,1.516,0,0,0,0-3.031H230.545a1.516,1.516,0,1,0,0,3.031Z" transform="translate(-229.029 -375.421)" fill="#ff9800"/></g></g></g></g></svg>