<svg xmlns="http://www.w3.org/2000/svg" width="76" height="76" viewBox="0 0 76 76"><g transform="translate(-193 -1265)"><circle cx="38" cy="38" r="38" transform="translate(193 1265)" fill="#fa9500"/><path d="M2354.08-2684.022l-4.2-1.329a6.584,6.584,0,0,0-3.279-1.068l-1.185-1.032a2.533,2.533,0,0,0-2-.6v-2.672a9.448,9.448,0,0,0,3.962-6.807,2.164,2.164,0,0,0,1.821-2.134v-8.529a3.381,3.381,0,0,0-3.377-3.377h-.086a.058.058,0,0,1-.058-.058,3.381,3.381,0,0,0-3.377-3.377h-8.849a6.727,6.727,0,0,0-6.719,6.719v8.623a2.164,2.164,0,0,0,1.82,2.134,9.447,9.447,0,0,0,3.963,6.807v2.671a2.534,2.534,0,0,0-2,.6l-1.2,1.045a6,6,0,0,0-2.033.666l-5.427,1.719a6.953,6.953,0,0,0-4.872,6.653v9.284a3.078,3.078,0,0,0,3.075,3.075h35.811a3.079,3.079,0,0,0,3.075-3.075v-9.284a6.953,6.953,0,0,0-4.873-6.654Zm-9.723-2.209.8.7c-3.452,4.5-3.389,4.9-4.023,4.637l-1.943-1.652,3.92-3.65.034-.029.008-.008a.92.92,0,0,1,1.2.006Zm.9,3.254a37.4,37.4,0,0,1-3.706,9.822l-1.379-5.209.773-.912a2.2,2.2,0,0,0,2.168-.841Zm-7.289,1.523,1.559,1.348-.62.732h-1.882l-.629-.72Zm0-2.172-3.834-3.57v-2.607a9.4,9.4,0,0,0,3.832.814,9.4,9.4,0,0,0,3.833-.814v2.61Zm-9.617-24.664a5.107,5.107,0,0,1,5.1-5.1h8.849a1.761,1.761,0,0,1,1.759,1.759,1.678,1.678,0,0,0,1.677,1.676h.086a1.761,1.761,0,0,1,1.759,1.759v4.8h-.965a.979.979,0,0,1-.978-.978v-.978a2.694,2.694,0,0,0-3.541-2.559,13.245,13.245,0,0,1-8.25,0l-.013,0a2.694,2.694,0,0,0-3.541,2.559v.978a.979.979,0,0,1-.978.978h-.965Zm1.792,10.343a1.256,1.256,0,0,0-1.25-1.178.543.543,0,0,1-.543-.543v-2.113h.965a2.6,2.6,0,0,0,2.6-2.6v-.978a1.077,1.077,0,0,1,1.405-1.026l.013,0a14.878,14.878,0,0,0,9.274,0,1.077,1.077,0,0,1,1.415,1.023v.978a2.6,2.6,0,0,0,2.6,2.6h.965v2.113a.543.543,0,0,1-.543.543,1.256,1.256,0,0,0-1.25,1.178,7.85,7.85,0,0,1-7.823,7.339,7.85,7.85,0,0,1-7.823-7.339Zm1.439,11.716a.921.921,0,0,1,1.2-.008l.01.01.033.028,3.921,3.651-1.963,1.659a.581.581,0,0,1-.668-.2l-3.335-4.447Zm1.241,6.115a2.2,2.2,0,0,0,2.143.846l.813.93-1.086,4.888a36.75,36.75,0,0,1-3.951-9.44Zm3.541,13.489c-1.733-1.3-3.261-2.55-4.544-3.729a.809.809,0,0,0-1.143.049.809.809,0,0,0,.049,1.143c.888.816,1.889,1.665,2.987,2.537h-8.4v-4.492a.809.809,0,0,0-.809-.809.809.809,0,0,0-.809.809v4.492h-3.632a1.459,1.459,0,0,1-1.457-1.457v-9.284a5.341,5.341,0,0,1,3.743-5.111l2.736-.866a4.247,4.247,0,0,0-.433,1.783c0,1.315,1.6,2.551,2.354,3.094a3.581,3.581,0,0,0-.929,2.92,8.149,8.149,0,0,0,1.941,3.58.809.809,0,0,0,1.139.111.809.809,0,0,0,.111-1.139,6.6,6.6,0,0,1-1.6-2.826,2.128,2.128,0,0,1,.676-1.721,1.416,1.416,0,0,0,.363-1.113,1.4,1.4,0,0,0-.581-1c-1.355-.951-1.86-1.674-1.86-1.906a2.881,2.881,0,0,1,.392-1.322,3.63,3.63,0,0,1,2.215-1.776c.275,5.56,4.9,13.025,7.736,17.595l.271.438h-.519Zm1.623-1.29c-.611-.985-1.34-2.161-2.1-3.45l1.42-6.387h1.352l1.774,6.7c-.757,1.378-1.491,2.631-2.113,3.673l-.334-.539Zm1.769,1.29c2.867-4.812,7.112-12.5,7.312-18.092a3.808,3.808,0,0,1,3.068,2.128,2.587,2.587,0,0,1,.249,1.029c0,.232-.5.955-1.859,1.906a1.4,1.4,0,0,0-.581,1,1.416,1.416,0,0,0,.363,1.113,2.129,2.129,0,0,1,.676,1.721c-.338,1.967-3.5,5.312-8.694,9.2Zm17.575-1.457a1.459,1.459,0,0,1-1.457,1.457h-3.635v-4.492a.809.809,0,0,0-.809-.809.809.809,0,0,0-.809.809v4.492h-7.68c2.432-1.932,7.114-5.868,7.638-8.921a3.582,3.582,0,0,0-.929-2.92c.758-.543,2.354-1.779,2.354-3.094a4.081,4.081,0,0,0-.319-1.52l1.9.6a5.341,5.341,0,0,1,3.743,5.111v9.284Z" transform="translate(-2106.991 3993.009)" fill="#fff"/></g></svg>