<svg xmlns="http://www.w3.org/2000/svg" width="76" height="76" viewBox="0 0 76 76"><g transform="translate(-193 -1164)"><circle cx="38" cy="38" r="38" transform="translate(193 1164)" fill="#fa9500"/><g transform="translate(-1236.265 3915.99)"><g transform="translate(1440.833 -2731.99)"><path d="M1491.833-2709.728h-.449v-3.144a3.3,3.3,0,0,0-2.227-3.117v-12.3a3.71,3.71,0,0,0-3.706-3.706h-7.713a.864.864,0,0,0-.864.865.864.864,0,0,0,.864.865h7.713a1.979,1.979,0,0,1,1.977,1.977v12.116h-4.9a9.49,9.49,0,0,0,3-3.5.865.865,0,0,0,0-.777,9.525,9.525,0,0,0-3.2-3.625.865.865,0,0,0-1.2.236.865.865,0,0,0,.237,1.2,7.8,7.8,0,0,1,2.409,2.578,7.707,7.707,0,0,1-6.714,3.884,7.707,7.707,0,0,1-6.714-3.884,7.708,7.708,0,0,1,6.714-3.884,7.725,7.725,0,0,1,2.285.343.865.865,0,0,0,1.081-.572.864.864,0,0,0-.571-1.081,9.466,9.466,0,0,0-2.794-.419,9.432,9.432,0,0,0-8.468,5.225.864.864,0,0,0,0,.777,9.488,9.488,0,0,0,3,3.5h-9.655a9.488,9.488,0,0,0,3-3.5.865.865,0,0,0,0-.777,9.433,9.433,0,0,0-8.468-5.225,9.432,9.432,0,0,0-8.468,5.225.863.863,0,0,0,0,.777,9.489,9.489,0,0,0,3,3.5h-4.9v-12.116a1.979,1.979,0,0,1,1.977-1.977h26.777a.865.865,0,0,0,.865-.865.864.864,0,0,0-.865-.865h-26.777a3.71,3.71,0,0,0-3.706,3.706v12.3a3.3,3.3,0,0,0-2.227,3.117v3.145h-.449a.865.865,0,0,0-.864.865v6.44a.865.865,0,0,0,.864.865h3.022v3.8a.865.865,0,0,0,.865.865h4.669a.865.865,0,0,0,.865-.865v-3.8h24.94a.865.865,0,0,0,.865-.865.865.865,0,0,0-.865-.865h-33.495V-2708h6.012a.865.865,0,0,0,.864-.865.864.864,0,0,0-.864-.865h-4.7v-3.145a1.569,1.569,0,0,1,1.567-1.567h42.645a1.569,1.569,0,0,1,1.567,1.567v3.145h-38.2a.865.865,0,0,0-.865.865.865.865,0,0,0,.865.865h39.513v4.711h-12.03a.865.865,0,0,0-.865.865.865.865,0,0,0,.865.865h3.475v3.8a.865.865,0,0,0,.865.865h4.669a.864.864,0,0,0,.864-.865v-3.8h3.022a.865.865,0,0,0,.865-.865v-6.44A.865.865,0,0,0,1491.833-2709.728Zm-45.385,8.169h2.939v2.94h-2.939Zm3.307-18.493a7.708,7.708,0,0,1,6.714-3.884,7.708,7.708,0,0,1,6.714,3.884,7.708,7.708,0,0,1-6.714,3.884A7.708,7.708,0,0,1,1449.755-2720.052Zm37.327,21.433h-2.939v-2.94h2.939Z" transform="translate(-1440.833 2731.99)" fill="#fff"/></g></g></g></svg>