<svg xmlns="http://www.w3.org/2000/svg" width="76" height="76" viewBox="0 0 76 76">
  <g id="t2-i9" transform="translate(5067 7760)">
    <rect id="Rectangle_5632" data-name="Rectangle 5632" width="76" height="76" transform="translate(-5067 -7760)" fill="none"/>
    <g id="Group_55989" data-name="Group 55989" transform="translate(-5892.484 -7305.592)">
      <path id="Path_101325" data-name="Path 101325" d="M859.531-381.58l5.716,5.716-30.879,30.893a4.055,4.055,0,0,1-5.716,0h0a4.056,4.056,0,0,1,0-5.716Z" transform="translate(-0.969 -35.459)" fill="#ffee58"/>
      <path id="Path_101326" data-name="Path 101326" d="M830.7-343.743a4.861,4.861,0,0,1-3.45-1.424,4.853,4.853,0,0,1-1.426-3.456,4.852,4.852,0,0,1,1.427-3.457l30.878-30.893a.871.871,0,0,1,1.2,0l5.716,5.716a.846.846,0,0,1,0,1.2l-30.879,30.893A4.907,4.907,0,0,1,830.7-343.743Zm28.028-37.434-30.28,30.294a3.173,3.173,0,0,0-.93,2.26,3.171,3.171,0,0,0,.93,2.259,3.211,3.211,0,0,0,4.522,0l30.278-30.291Z" transform="translate(-0.165 -34.665)" fill="#111e61"/>
      <path id="Path_101327" data-name="Path 101327" d="M854.685-409.126l10.68.127a.849.849,0,0,1,.589.248l29.555,29.569a3.262,3.262,0,0,0,4.594,0,3.262,3.262,0,0,0,0-4.589l-66.646-66.632c-5.986,6.407-6.3,13.732-.765,19.27Z" transform="translate(-1.585 -1.949)" fill="#f3f9ff"/>
      <path id="Path_101328" data-name="Path 101328" d="M910.819-374.38l27.024,27.024a4.118,4.118,0,0,1,0,5.789h0a4.118,4.118,0,0,1-5.789,0L905.03-368.591Z" transform="translate(-38.73 -38.965)" fill="#ffb74d"/>
      <g id="Group_55979" data-name="Group 55979" transform="translate(825.485 -454.408)">
        <path id="Path_101329" data-name="Path 101329" d="M896.211-378.5a4.913,4.913,0,0,1-3.486-1.438l-29.311-29.326-10.68-.127a.847.847,0,0,1-.589-.248l-22.239-22.253c-6.354-6.354-5.823-15.1,1.353-22.273a.846.846,0,0,1,1.2,0l67.255,67.241a4.96,4.96,0,0,1,0,6.983A4.965,4.965,0,0,1,896.211-378.5ZM853.1-411.075l10.68.127a.849.849,0,0,1,.589.248l29.555,29.569a3.262,3.262,0,0,0,4.594,0,3.262,3.262,0,0,0,0-4.589l-66.646-66.632c-5.986,6.407-6.3,13.732-.765,19.27Z" transform="translate(-825.485 454.408)" fill="#111e61"/>
      </g>
      <g id="Group_55980" data-name="Group 55980" transform="translate(830.895 -434.758)">
        <path id="Path_101330" data-name="Path 101330" d="M836.876-411.742a.843.843,0,0,1-.6-.248.847.847,0,0,1,0-1.2l2.676-2.676a.847.847,0,0,1,1.2,0,.847.847,0,0,1,0,1.2l-2.676,2.676A.843.843,0,0,1,836.876-411.742Z" transform="translate(-836.029 416.112)" fill="#111e61"/>
      </g>
      <g id="Group_55981" data-name="Group 55981" transform="translate(835.113 -430.54)">
        <path id="Path_101331" data-name="Path 101331" d="M845.1-403.522a.843.843,0,0,1-.6-.248.846.846,0,0,1,0-1.2l2.676-2.676a.847.847,0,0,1,1.2,0,.847.847,0,0,1,0,1.2l-2.676,2.676A.844.844,0,0,1,845.1-403.522Z" transform="translate(-844.249 407.891)" fill="#111e61"/>
      </g>
      <g id="Group_55982" data-name="Group 55982" transform="translate(839.331 -426.322)">
        <path id="Path_101332" data-name="Path 101332" d="M853.317-395.3a.848.848,0,0,1-.6-.248.847.847,0,0,1,0-1.2l2.676-2.676a.847.847,0,0,1,1.2,0,.847.847,0,0,1,0,1.2l-2.676,2.676A.845.845,0,0,1,853.317-395.3Z" transform="translate(-852.47 399.671)" fill="#111e61"/>
      </g>
      <g id="Group_55983" data-name="Group 55983" transform="translate(843.549 -422.104)">
        <path id="Path_101333" data-name="Path 101333" d="M861.537-387.081a.843.843,0,0,1-.6-.248.846.846,0,0,1,0-1.2l2.676-2.676a.847.847,0,0,1,1.2,0,.847.847,0,0,1,0,1.2l-2.676,2.676A.844.844,0,0,1,861.537-387.081Z" transform="translate(-860.69 391.45)" fill="#111e61"/>
      </g>
      <g id="Group_55984" data-name="Group 55984" transform="translate(847.767 -417.886)">
        <path id="Path_101334" data-name="Path 101334" d="M869.758-378.86a.845.845,0,0,1-.6-.248.847.847,0,0,1,0-1.2l2.676-2.676a.847.847,0,0,1,1.2,0,.846.846,0,0,1,0,1.2l-2.676,2.676A.845.845,0,0,1,869.758-378.86Z" transform="translate(-868.911 383.229)" fill="#111e61"/>
      </g>
      <g id="Group_55985" data-name="Group 55985" transform="translate(874.617 -450.059)">
        <path id="Path_101335" data-name="Path 101335" d="M922.085-427.469a.844.844,0,0,1-.6-.248.846.846,0,0,1,0-1.2l16.77-16.77a.847.847,0,0,1,1.2,0,.846.846,0,0,1,0,1.2l-16.77,16.77A.844.844,0,0,1,922.085-427.469Z" transform="translate(-921.238 445.932)" fill="#111e61"/>
      </g>
      <g id="Group_55986" data-name="Group 55986" transform="translate(878.835 -445.841)">
        <path id="Path_101336" data-name="Path 101336" d="M930.306-419.249a.844.844,0,0,1-.6-.248.847.847,0,0,1,0-1.2l16.77-16.77a.846.846,0,0,1,1.2,0,.847.847,0,0,1,0,1.2L930.9-419.5A.843.843,0,0,1,930.306-419.249Z" transform="translate(-929.459 437.712)" fill="#111e61"/>
      </g>
      <g id="Group_55987" data-name="Group 55987" transform="translate(862.632 -454.175)">
        <path id="Path_101337" data-name="Path 101337" d="M898.728-420.888a.844.844,0,0,1-.6-.248.847.847,0,0,1,0-1.2l6.1-6.1c-.892-3.763.014-6.748,2.9-9.622q3.919-3.93,7.85-7.857,3.894-3.894,7.783-7.79a.847.847,0,0,1,1.2,0,.847.847,0,0,1,0,1.2q-3.889,3.9-7.785,7.792-3.928,3.928-7.851,7.858c-2.6,2.585-3.275,5.035-2.343,8.459a.846.846,0,0,1-.218.822l-6.444,6.443A.845.845,0,0,1,898.728-420.888Z" transform="translate(-897.881 453.954)" fill="#111e61"/>
      </g>
      <g id="Group_55988" data-name="Group 55988" transform="translate(868.348 -441.725)">
        <path id="Path_101338" data-name="Path 101338" d="M909.868-403.358a.842.842,0,0,1-.6-.248.847.847,0,0,1,0-1.2l6.444-6.443a.845.845,0,0,1,.82-.219c3.427.929,5.878.255,8.459-2.327l5.163-5.159q5.249-5.244,10.487-10.49a.846.846,0,0,1,1.2,0,.846.846,0,0,1,0,1.2q-5.237,5.252-10.489,10.492l-5.162,5.159c-2.913,2.912-5.813,3.791-9.62,2.886l-6.1,6.1A.842.842,0,0,1,909.868-403.358Z" transform="translate(-909.021 429.69)" fill="#111e61"/>
      </g>
    </g>
  </g>
</svg>
