<svg xmlns="http://www.w3.org/2000/svg" width="76" height="76" viewBox="0 0 76 76">
  <g id="t2-i5" transform="translate(5153 7764)">
    <rect id="Rectangle_5631" data-name="Rectangle 5631" width="76" height="76" transform="translate(-5153 -7764)" fill="none"/>
    <g id="Group_56020" data-name="Group 56020" transform="translate(-5830.825 -7182.11)">
      <path id="Path_101378" data-name="Path 101378" d="M722.423-502.387s-2.288-12.925.886-21.147l2.255-5.3s-3.6-2.413-2.6-5.347a5.293,5.293,0,0,1,3.029-3.549l4.4-.331s1.372-8.944,6.1-8.8,4.07,3.6,4.07,3.6l-.852,5.395,6.388.095,3.123,8.754.994,4.226-.994,4.339-4.069,7.477-1.751,4.164-.473,6.625Z" transform="translate(-15.522 -19.556)" fill="#ffd494"/>
      <path id="Path_101379" data-name="Path 101379" d="M698.956-580.24h35.518a3.489,3.489,0,0,1,3.48,3.481v16.726a3.489,3.489,0,0,1-3.48,3.481H698.956a3.49,3.49,0,0,1-3.481-3.481v-16.726a3.49,3.49,0,0,1,3.481-3.481Z" transform="translate(-0.921 -0.921)" fill="#f3f9ff"/>
      <path id="Path_101380" data-name="Path 101380" d="M733.553-556.745H698.035a4.214,4.214,0,0,1-4.209-4.209v-16.727a4.214,4.214,0,0,1,4.209-4.209h35.519a4.214,4.214,0,0,1,4.209,4.209v16.727A4.214,4.214,0,0,1,733.553-556.745Zm-35.519-23.687a2.755,2.755,0,0,0-2.752,2.752v16.727a2.755,2.755,0,0,0,2.752,2.752h35.519a2.755,2.755,0,0,0,2.752-2.752v-16.727a2.755,2.755,0,0,0-2.752-2.752Z" transform="translate(0)" fill="#111e61"/>
      <path id="Path_101381" data-name="Path 101381" d="M742.484-430.837v-15.324h-26v15.324" transform="translate(-12.649 -75.782)" fill="#ff9800"/>
      <path id="Path_101382" data-name="Path 101382" d="M741.562-431.029a.729.729,0,0,1-.729-.729v-14.6H716.287v14.6a.729.729,0,0,1-.729.729.729.729,0,0,1-.729-.729v-15.324a.729.729,0,0,1,.729-.729h26a.729.729,0,0,1,.728.729v15.324A.729.729,0,0,1,741.562-431.029Z" transform="translate(-11.728 -74.861)" fill="#111e61"/>
      <g id="Group_56012" data-name="Group 56012" transform="translate(694.554 -574.776)">
        <rect id="Rectangle_5620" data-name="Rectangle 5620" width="42.479" height="4.056" transform="translate(0 0)" fill="#111e61"/>
      </g>
      <g id="Group_56013" data-name="Group 56013" transform="translate(698.448 -567.74)">
        <rect id="Rectangle_5621" data-name="Rectangle 5621" width="13.409" height="1.703" transform="translate(0 0)" fill="#111e61"/>
      </g>
      <g id="Group_56014" data-name="Group 56014" transform="translate(729.146 -567.74)">
        <rect id="Rectangle_5622" data-name="Rectangle 5622" width="4.056" height="1.703" transform="translate(0 0)" fill="#111e61"/>
      </g>
      <g id="Group_56015" data-name="Group 56015" transform="translate(707.787 -518.199)">
        <rect id="Rectangle_5623" data-name="Rectangle 5623" width="1.753" height="1.703" transform="translate(0 0)" fill="#111e61"/>
      </g>
      <g id="Group_56016" data-name="Group 56016" transform="translate(712.282 -518.199)">
        <rect id="Rectangle_5624" data-name="Rectangle 5624" width="1.765" height="1.703" transform="translate(0 0)" fill="#111e61"/>
      </g>
      <g id="Group_56017" data-name="Group 56017" transform="translate(726.63 -558.203)">
        <path id="Path_101383" data-name="Path 101383" d="M768.913-491.27a.729.729,0,0,1-.725-.659c-.021-.214-.49-5.277.977-8.486.38-.832.98-1.915,1.675-3.169,1.854-3.346,4.394-7.929,4.394-10.851,0-4.032-3.794-12.715-3.832-12.8a.729.729,0,0,1,.374-.961.728.728,0,0,1,.96.374c.162.368,3.955,9.054,3.955,13.389,0,3.3-2.645,8.072-4.576,11.557-.68,1.228-1.268,2.288-1.625,3.069-1.3,2.85-.856,7.691-.851,7.74a.728.728,0,0,1-.655.795A.633.633,0,0,1,768.913-491.27Z" transform="translate(-768.101 528.259)" fill="#111e61"/>
      </g>
      <g id="Group_56018" data-name="Group 56018" transform="translate(706.633 -558.202)">
        <path id="Path_101384" data-name="Path 101384" d="M726.356-517.724a.727.727,0,0,1-.278-.056,5.589,5.589,0,0,1-3.254-5.143,5.14,5.14,0,0,1,5.136-5.336.729.729,0,0,1,.729.729.729.729,0,0,1-.729.729,3.664,3.664,0,0,0-3.678,3.878,4.14,4.14,0,0,0,2.359,3.8.731.731,0,0,1,.386.954A.728.728,0,0,1,726.356-517.724Z" transform="translate(-722.824 528.258)" fill="#111e61"/>
      </g>
      <path id="Path_101385" data-name="Path 101385" d="M741.258-538.063s1.751-7.764,5.205-9.277,4.874,2.036,4.874,2.036l-.662,7.24-1.8,1.751-6.728.757Z" transform="translate(-26.483 -19.081)" fill="#ffd494"/>
      <g id="Group_56019" data-name="Group 56019" transform="translate(705.444 -567.492)">
        <path id="Path_101386" data-name="Path 101386" d="M720.86-503.013a.729.729,0,0,1-.729-.729v-14.285c0-5.792,4.079-12.68,7.057-17.709l.068-.115a23.94,23.94,0,0,0,2.1-5.481c1.147-3.913,2.332-7.959,6.994-7.959a3.773,3.773,0,0,1,3.336,1.609c2.276,3.349-.51,10.49-.63,10.793-.151.383-.3.755-.455,1.122a14.827,14.827,0,0,0-1.522,5.859v7.161a.729.729,0,0,1-.729.729.729.729,0,0,1-.729-.729v-7.161a16.168,16.168,0,0,1,1.631-6.412c.149-.362.3-.729.448-1.105,1.024-2.586,2.141-7.434.78-9.437a2.37,2.37,0,0,0-2.131-.971c-3.4,0-4.34,2.626-5.6,6.912a25.007,25.007,0,0,1-2.241,5.815l-.067.113c-2.892,4.884-6.854,11.574-6.854,16.967v14.285A.729.729,0,0,1,720.86-503.013Z" transform="translate(-720.131 549.291)" fill="#111e61"/>
      </g>
    </g>
  </g>
</svg>
