<svg xmlns="http://www.w3.org/2000/svg" width="76" height="76" viewBox="0 0 76 76">
  <g id="t2-i11" transform="translate(4911 7844)">
    <rect id="Rectangle_5633" data-name="Rectangle 5633" width="76" height="76" transform="translate(-4911 -7844)" fill="none"/>
    <g id="Group_55965" data-name="Group 55965" transform="translate(-5530.235 -7738.341)">
      <path id="Path_101288" data-name="Path 101288" d="M665.047-90.516,637.3-76.23v53.941h55.479v-52.99Z" transform="translate(-6.846 -7.37)" fill="#f3f9ff"/>
      <g id="Group_55961" data-name="Group 55961" transform="translate(623.235 -31.352)">
        <path id="Path_101289" data-name="Path 101289" d="M691.55,40.8H624.082a.847.847,0,1,1,0-1.693H691.55a.847.847,0,1,1,0,1.693Z" transform="translate(-623.235 -39.107)" fill="#111e61"/>
      </g>
      <rect id="Rectangle_5582" data-name="Rectangle 5582" width="24.633" height="30.22" transform="translate(645.878 -60.726)" fill="#ffd494"/>
      <path id="Path_101290" data-name="Path 101290" d="M691.178,12.145H666.545a.847.847,0,0,1-.847-.846v-30.22a.847.847,0,0,1,.847-.847h24.633a.847.847,0,0,1,.847.847V11.3A.847.847,0,0,1,691.178,12.145Zm-23.786-1.693h22.939V-18.075H667.392Z" transform="translate(-20.667 -41.804)" fill="#111e61"/>
      <rect id="Rectangle_5583" data-name="Rectangle 5583" width="30.424" height="5.398" transform="translate(642.982 -66.124)" fill="#ffb74d"/>
      <path id="Path_101291" data-name="Path 101291" d="M691.328-23.193H660.9a.847.847,0,0,1-.847-.847v-5.4a.847.847,0,0,1,.847-.846h30.424a.846.846,0,0,1,.847.846v5.4A.847.847,0,0,1,691.328-23.193Zm-29.577-1.694h28.73v-3.7h-28.73Z" transform="translate(-17.922 -36.685)" fill="#111e61"/>
      <g id="Group_55962" data-name="Group 55962" transform="translate(663.774 -46.772)">
        <rect id="Rectangle_5584" data-name="Rectangle 5584" width="2.794" height="2.604" transform="translate(0 0)" fill="#111e61"/>
      </g>
      <path id="Path_101292" data-name="Path 101292" d="M684.735-58.251a6.992,6.992,0,0,0,6.969-6.984,6.979,6.979,0,0,0-6.969-6.969,6.983,6.983,0,0,0-6.984,6.969,7,7,0,0,0,6.984,6.984Z" transform="translate(-26.534 -16.283)" fill="#ffd494"/>
      <path id="Path_101293" data-name="Path 101293" d="M683.932-58.207a7.839,7.839,0,0,1-7.83-7.831,7.832,7.832,0,0,1,7.83-7.816,7.825,7.825,0,0,1,7.816,7.816A7.832,7.832,0,0,1,683.932-58.207Zm0-13.953a6.137,6.137,0,0,0-6.137,6.122,6.144,6.144,0,0,0,6.137,6.137,6.137,6.137,0,0,0,6.123-6.137A6.13,6.13,0,0,0,683.932-72.16Z" transform="translate(-25.731 -15.48)" fill="#111e61"/>
      <path id="Path_101294" data-name="Path 101294" d="M693.065-86.884l-33.246-17.125L626.557-86.884v6.926l33.261-17.125,33.246,17.125Z" transform="translate(-1.617 -0.803)" fill="#ff9800"/>
      <path id="Path_101295" data-name="Path 101295" d="M625.755-79.914a.849.849,0,0,1-.441-.124.849.849,0,0,1-.406-.723v-6.926a.847.847,0,0,1,.459-.753l33.261-17.125a.844.844,0,0,1,.776,0L692.65-88.44a.847.847,0,0,1,.459.753v6.926a.848.848,0,0,1-.406.723.845.845,0,0,1-.828.03L659.015-96.934,626.142-80.008A.85.85,0,0,1,625.755-79.914Zm.847-7.256v5.02l32.026-16.489a.847.847,0,0,1,.776,0L691.415-82.15v-5.02l-32.4-16.69Z" transform="translate(-0.814 0)" fill="#111e61"/>
      <path id="Path_101296" data-name="Path 101296" d="M648.328-103.725h6.111v8.075l-6.111,3.157Z" transform="translate(-12.213 -0.941)" fill="#ffd494"/>
      <path id="Path_101297" data-name="Path 101297" d="M647.525-92.449a.845.845,0,0,1-.44-.123.848.848,0,0,1-.406-.724v-11.232a.846.846,0,0,1,.847-.847h6.111a.847.847,0,0,1,.847.847v8.075a.846.846,0,0,1-.458.752l-6.111,3.157A.846.846,0,0,1,647.525-92.449Zm.847-11.233v8.995l4.417-2.282v-6.713Z" transform="translate(-11.41 -0.138)" fill="#111e61"/>
      <g id="Group_55963" data-name="Group 55963" transform="translate(629.608 -84.445)">
        <path id="Path_101298" data-name="Path 101298" d="M636.5-9.543a.847.847,0,0,1-.847-.846V-63.483a.847.847,0,0,1,.847-.846.847.847,0,0,1,.847.846V-10.39A.847.847,0,0,1,636.5-9.543Z" transform="translate(-635.651 64.329)" fill="#111e61"/>
      </g>
      <g id="Group_55964" data-name="Group 55964" transform="translate(685.087 -84.445)">
        <path id="Path_101299" data-name="Path 101299" d="M744.583-9.543a.847.847,0,0,1-.847-.846V-63.483a.847.847,0,0,1,.847-.846.847.847,0,0,1,.847.846V-10.39A.847.847,0,0,1,744.583-9.543Z" transform="translate(-743.736 64.329)" fill="#111e61"/>
      </g>
    </g>
  </g>
</svg>
