<svg xmlns="http://www.w3.org/2000/svg" width="76" height="76" viewBox="0 0 76 76">
  <g id="t2-i10" transform="translate(5206 7862)">
    <rect id="Rectangle_5629" data-name="Rectangle 5629" width="76" height="76" transform="translate(-5206 -7862)" fill="none"/>
    <g id="Group_55977" data-name="Group 55977" transform="translate(-5898.997 -7616.592)">
      <path id="Path_101308" data-name="Path 101308" d="M724.608-227.73a31.039,31.039,0,0,1,22.845-10.029,31.017,31.017,0,0,1,31.012,31.012v.041l6.2-.041-5.11,6.455-5.015,6.5-5-6.5-5.11-6.455,6.251.041v-.041a23.223,23.223,0,0,0-23.225-23.225,23.25,23.25,0,0,0-17.109,7.515" transform="translate(-16.456 -0.858)" fill="#ffee58"/>
      <path id="Path_101309" data-name="Path 101309" d="M754.686-166.138a30.98,30.98,0,0,1-22.831,10.029,31,31,0,0,1-31.012-31.012v-.027l-6.2.027,5.11-6.441,5-6.5,5,6.5,5.11,6.441-6.252-.027v.027a23.246,23.246,0,0,0,23.239,23.238,23.221,23.221,0,0,0,17.1-7.515" transform="translate(-0.859 -20.485)" fill="#ffee58"/>
      <g id="Group_55975" data-name="Group 55975" transform="translate(707.361 -239.408)">
        <path id="Path_101310" data-name="Path 101310" d="M773.678-193.863h0a.79.79,0,0,1-.626-.309l-5-6.5-5.1-6.447a.791.791,0,0,1-.091-.838.825.825,0,0,1,.716-.444l5.441.035a22.468,22.468,0,0,0-22.42-21.678,22.528,22.528,0,0,0-16.527,7.26.792.792,0,0,1-1.118.046.791.791,0,0,1-.046-1.118,24.112,24.112,0,0,1,17.692-7.77,24.043,24.043,0,0,1,24.016,24.016.839.839,0,0,1-.234.582.815.815,0,0,1-.558.25h0l-4.6-.03,4.087,5.162,4.381,5.691,4.388-5.684,4.092-5.17-4.548.03a.73.73,0,0,1-.562-.23.79.79,0,0,1-.234-.561,30.264,30.264,0,0,0-30.221-30.262,30.314,30.314,0,0,0-22.262,9.774.791.791,0,0,1-1.117.047.792.792,0,0,1-.047-1.118,31.9,31.9,0,0,1,23.427-10.285,31.84,31.84,0,0,1,31.794,31.047l5.41-.035a.818.818,0,0,1,.716.444.791.791,0,0,1-.091.838l-5.11,6.455-5.009,6.488A.79.79,0,0,1,773.678-193.863Z" transform="translate(-722.958 239.408)" fill="#111e61"/>
      </g>
      <g id="Group_55976" data-name="Group 55976" transform="translate(692.996 -221.334)">
        <path id="Path_101311" data-name="Path 101311" d="M731-156.177A31.841,31.841,0,0,1,699.2-187.212l-5.411.023h0a.79.79,0,0,1-.711-.445.789.789,0,0,1,.092-.837l5.11-6.441,4.994-6.487a.79.79,0,0,1,.627-.309h0a.792.792,0,0,1,.627.309l5,6.5,5.1,6.432a.789.789,0,0,1,.092.837.779.779,0,0,1-.715.445l-5.443-.023A22.479,22.479,0,0,0,731-165.532a22.467,22.467,0,0,0,16.513-7.259.792.792,0,0,1,1.118-.048.792.792,0,0,1,.048,1.118A24.056,24.056,0,0,1,731-163.949a24.057,24.057,0,0,1-24.029-24.03.823.823,0,0,1,.232-.574.807.807,0,0,1,.559-.244h0l4.6.02-4.087-5.152L703.9-199.62l-4.374,5.682-4.094,5.161,4.551-.02a.777.777,0,0,1,.561.231.79.79,0,0,1,.233.56A30.261,30.261,0,0,0,731-157.758a30.26,30.26,0,0,0,22.248-9.773.791.791,0,0,1,1.118-.048.791.791,0,0,1,.048,1.118A31.844,31.844,0,0,1,731-156.177Z" transform="translate(-692.996 201.708)" fill="#111e61"/>
      </g>
      <path id="Path_101312" data-name="Path 101312" d="M756.907-173.934H745.614V-175.8l5.531-7.271a17.974,17.974,0,0,0,1.875-3.125,6.112,6.112,0,0,0,.53-2.406,4.59,4.59,0,0,0-.679-2.609,2.093,2.093,0,0,0-1.835-1.006,2.488,2.488,0,0,0-2.215,1.115,5.461,5.461,0,0,0-.747,3.03h-2.69l-.027-.068a6.323,6.323,0,0,1,1.481-4.4,5.225,5.225,0,0,1,4.2-1.794,5.036,5.036,0,0,1,3.887,1.549,5.884,5.884,0,0,1,1.427,4.118,7.276,7.276,0,0,1-.883,3.4,23.774,23.774,0,0,1-2.541,3.751l-3.792,5.463h7.774Zm12.081-6.876h2.147v2.12h-2.147v4.756H766.2v-4.756h-7.312l-.081-1.563,7.311-13.794h2.868Zm-7.42,0H766.2v-9.173l-.082-.013-.285.571Z" transform="translate(-27.256 -23.466)" fill="#111e61"/>
    </g>
  </g>
</svg>
