<svg xmlns="http://www.w3.org/2000/svg" width="76" height="76" viewBox="0 0 76 76">
  <g id="t2-i7" transform="translate(5282 7957)">
    <rect id="Rectangle_5625" data-name="Rectangle 5625" width="76" height="76" transform="translate(-5282 -7957)" fill="none"/>
    <g id="Group_55960" data-name="Group 55960" transform="translate(-5350.726 -7698.996)">
      <path id="Path_101279" data-name="Path 101279" d="M88.638-218.823h37.821a4.308,4.308,0,0,1,4.249,4.332v48.482a4.308,4.308,0,0,1-4.249,4.332H88.638a4.311,4.311,0,0,1-4.262-4.332v-48.482a4.311,4.311,0,0,1,4.262-4.332Z" transform="translate(-0.888 -21.089)" fill="#ff9800"/>
      <path id="Path_101280" data-name="Path 101280" d="M126.263-161.8H87.82a5.1,5.1,0,0,1-5.094-5.094v-48.482a5.1,5.1,0,0,1,5.094-5.094h38.442a5.094,5.094,0,0,1,5.082,5.094V-166.9A5.094,5.094,0,0,1,126.263-161.8ZM87.82-218.949a3.575,3.575,0,0,0-3.571,3.571V-166.9a3.575,3.575,0,0,0,3.571,3.571h38.442a3.569,3.569,0,0,0,3.558-3.571v-48.482a3.568,3.568,0,0,0-3.558-3.571Z" transform="translate(0 -20.201)" fill="#111e61"/>
      <path id="Path_101281" data-name="Path 101281" d="M84.376-203.063a7.648,7.648,0,0,1,7.788,7.448v28.22a7.648,7.648,0,0,1-7.788,7.448Z" transform="translate(-0.888 -29.572)" fill="#ffee58"/>
      <path id="Path_101282" data-name="Path 101282" d="M83.488-160.074h-.762v-44.638h.762a8.394,8.394,0,0,1,8.55,8.209v28.22A8.394,8.394,0,0,1,83.488-160.074Zm.762-43.076v41.513a6.827,6.827,0,0,0,6.264-6.646V-196.5A6.827,6.827,0,0,0,84.25-203.149Z" transform="translate(0 -28.684)" fill="#111e61"/>
      <path id="Path_101283" data-name="Path 101283" d="M177.288-203.063a7.648,7.648,0,0,0-7.788,7.448v28.22a7.648,7.648,0,0,0,7.788,7.448Z" transform="translate(-46.706 -29.572)" fill="#ffee58"/>
      <path id="Path_101284" data-name="Path 101284" d="M177.163-160.074H176.4a8.394,8.394,0,0,1-8.55-8.209V-196.5a8.394,8.394,0,0,1,8.55-8.209h.762Zm-1.524-43.076a6.827,6.827,0,0,0-6.264,6.646v28.22a6.827,6.827,0,0,0,6.264,6.646Z" transform="translate(-45.818 -28.684)" fill="#111e61"/>
      <rect id="Rectangle_5577" data-name="Rectangle 5577" width="9.869" height="4.895" transform="translate(102.1 -233.263)" fill="#fff"/>
      <path id="Path_101285" data-name="Path 101285" d="M134.428-199.654H123.035v-6.419h11.393Zm-9.869-1.524H132.9v-3.371h-8.345Z" transform="translate(-21.696 -27.952)" fill="#111e61"/>
      <rect id="Rectangle_5578" data-name="Rectangle 5578" width="2.552" height="2.552" transform="translate(105.765 -216.378)" fill="#111e61"/>
      <rect id="Rectangle_5579" data-name="Rectangle 5579" width="2.552" height="2.552" transform="translate(105.765 -211.339)" fill="#111e61"/>
      <rect id="Rectangle_5580" data-name="Rectangle 5580" width="2.552" height="2.552" transform="translate(105.765 -206.287)" fill="#111e61"/>
      <g id="Group_55959" data-name="Group 55959" transform="translate(97.438 -258.004)">
        <path id="Path_101286" data-name="Path 101286" d="M133.782-239.15H114.588V-258h19.194Zm-17.67-1.524h16.146V-256.48H116.111Z" transform="translate(-114.588 258.004)" fill="#111e61"/>
      </g>
      <rect id="Rectangle_5581" data-name="Rectangle 5581" width="17.67" height="5.026" transform="translate(98.2 -257.242)" fill="#ffc571"/>
      <path id="Path_101287" data-name="Path 101287" d="M133.782-251.454H114.588V-258h19.194Zm-17.67-1.524h16.146v-3.5H116.111Z" transform="translate(-17.15)" fill="#111e61"/>
    </g>
  </g>
</svg>
