<svg xmlns="http://www.w3.org/2000/svg" width="76" height="76" viewBox="0 0 76 76">
  <g id="t2-i4" transform="translate(5306 7863)">
    <rect id="Rectangle_5626" data-name="Rectangle 5626" width="76" height="76" transform="translate(-5306 -7863)" fill="none"/>
    <g id="Group_55978" data-name="Group 55978" transform="translate(-5538.437 -7622.768)">
      <path id="Path_101313" data-name="Path 101313" d="M302.575-217.463h4.415a2.7,2.7,0,0,1,2.7,2.7v43.927a2.7,2.7,0,0,1-2.7,2.708h-67.2a2.7,2.7,0,0,1-2.7-2.708v-43.927a2.7,2.7,0,0,1,2.7-2.7h4.291" transform="translate(-2.624 -6.634)" fill="#f3f9ff"/>
      <path id="Path_101314" data-name="Path 101314" d="M306.06-168.341h-67.2a3.426,3.426,0,0,1-3.416-3.428V-215.7a3.42,3.42,0,0,1,3.416-3.416h4.291a.72.72,0,0,1,.72.72.72.72,0,0,1-.72.72h-4.291a1.978,1.978,0,0,0-1.976,1.976v43.927a1.984,1.984,0,0,0,1.976,1.989h67.2a1.984,1.984,0,0,0,1.976-1.989V-215.7a1.978,1.978,0,0,0-1.976-1.976h-4.415a.72.72,0,0,1-.72-.72.72.72,0,0,1,.72-.72h4.415a3.42,3.42,0,0,1,3.416,3.416v43.927A3.426,3.426,0,0,1,306.06-168.341Z" transform="translate(-1.694 -5.705)" fill="#111e61"/>
      <path id="Path_101315" data-name="Path 101315" d="M260.321-139.311l1.15,3.537,3.722-.012-3.018,2.189,1.15,3.537-3.005-2.2-3.005,2.2,1.162-3.537-3.018-2.189,3.722.012Z" transform="translate(-12.979 -50.69)" fill="#ff9800"/>
      <path id="Path_101316" data-name="Path 101316" d="M287.137-139.311l1.15,3.537,3.722-.012-3.018,2.189,1.15,3.537-3.005-2.2-3.005,2.2,1.162-3.537-3.018-2.189,3.722.012Z" transform="translate(-28.096 -50.69)" fill="#ff9800"/>
      <path id="Path_101317" data-name="Path 101317" d="M313.952-139.311l1.15,3.537,3.71-.012-3.005,2.189,1.15,3.537-3.005-2.2-3.005,2.2,1.162-3.537-3.018-2.189,3.722.012Z" transform="translate(-43.212 -50.69)" fill="#ff9800"/>
      <path id="Path_101318" data-name="Path 101318" d="M340.768-139.311l1.15,3.537,3.71-.012-3.005,2.189,1.15,3.537-3.005-2.2-3.005,2.2,1.163-3.537-3.018-2.189,3.722.012Z" transform="translate(-58.329 -50.69)" fill="#ff9800"/>
      <path id="Path_101319" data-name="Path 101319" d="M367.584-139.311l1.15,3.537,3.71-.012-3.005,2.189,1.15,3.537-3.005-2.2-3.005,2.2,1.162-3.537-3.018-2.189,3.722.012Z" transform="translate(-73.445 -50.69)" fill="#ff9800"/>
      <path id="Path_101320" data-name="Path 101320" d="M260.877-174.155H258.5v-8.063h-6.579v8.063h-2.387v-18.217h2.387v8.224H258.5v-8.224h2.375Zm14.259-6.592a7.429,7.429,0,0,1-1.583,5.046,5.345,5.345,0,0,1-4.229,1.806,5.193,5.193,0,0,1-4.156-1.806,7.548,7.548,0,0,1-1.546-5.046v-5.008a7.6,7.6,0,0,1,1.546-5.046,5.171,5.171,0,0,1,4.156-1.83,5.279,5.279,0,0,1,4.217,1.83,7.415,7.415,0,0,1,1.6,5.046Zm-2.386-5.046a6.155,6.155,0,0,0-.89-3.612,2.973,2.973,0,0,0-2.535-1.224,2.832,2.832,0,0,0-2.474,1.224,6.354,6.354,0,0,0-.866,3.612v5.046a6.36,6.36,0,0,0,.866,3.636,2.844,2.844,0,0,0,2.474,1.236,2.943,2.943,0,0,0,2.535-1.224,6.229,6.229,0,0,0,.89-3.648Zm14.741-4.65h-4.415v16.288h-2.387v-16.288H276.31v-1.929h11.18Zm10.808,7.8H291.93v6.567h7.383v1.917h-9.77v-18.217h9.7v1.929H291.93v5.887H298.3Zm5.627,6.567h6.69v1.917h-9.089v-18.217h2.4Z" transform="translate(-9.639 -20.633)" fill="#111e61"/>
      <line id="Line_135" data-name="Line 135" x2="74.56" transform="translate(233.157 -228.512)" fill="#fff"/>
      <path id="Path_101321" data-name="Path 101321" d="M307.717-227.792h-74.56a.72.72,0,0,1-.72-.72.72.72,0,0,1,.72-.72h74.56a.72.72,0,0,1,.72.72A.72.72,0,0,1,307.717-227.792Z" fill="#111e61"/>
      <rect id="Rectangle_5589" data-name="Rectangle 5589" width="4.996" height="9.164" transform="translate(245.709 -228.512)" fill="#ffee58"/>
      <path id="Path_101322" data-name="Path 101322" d="M266.925-218.629h-5a.72.72,0,0,1-.72-.72v-9.164a.72.72,0,0,1,.72-.72h5a.72.72,0,0,1,.72.72v9.164A.72.72,0,0,1,266.925-218.629Zm-4.276-1.439h3.557v-7.724h-3.557Z" transform="translate(-16.219)" fill="#111e61"/>
      <rect id="Rectangle_5590" data-name="Rectangle 5590" width="4.996" height="9.164" transform="translate(290.416 -228.512)" fill="#ffee58"/>
      <path id="Path_101323" data-name="Path 101323" d="M369.4-218.629h-5a.72.72,0,0,1-.72-.72v-9.164a.72.72,0,0,1,.72-.72h5a.72.72,0,0,1,.719.72v9.164A.719.719,0,0,1,369.4-218.629Zm-4.277-1.439h3.557v-7.724h-3.557Z" transform="translate(-73.985)" fill="#111e61"/>
      <line id="Line_136" data-name="Line 136" x2="31.696" transform="translate(254.589 -224.097)" fill="#fff"/>
      <path id="Path_101324" data-name="Path 101324" d="M313.978-217.672h-31.7a.72.72,0,0,1-.72-.72.72.72,0,0,1,.72-.72h31.7a.72.72,0,0,1,.72.72A.72.72,0,0,1,313.978-217.672Z" transform="translate(-27.693 -5.705)" fill="#111e61"/>
    </g>
  </g>
</svg>
