<svg xmlns="http://www.w3.org/2000/svg" width="76" height="76" viewBox="0 0 76 76">
  <g id="t2-i8" transform="translate(4949 7755)">
    <rect id="Rectangle_5634" data-name="Rectangle 5634" width="76" height="76" transform="translate(-4949 -7755)" fill="none"/>
    <g id="Group_55974" data-name="Group 55974" transform="translate(-5808.221 -7485.175)">
      <g id="Group_55966" data-name="Group 55966" transform="translate(870.221 -269.825)">
        <path id="Path_101300" data-name="Path 101300" d="M876.254-268.174h42.482a4.4,4.4,0,0,1,4.383,4.383v65.75a4.4,4.4,0,0,1-4.383,4.383H876.254a4.4,4.4,0,0,1-4.383-4.383v-65.75a4.4,4.4,0,0,1,4.383-4.383Z" transform="translate(-871.129 268.916)" fill="#f3f9ff"/>
        <path id="Path_101301" data-name="Path 101301" d="M917.828-193.825H875.346a5.131,5.131,0,0,1-5.125-5.125V-264.7a5.131,5.131,0,0,1,5.125-5.125h42.482a5.131,5.131,0,0,1,5.125,5.125v65.749A5.131,5.131,0,0,1,917.828-193.825Zm-42.482-74.517A3.646,3.646,0,0,0,871.7-264.7v65.749a3.646,3.646,0,0,0,3.642,3.642h42.482a3.646,3.646,0,0,0,3.642-3.642V-264.7a3.646,3.646,0,0,0-3.642-3.642Z" transform="translate(-870.221 269.825)" fill="#111e61"/>
      </g>
      <g id="Group_55967" data-name="Group 55967" transform="translate(898.942 -240.199)">
        <path id="Path_101302" data-name="Path 101302" d="M935.764-202.269l6.639.293-.051,7,2.447,2.8v1.4l-2.141,3.491,2.37,2.778.013,1.567-2.4,2.65,2.115,1.937v2.931l-5.747,5.772-3.249-3.542Z" transform="translate(-935.022 203.01)" fill="#ffee58"/>
        <path id="Path_101303" data-name="Path 101303" d="M938.1-169.815h-.015a.74.74,0,0,1-.531-.24l-3.249-3.542a.739.739,0,0,1-.2-.5v-29.078a.742.742,0,0,1,.229-.536.741.741,0,0,1,.545-.2l6.639.293a.742.742,0,0,1,.709.746l-.049,6.714,2.261,2.591a.741.741,0,0,1,.183.488v1.4a.741.741,0,0,1-.109.387l-1.859,3.032,2.021,2.368a.744.744,0,0,1,.177.476l.013,1.567a.743.743,0,0,1-.191.5l-1.9,2.1,1.572,1.439a.741.741,0,0,1,.241.547v2.931a.742.742,0,0,1-.216.523l-5.747,5.772A.74.74,0,0,1,938.1-169.815Zm-2.508-4.572,2.53,2.757,4.983-5v-2.3l-1.874-1.717a.741.741,0,0,1-.049-1.044l2.2-2.436-.008-1.008-2.195-2.573a.742.742,0,0,1-.068-.869l2.031-3.313v-.914l-2.263-2.594a.738.738,0,0,1-.183-.493l.045-6.281-5.15-.227Z" transform="translate(-934.114 203.918)" fill="#111e61"/>
      </g>
      <g id="Group_55968" data-name="Group 55968" transform="translate(870.221 -269.825)">
        <path id="Path_101304" data-name="Path 101304" d="M876.254-268.174h8.766v74.516h-8.766a4.4,4.4,0,0,1-4.383-4.383v-65.75a4.4,4.4,0,0,1,4.383-4.383Z" transform="translate(-871.129 268.916)" fill="#ff9800"/>
        <path id="Path_101305" data-name="Path 101305" d="M884.112-193.825h-8.766a5.131,5.131,0,0,1-5.125-5.125V-264.7a5.131,5.131,0,0,1,5.125-5.125h8.766a.742.742,0,0,1,.742.742v74.517A.742.742,0,0,1,884.112-193.825Zm-8.766-74.517A3.646,3.646,0,0,0,871.7-264.7v65.749a3.646,3.646,0,0,0,3.642,3.642h8.025v-73.033Z" transform="translate(-870.221 269.825)" fill="#111e61"/>
      </g>
      <g id="Group_55969" data-name="Group 55969" transform="translate(876.276 -258.545)">
        <rect id="Rectangle_5585" data-name="Rectangle 5585" width="2.574" height="2.574" transform="translate(0 0)" fill="#111e61"/>
      </g>
      <g id="Group_55970" data-name="Group 55970" transform="translate(876.276 -207.78)">
        <rect id="Rectangle_5586" data-name="Rectangle 5586" width="2.574" height="2.574" transform="translate(0 0)" fill="#111e61"/>
      </g>
      <g id="Group_55971" data-name="Group 55971" transform="translate(876.276 -251.257)">
        <rect id="Rectangle_5587" data-name="Rectangle 5587" width="2.574" height="38.545" fill="#111e61"/>
      </g>
      <g id="Group_55972" data-name="Group 55972" transform="translate(892.392 -257.898)">
        <path id="Path_101306" data-name="Path 101306" d="M930.84-222.338a9.666,9.666,0,0,0,9.658-9.646,9.669,9.669,0,0,0-9.658-9.659,9.666,9.666,0,0,0-9.646,9.659,9.663,9.663,0,0,0,9.646,9.646Z" transform="translate(-920.452 242.384)" fill="#ffee58"/>
        <path id="Path_101307" data-name="Path 101307" d="M929.931-222.5a10.4,10.4,0,0,1-10.387-10.388,10.405,10.405,0,0,1,10.387-10.4,10.412,10.412,0,0,1,10.4,10.4A10.406,10.406,0,0,1,929.931-222.5Zm0-19.3a8.92,8.92,0,0,0-8.9,8.917,8.914,8.914,0,0,0,8.9,8.9,8.921,8.921,0,0,0,8.917-8.9A8.927,8.927,0,0,0,929.931-241.809Z" transform="translate(-919.544 243.292)" fill="#111e61"/>
      </g>
      <g id="Group_55973" data-name="Group 55973" transform="translate(900.601 -252.365)">
        <rect id="Rectangle_5588" data-name="Rectangle 5588" width="4.371" height="2.561" transform="translate(0 0)" fill="#111e61"/>
      </g>
    </g>
  </g>
</svg>
