<svg xmlns="http://www.w3.org/2000/svg" width="76" height="76" viewBox="0 0 76 76">
  <g id="t2-i2" transform="translate(5100 8031)">
    <rect id="Rectangle_5628" data-name="Rectangle 5628" width="76" height="76" transform="translate(-5100 -8031)" fill="none"/>
    <g id="Group_56021" data-name="Group 56021" transform="translate(-5114.284 -7595.835)">
      <path id="Path_101387" data-name="Path 101387" d="M25.337-401.72H80.125a5.409,5.409,0,0,1,5.4,5.384v46.9a5.409,5.409,0,0,1-5.4,5.384H25.337a5.409,5.409,0,0,1-5.4-5.384v-46.9a5.409,5.409,0,0,1,5.4-5.384Z" transform="translate(-0.788 -15.976)" fill="#f3f9ff"/>
      <path id="Path_101388" data-name="Path 101388" d="M79.337-343.977H24.549a6.262,6.262,0,0,1-6.265-6.246v-46.9a6.262,6.262,0,0,1,6.265-6.246H79.337a6.262,6.262,0,0,1,6.265,6.246v46.9A6.262,6.262,0,0,1,79.337-343.977ZM24.549-401.646a4.537,4.537,0,0,0-4.541,4.522v46.9a4.537,4.537,0,0,0,4.541,4.522H79.337a4.537,4.537,0,0,0,4.541-4.522v-46.9a4.537,4.537,0,0,0-4.541-4.522Z" transform="translate(0 -15.188)" fill="#111e61"/>
      <path id="Path_101389" data-name="Path 101389" d="M31.327-430.456l8.155,8.441a1.8,1.8,0,0,0,2.586,0l8.173-8.442a1.8,1.8,0,0,0,.506-1.251v-.005a1.8,1.8,0,0,0-3.09-1.253L42.067-427.2a1.8,1.8,0,0,1-2.583,0l-5.57-5.754a1.8,1.8,0,0,0-3.091,1.251h0A1.8,1.8,0,0,0,31.327-430.456Z" transform="translate(-5.989 -0.788)" fill="#ffee58"/>
      <path id="Path_101390" data-name="Path 101390" d="M39.988-421.391h0a2.638,2.638,0,0,1-1.913-.812l-8.155-8.441a2.647,2.647,0,0,1-.747-1.849,2.648,2.648,0,0,1,1.663-2.466,2.646,2.646,0,0,1,2.91.616l5.57,5.754a.928.928,0,0,0,.673.285h0a.928.928,0,0,0,.672-.285l5.591-5.763a2.649,2.649,0,0,1,2.909-.613,2.649,2.649,0,0,1,1.661,2.466,2.649,2.649,0,0,1-.749,1.856L41.9-422.2A2.638,2.638,0,0,1,39.988-421.391ZM31.85-433.432a1,1,0,0,0-.369.072.917.917,0,0,0-.586.868.933.933,0,0,0,.263.651h0l8.155,8.441a.931.931,0,0,0,.674.286h0a.929.929,0,0,0,.673-.285l8.173-8.442a.932.932,0,0,0,.264-.652.921.921,0,0,0-.585-.874.918.918,0,0,0-1.024.216L41.9-427.388a2.637,2.637,0,0,1-1.909.808h0a2.639,2.639,0,0,1-1.911-.81l-5.57-5.754A.889.889,0,0,0,31.85-433.432Z" transform="translate(-5.201 -0.002)" fill="#111e61"/>
      <path id="Path_101391" data-name="Path 101391" d="M109.55-424.525l-8.155-8.441a1.8,1.8,0,0,0-2.586,0l-8.173,8.442a1.8,1.8,0,0,0-.507,1.251v.005a1.8,1.8,0,0,0,3.09,1.253l5.591-5.763a1.8,1.8,0,0,1,2.584,0l5.57,5.754a1.8,1.8,0,0,0,3.092-1.251h0A1.8,1.8,0,0,0,109.55-424.525Z" transform="translate(-34.32 -0.788)" fill="#ffee58"/>
      <path id="Path_101392" data-name="Path 101392" d="M91.144-421.394a2.662,2.662,0,0,1-1-.2,2.649,2.649,0,0,1-1.661-2.465,2.65,2.65,0,0,1,.748-1.856l8.173-8.442a2.639,2.639,0,0,1,1.912-.81h0a2.637,2.637,0,0,1,1.912.812l8.155,8.441h0a2.648,2.648,0,0,1,.746,1.849,2.65,2.65,0,0,1-1.662,2.466,2.649,2.649,0,0,1-2.91-.616l-5.57-5.754a.929.929,0,0,0-.673-.285h0a.93.93,0,0,0-.673.285L93.05-422.2A2.652,2.652,0,0,1,91.144-421.394Zm8.169-12.047a.929.929,0,0,0-.673.286l-8.173,8.442a.934.934,0,0,0-.264.652.921.921,0,0,0,.586.874.918.918,0,0,0,1.024-.216l5.591-5.764a2.638,2.638,0,0,1,1.91-.808h0a2.64,2.64,0,0,1,1.91.81l5.57,5.755a.92.92,0,0,0,1.025.217.918.918,0,0,0,.586-.869.933.933,0,0,0-.263-.651l-8.155-8.441a.927.927,0,0,0-.673-.286Z" transform="translate(-33.532)" fill="#111e61"/>
      <path id="Path_101393" data-name="Path 101393" d="M50.443-373.191a6.4,6.4,0,0,0-6.408-6.389,6.391,6.391,0,0,0-6.388,6.389,6.392,6.392,0,0,0,6.388,6.389,6.4,6.4,0,0,0,6.408-6.389Z" transform="translate(-9.249 -26.552)" fill="#ff9800"/>
      <path id="Path_101394" data-name="Path 101394" d="M43.248-366.728A7.259,7.259,0,0,1,36-373.979a7.259,7.259,0,0,1,7.251-7.25,7.268,7.268,0,0,1,7.27,7.25A7.269,7.269,0,0,1,43.248-366.728Zm0-12.778a5.533,5.533,0,0,0-5.527,5.527,5.533,5.533,0,0,0,5.527,5.527,5.543,5.543,0,0,0,5.546-5.527A5.543,5.543,0,0,0,43.248-379.506Z" transform="translate(-8.461 -25.765)" fill="#111e61"/>
      <path id="Path_101395" data-name="Path 101395" d="M109.751-373.191a6.4,6.4,0,0,0-6.408-6.389,6.392,6.392,0,0,0-6.389,6.389,6.392,6.392,0,0,0,6.389,6.389,6.4,6.4,0,0,0,6.408-6.389Z" transform="translate(-37.58 -26.552)" fill="#ff9800"/>
      <path id="Path_101396" data-name="Path 101396" d="M102.555-366.728a7.259,7.259,0,0,1-7.251-7.251,7.259,7.259,0,0,1,7.251-7.25,7.268,7.268,0,0,1,7.27,7.25A7.269,7.269,0,0,1,102.555-366.728Zm0-12.778a5.533,5.533,0,0,0-5.527,5.527,5.533,5.533,0,0,0,5.527,5.527,5.543,5.543,0,0,0,5.546-5.527A5.543,5.543,0,0,0,102.555-379.506Z" transform="translate(-36.792 -25.765)" fill="#111e61"/>
      <path id="Path_101397" data-name="Path 101397" d="M37.9-330.071H51.058v-11.716a6.594,6.594,0,0,0-6.579-6.578h0a6.594,6.594,0,0,0-6.578,6.578Z" transform="translate(-9.371 -41.463)" fill="#ff9800"/>
      <path id="Path_101398" data-name="Path 101398" d="M50.269-330H37.113a.862.862,0,0,1-.862-.862v-11.716a7.448,7.448,0,0,1,7.44-7.44,7.448,7.448,0,0,1,7.44,7.44v11.716A.862.862,0,0,1,50.269-330Zm-12.3-1.724H49.408v-10.854a5.723,5.723,0,0,0-5.717-5.716,5.723,5.723,0,0,0-5.717,5.716Z" transform="translate(-8.583 -40.675)" fill="#111e61"/>
      <path id="Path_101399" data-name="Path 101399" d="M91.292-329.967h20.266l-2.768-10.426c-.986-3.754-3.052-7.109-6.579-7.754v8.682a1.606,1.606,0,0,1-1.592,1.611h0a1.61,1.61,0,0,1-1.612-1.611v-8.55c-3.241.891-5.346,4.019-5.952,7.621Z" transform="translate(-34.875 -41.567)" fill="#ff9800"/>
      <path id="Path_101400" data-name="Path 101400" d="M110.769-329.894H90.5a.861.861,0,0,1-.658-.306.861.861,0,0,1-.192-.7l1.763-10.426c.708-4.2,3.227-7.389,6.574-8.308a.862.862,0,0,1,.751.145.863.863,0,0,1,.34.685v8.55a.751.751,0,0,0,.75.75.741.741,0,0,0,.731-.75v-8.682a.862.862,0,0,1,.31-.662.859.859,0,0,1,.707-.186c3.424.626,6,3.6,7.257,8.383l2.767,10.424a.861.861,0,0,1-.149.746A.863.863,0,0,1,110.769-329.894Zm-19.246-1.724h18.125l-2.48-9.344c-.563-2.143-1.917-5.676-4.884-6.839v7.546a2.466,2.466,0,0,1-2.454,2.473,2.476,2.476,0,0,1-2.473-2.473v-7.3a8.671,8.671,0,0,0-4.241,6.513Z" transform="translate(-34.087 -40.779)" fill="#111e61"/>
    </g>
  </g>
</svg>
