<svg xmlns="http://www.w3.org/2000/svg" width="85" height="85" viewBox="0 0 85 85"><g transform="translate(-339 -2208)"><rect width="85" height="85" transform="translate(339 2208)" fill="none"/><g transform="translate(339 2224.776)"><rect width="82.167" height="48.167" transform="translate(1.417 1.417)" fill="#ffd494"/><path d="M531.429-228.2v-9.562a1.417,1.417,0,0,1,1.417-1.417h0a1.417,1.417,0,0,1,1.417,1.417v9.563a.354.354,0,0,0,.354.354h78.625a.354.354,0,0,0,.354-.354v-35.062a1.417,1.417,0,0,1,1.417-1.417h0a1.417,1.417,0,0,1,1.417,1.417V-228.2a3.191,3.191,0,0,1-3.187,3.188H534.617A3.191,3.191,0,0,1,531.429-228.2Z" transform="translate(-531.429 276.011)"/><path d="M531.429-296.095v-29.4a3.191,3.191,0,0,1,3.188-3.187h78.625a3.191,3.191,0,0,1,3.188,3.188v3.9a1.417,1.417,0,0,1-1.417,1.417h0a1.417,1.417,0,0,1-1.417-1.417v-3.9a.354.354,0,0,0-.354-.354H534.617a.354.354,0,0,0-.354.354v29.4a1.417,1.417,0,0,1-1.417,1.417h0A1.417,1.417,0,0,1,531.429-296.095Z" transform="translate(-531.429 328.678)"/><g transform="translate(44.96 40.263)"><path d="M603.429-120.678h2.833v2.237h-2.833Z" transform="translate(-597.762 120.678)"/><path d="M571.429-120.678h2.833v2.237h-2.833Z" transform="translate(-571.429 120.678)"/><path d="M635.429-120.678H641.1v2.237h-5.667Z" transform="translate(-624.096 120.678)"/><path d="M683.429-120.678h2.833v2.237h-2.833Z" transform="translate(-663.596 120.678)"/><path d="M715.429-120.678H721.1v2.237h-5.667Z" transform="translate(-689.929 120.678)"/></g><path d="M573.08-200.678h19.806a1.547,1.547,0,0,1,1.651,1.417h0a1.547,1.547,0,0,1-1.651,1.417H573.08a1.547,1.547,0,0,1-1.651-1.417h0A1.547,1.547,0,0,1,573.08-200.678Z" transform="translate(-564.346 227.595)"/><path d="M701.08-200.678h6.6a1.547,1.547,0,0,1,1.651,1.417h0a1.547,1.547,0,0,1-1.651,1.417h-6.6a1.547,1.547,0,0,1-1.651-1.417h0A1.547,1.547,0,0,1,701.08-200.678Z" transform="translate(-665.938 227.595)"/><path d="M637.08-168.678h19.806a1.547,1.547,0,0,1,1.651,1.417h0a1.547,1.547,0,0,1-1.651,1.417H637.08a1.547,1.547,0,0,1-1.651-1.417h0A1.547,1.547,0,0,1,637.08-168.678Z" transform="translate(-615.142 201.261)"/><path d="M573.08-168.678h6.6a1.547,1.547,0,0,1,1.651,1.417h0a1.547,1.547,0,0,1-1.651,1.417h-6.6a1.547,1.547,0,0,1-1.651-1.417h0A1.547,1.547,0,0,1,573.08-168.678Z" transform="translate(-564.346 201.261)"/><path d="M573.08-232.678h3.3a1.547,1.547,0,0,1,1.651,1.417h0a1.547,1.547,0,0,1-1.651,1.417h-3.3a1.547,1.547,0,0,1-1.651-1.417h0A1.547,1.547,0,0,1,573.08-232.678Z" transform="translate(-564.346 253.928)"/><path d="M621.08-232.678h9.9a1.547,1.547,0,0,1,1.651,1.417h0a1.547,1.547,0,0,1-1.651,1.417h-9.9a1.547,1.547,0,0,1-1.651-1.417h0A1.547,1.547,0,0,1,621.08-232.678Z" transform="translate(-602.442 253.928)"/><path d="M667.429-280.678h2.833v1.566h-2.833Z" transform="translate(-638.201 289.178)"/><path d="M699.429-280.678h2.833v1.566h-2.833Z" transform="translate(-664.534 289.178)"/><path d="M731.429-280.678h2.833v1.566h-2.833Z" transform="translate(-690.867 289.178)"/><path d="M573.08-264.678h11.554a1.547,1.547,0,0,1,1.651,1.417h0a1.547,1.547,0,0,1-1.651,1.417H573.08a1.547,1.547,0,0,1-1.651-1.417h0A1.547,1.547,0,0,1,573.08-264.678Z" transform="translate(-564.346 280.261)"/><g transform="translate(52.621 7.238)"><path d="M820.255-272.944v12.572h15.473v-12.572a7.737,7.737,0,0,0-7.737-7.737A7.737,7.737,0,0,0,820.255-272.944Z" transform="translate(-816.239 281.648)" fill="#d3a06c"/><path d="M840.945-218.611v3.868a4.836,4.836,0,0,0,4.835,4.835,4.836,4.836,0,0,0,4.835-4.835v-3.868Z" transform="translate(-834.028 228.282)" fill="#f9e0a6"/><path d="M799.566-152.8h21.276l-.612-4.287a3.869,3.869,0,0,0-2.767-3.172L813.1-161.5v-1.934h-5.8v1.934l-4.358,1.245a3.868,3.868,0,0,0-2.767,3.172Z" transform="translate(-798.451 180.845)" fill="#00d3ff"/><path d="M815.12-258.565l-.772-5.39a4.834,4.834,0,0,0-2.279-3.442v-11.476a8.714,8.714,0,0,0-8.7-8.7,8.714,8.714,0,0,0-8.7,8.7V-267.4a4.837,4.837,0,0,0-2.279,3.442l-.77,5.39Zm-4.983-20.308v10.737l-2.9-.828v-.761a5.786,5.786,0,0,0,1.934-4.313v-4.835h-1.934v.967H799.5v-.967h-1.934v4.835a5.783,5.783,0,0,0,1.934,4.313v.76l-2.9.828v-10.736a6.778,6.778,0,0,1,6.77-6.77A6.777,6.777,0,0,1,810.136-278.873Zm-6.769,8.7a3.872,3.872,0,0,1-3.868-3.868v-1.934h7.737v1.934A3.872,3.872,0,0,1,803.367-270.17Zm9.523,9.671H793.844l.455-3.183a2.9,2.9,0,0,1,2.075-2.379l5.059-1.446v-1.068a5.78,5.78,0,0,0,1.934.339,5.755,5.755,0,0,0,1.934-.339v1.068l5.059,1.446a2.9,2.9,0,0,1,2.075,2.379Z" transform="translate(-791.614 287.577)"/></g></g></g></svg>