<svg xmlns="http://www.w3.org/2000/svg" width="76" height="76" viewBox="0 0 76 76"><g transform="translate(-263 -2360)"><rect height="76" transform="translate(339 2360)" fill="none"/><g transform="translate(263 2375)"><rect width="73.467" height="43.067" transform="translate(1.267 1.267)" fill="#39c3fc"/><path d="M607.3,47.322H579.429V80.255H607.3Z" transform="translate(-538.896 -40.989)" fill="#fffdfb"/><path d="M534.279,106.789h70.3a2.853,2.853,0,0,0,2.85-2.85V72.589a1.267,1.267,0,0,0-1.267-1.267h0a1.267,1.267,0,0,0-1.267,1.267v31.35a.317.317,0,0,1-.317.317h-70.3a.317.317,0,0,1-.317-.317v-8.55a1.267,1.267,0,0,0-1.267-1.267h0a1.267,1.267,0,0,0-1.267,1.267v8.55A2.853,2.853,0,0,0,534.279,106.789Z" transform="translate(-531.429 -61.189)"/><path d="M532.7,37.722h0a1.267,1.267,0,0,0,1.267-1.267V10.172a.317.317,0,0,1,.317-.317h70.3a.317.317,0,0,1,.317.317v3.483a1.267,1.267,0,0,0,1.267,1.267h0a1.267,1.267,0,0,0,1.267-1.267V10.172a2.853,2.853,0,0,0-2.85-2.85h-70.3a2.853,2.853,0,0,0-2.85,2.85V36.455A1.267,1.267,0,0,0,532.7,37.722Z" transform="translate(-531.429 -7.322)"/><g transform="translate(6.333 36.733)"><path d="M829.962,239.322h-2.533v2.533h2.533Z" transform="translate(-807.162 -239.322)"/><path d="M797.962,239.322h-2.533v2.533h2.533Z" transform="translate(-770.096 -239.322)"/><path d="M864.5,239.322h-5.067v2.533H864.5Z" transform="translate(-846.762 -239.322)"/><path d="M909.962,239.322h-2.533v2.533h2.533Z" transform="translate(-899.829 -239.322)"/><path d="M944.5,239.322h-5.067v2.533H944.5Z" transform="translate(-939.429 -239.322)"/></g><path d="M811.9,165.685H796.7a1.267,1.267,0,0,0-1.267,1.267h0a1.267,1.267,0,0,0,1.267,1.267h15.2a1.267,1.267,0,0,0,1.267-1.267h0A1.266,1.266,0,0,0,811.9,165.685Z" transform="translate(-778.962 -140.611)"/><path d="M929.762,165.685H924.7a1.267,1.267,0,0,0-1.267,1.267h0a1.267,1.267,0,0,0,1.267,1.267h5.067a1.267,1.267,0,0,0,1.267-1.267h0A1.266,1.266,0,0,0,929.762,165.685Z" transform="translate(-917.096 -140.611)"/><path d="M875.9,197.685H860.7a1.267,1.267,0,0,0-1.267,1.267h0a1.267,1.267,0,0,0,1.267,1.267h15.2a1.267,1.267,0,0,0,1.267-1.267h0A1.266,1.266,0,0,0,875.9,197.685Z" transform="translate(-853.096 -167.544)"/><path d="M801.762,197.685H796.7a1.267,1.267,0,0,0-1.267,1.267h0a1.267,1.267,0,0,0,1.267,1.267h5.067a1.267,1.267,0,0,0,1.267-1.267h0A1.266,1.266,0,0,0,801.762,197.685Z" transform="translate(-768.829 -167.544)"/><path d="M799.229,133.685H796.7a1.267,1.267,0,0,0-1.267,1.267h0a1.267,1.267,0,0,0,1.267,1.267h2.533a1.267,1.267,0,0,0,1.267-1.267h0A1.266,1.266,0,0,0,799.229,133.685Z" transform="translate(-766.296 -113.678)"/><path d="M852.3,133.685h-7.6a1.267,1.267,0,0,0-1.267,1.267h0a1.267,1.267,0,0,0,1.267,1.267h7.6a1.267,1.267,0,0,0,1.267-1.267h0A1.267,1.267,0,0,0,852.3,133.685Z" transform="translate(-826.962 -113.678)"/><path d="M805.562,101.685H796.7a1.267,1.267,0,0,0-1.267,1.267h0a1.267,1.267,0,0,0,1.267,1.267h8.867a1.267,1.267,0,0,0,1.267-1.267h0A1.266,1.266,0,0,0,805.562,101.685Z" transform="translate(-772.629 -86.744)"/><g transform="translate(41.196 6.508)"><path d="M620.991,55.319a8.736,8.736,0,0,1,8.736,8.736v14.2H612.255v-14.2A8.736,8.736,0,0,1,620.991,55.319Z" transform="translate(-607.72 -54.227)" fill="#d3a06c"/><path d="M643.865,117.389v4.368a5.46,5.46,0,0,1-10.92,0v-4.368Z" transform="translate(-625.134 -106.469)" fill="#f9e0a6"/><path d="M592.257,179.734a4.367,4.367,0,0,1,3.124-3.582l4.921-1.406v-2.184h6.552v2.184l4.921,1.405a4.368,4.368,0,0,1,3.124,3.582l.691,4.841H591.566Z" transform="translate(-590.307 -152.907)" fill="#fa5131"/><path d="M583.614,81.182l.869-6.087a5.462,5.462,0,0,1,2.573-3.886V58.251a9.828,9.828,0,1,1,19.655,0V71.209a5.459,5.459,0,0,1,2.573,3.886l.871,6.087Zm13.271-30.575a7.653,7.653,0,0,0-7.644,7.644V70.374l3.276-.935v-.858a6.529,6.529,0,0,1-2.184-4.87v-5.46h2.184v1.092h8.736V58.251h2.184v5.46a6.534,6.534,0,0,1-2.184,4.87v.859l3.276.935V58.251A7.653,7.653,0,0,0,596.885,50.607Zm4.368,13.1V61.527h-8.736v2.184a4.368,4.368,0,0,0,8.736,0ZM607.124,75.4a3.279,3.279,0,0,0-2.343-2.686l-5.712-1.632V69.88a6.431,6.431,0,0,1-4.368,0v1.206l-5.712,1.632a3.279,3.279,0,0,0-2.343,2.686L586.132,79h21.505Z" transform="translate(-583.614 -48.423)"/></g><g transform="translate(6.7 6.702)"><circle cx="4.184" cy="4.184" r="4.184" fill="#f2d266"/></g><path d="M918.5,56.423a4.551,4.551,0,1,1,4.551-4.551,4.556,4.556,0,0,1-4.551,4.551Zm0-.717c.358,0,.83-.746,1.076-2.008H917.42C917.667,54.96,918.139,55.706,918.5,55.706Zm-1.216-.2a4.107,4.107,0,0,1-.251-.543,7.006,7.006,0,0,1-.339-1.267h-1.565A3.853,3.853,0,0,0,917.28,55.508Zm-2.617-3.635a3.82,3.82,0,0,0,.164,1.108h1.765c-.036-.358-.055-.729-.055-1.108,0-.342.016-.678.045-1H914.8a3.823,3.823,0,0,0-.134,1Zm.41-1.721h1.6a7.137,7.137,0,0,1,.357-1.371,4.129,4.129,0,0,1,.251-.542A3.853,3.853,0,0,0,915.073,50.151Zm3.424-2.112c-.368,0-.856.787-1.1,2.112h2.192C919.352,48.826,918.864,48.039,918.5,48.039ZM917.3,50.868c-.031.314-.048.649-.048,1a10.254,10.254,0,0,0,.059,1.108h2.368a10.3,10.3,0,0,0,.059-1.108c0-.355-.017-.69-.048-1Zm2.411-2.63a4.129,4.129,0,0,1,.251.542,7.137,7.137,0,0,1,.357,1.371h1.6a3.852,3.852,0,0,0-2.208-1.913Zm2.618,3.635a3.823,3.823,0,0,0-.134-1h-1.785c.029.326.045.662.045,1,0,.379-.019.75-.055,1.108h1.765a3.821,3.821,0,0,0,.164-1.108ZM920.3,53.7a7.021,7.021,0,0,1-.339,1.267,4.121,4.121,0,0,1-.251.543,3.854,3.854,0,0,0,2.154-1.81Z" transform="translate(-907.613 -40.989)"/></g></g></svg>