<svg xmlns="http://www.w3.org/2000/svg" width="114.025" height="106" viewBox="0 0 114.025 106"><g transform="translate(-1310.787 168.032)"><g transform="translate(1310.787 -168.032)"><path d="M1420.283-142.311c-16.114-26.488-55.693-28.215-73.755-23.922-4.311,1.025-8.663,2.518-11.952,5.488s-5.292,7.713-3.964,11.94c.975,3.107,3.548,5.52,4.5,8.633,1.2,3.9-.4,8.191-2.917,11.406s-5.87,5.646-8.88,8.4c-9.665,8.85-15.886,23.251-10.6,35.241,2.523,5.72,7.307,10.144,12.419,13.743,6.475,4.557,13.83,8.109,21.686,9.092s16.255-.823,22.309-5.925c8.7-7.332,12.862-21.126,24.054-23.165,3.255-.593,6.616-.005,9.9-.365,8.943-.978,15.755-8.786,19.18-17.1,3.91-9.5,3.347-24.689-1.99-33.463Z" transform="translate(-1310.787 168.032)" fill="#ffd494"/></g><g transform="translate(1330.198 -156.49)"><path d="M1388.229-38.971v-73.963h-3.3a24.078,24.078,0,0,1-2.869-5.278,10.489,10.489,0,0,1,.773-7.683l62.53,0a5.084,5.084,0,0,1,5.083,5.083V-61.04a29.37,29.37,0,0,0-5.808.254c-11.193,2.038-15.356,15.832-24.055,23.165a24.792,24.792,0,0,1-6.044,3.731h-21.233A5.082,5.082,0,0,1,1388.229-38.971Z" transform="translate(-1381.649 125.897)" fill="#ffb74d"/></g><path d="M1365.422-141.549a5.082,5.082,0,0,1,3.637-4.871,5.035,5.035,0,0,1,1.444-.21h13.551a5.082,5.082,0,0,0-5.083,5.081v7.881h-11.01a2.539,2.539,0,0,1-2.539-2.539v-5.342Z" transform="translate(-39.669 -15.54)" fill="#acb0c8"/><path d="M1387.244-146.639h62.22a5.084,5.084,0,0,1,5.083,5.083v86.924h-57.14a5.082,5.082,0,0,1-5.08-5.08v-81.843a5.084,5.084,0,0,0-5.083-5.083Z" transform="translate(-55.513 -15.533)" fill="#f3f9ff"/><path d="M1426.728,158.263a5.082,5.082,0,0,0,5.081-5.083v-4.066a2.541,2.541,0,0,1,2.542-2.539h57.137a2.541,2.541,0,0,1,2.542,2.539v4.066a5.082,5.082,0,0,1-5.081,5.083Z" transform="translate(-84.182 -228.428)" fill="#acb0c8"/><path d="M1367.551-150.7a6.2,6.2,0,0,0-6.194,6.195v5.34a3.658,3.658,0,0,0,3.654,3.654h.9a1.114,1.114,0,0,0,1.114-1.114,1.114,1.114,0,0,0-1.114-1.113h-.9a1.429,1.429,0,0,1-1.427-1.427v-5.34a3.972,3.972,0,0,1,3.967-3.968h.9a3.972,3.972,0,0,1,3.968,3.968v81.841a6.2,6.2,0,0,0,6.195,6.195h62.87a6.2,6.2,0,0,0,6.195-6.195v-4.065a3.658,3.658,0,0,0-3.654-3.654h-7.158V-98.186a1.114,1.114,0,0,0-1.113-1.114,1.114,1.114,0,0,0-1.113,1.114v27.809h-47.753a3.659,3.659,0,0,0-3.654,3.654v4.065a3.972,3.972,0,0,1-3.959,3.967h-.659a3.972,3.972,0,0,1-3.968-3.968V-144.5a6.167,6.167,0,0,0-1.441-3.968h57.466a3.972,3.972,0,0,1,3.968,3.968v38.781a1.114,1.114,0,0,0,1.113,1.114,1.113,1.113,0,0,0,1.113-1.114V-144.5a6.2,6.2,0,0,0-6.195-6.195Zm77.9,88.036a3.972,3.972,0,0,1-3.967,3.968h-57.466a6.166,6.166,0,0,0,1.441-3.967v-4.065a1.429,1.429,0,0,1,1.427-1.427h57.138a1.429,1.429,0,0,1,1.427,1.427v4.065Z" transform="translate(-36.717 -12.588)" fill="#111e61"/><path d="M1431.538-93.726v-5.845a2.227,2.227,0,0,1,2.227-2.227h43.489a2.227,2.227,0,0,1,2.227,2.227v5.845a2.227,2.227,0,0,1-2.227,2.227h-43.488A2.227,2.227,0,0,1,1431.538-93.726Z" transform="translate(-87.674 -48.091)" fill="#ffee58"/><g transform="translate(1344.428 -135.464)"><g transform="translate(0 0)"><g transform="translate(14.59)"><path d="M1486.859-48.025a1.114,1.114,0,0,1,1.114-1.114h4.138a1.114,1.114,0,0,1,1.113,1.114,1.114,1.114,0,0,1-1.113,1.114h-4.138A1.114,1.114,0,0,1,1486.859-48.025Z" transform="translate(-1486.859 49.139)" fill="#111e61"/></g><g transform="translate(0 4.094)"><path d="M1433.6-33.08a1.114,1.114,0,0,1,1.113-1.114h18.729a1.114,1.114,0,0,1,1.114,1.114,1.114,1.114,0,0,1-1.114,1.114H1434.71A1.114,1.114,0,0,1,1433.6-33.08Z" transform="translate(-1433.597 34.194)" fill="#111e61"/></g><g transform="translate(0 8.188)"><path d="M1433.6-18.135a1.114,1.114,0,0,1,1.113-1.114h18.729a1.114,1.114,0,0,1,1.114,1.114,1.114,1.114,0,0,1-1.114,1.114H1434.71A1.114,1.114,0,0,1,1433.6-18.135Z" transform="translate(-1433.597 19.249)" fill="#111e61"/></g></g><g transform="translate(0 12.281)"><g transform="translate(0 0)"><path d="M1433.6-3.191A1.114,1.114,0,0,1,1434.71-4.3h18.729a1.114,1.114,0,0,1,1.114,1.114,1.114,1.114,0,0,1-1.114,1.114H1434.71A1.114,1.114,0,0,1,1433.6-3.191Z" transform="translate(-1433.597 4.305)" fill="#111e61"/></g></g></g><g transform="translate(1370.923 -117.928)"><g transform="translate(0 0)"><g transform="translate(14.59)"><path d="M1583.582,15.993a1.113,1.113,0,0,1,1.113-1.114h4.139a1.114,1.114,0,1,1,0,2.227H1584.7A1.113,1.113,0,0,1,1583.582,15.993Z" transform="translate(-1583.582 -14.879)" fill="#111e61"/></g><g transform="translate(0 4.094)"><path d="M1530.32,30.937a1.114,1.114,0,0,1,1.114-1.114h18.728a1.114,1.114,0,0,1,0,2.227h-18.728A1.114,1.114,0,0,1,1530.32,30.937Z" transform="translate(-1530.32 -29.823)" fill="#111e61"/></g><g transform="translate(0 8.187)"><path d="M1530.32,45.882a1.114,1.114,0,0,1,1.114-1.114h18.728a1.114,1.114,0,0,1,0,2.227h-18.728A1.114,1.114,0,0,1,1530.32,45.882Z" transform="translate(-1530.32 -44.768)" fill="#111e61"/></g></g><g transform="translate(0 12.281)"><path d="M1530.32,60.826a1.114,1.114,0,0,1,1.114-1.114h18.728a1.114,1.114,0,0,1,0,2.227h-18.728A1.114,1.114,0,0,1,1530.32,60.826Z" transform="translate(-1530.32 -59.712)" fill="#111e61"/></g></g><g transform="translate(1370.923 -101.554)"><g transform="translate(0)"><g transform="translate(0.072)"><path d="M1531.695,76.883a1.114,1.114,0,1,1,0-2.227h4.138a1.114,1.114,0,1,1,0,2.227Z" transform="translate(-1530.581 -74.656)" fill="#111e61"/></g><g transform="translate(0 4.094)"><path d="M1530.32,90.714a1.114,1.114,0,0,1,1.114-1.114h18.728a1.114,1.114,0,0,1,0,2.227h-18.728A1.114,1.114,0,0,1,1530.32,90.714Z" transform="translate(-1530.32 -89.6)" fill="#111e61"/></g><g transform="translate(0 8.187)"><path d="M1530.32,105.659a1.114,1.114,0,0,1,1.114-1.114h18.728a1.114,1.114,0,0,1,0,2.227h-18.728A1.114,1.114,0,0,1,1530.32,105.659Z" transform="translate(-1530.32 -104.545)" fill="#111e61"/></g></g><g transform="translate(0 12.281)"><path d="M1530.32,120.6a1.114,1.114,0,0,1,1.114-1.114h18.728a1.114,1.114,0,0,1,0,2.227h-18.728A1.114,1.114,0,0,1,1530.32,120.6Z" transform="translate(-1530.32 -119.489)" fill="#111e61"/></g></g><path d="M1530.581-36.563v-12.4a1.114,1.114,0,0,1,1.114-1.114h18.585a1.114,1.114,0,0,1,1.113,1.114v12.4a1.113,1.113,0,0,1-1.113,1.114h-18.585A1.113,1.113,0,0,1,1530.581-36.563Z" transform="translate(-159.587 -85.646)" fill="#ff9800"/><g transform="translate(1374.278 -133.401)"><path d="M1568.619-35.32a3.685,3.685,0,0,0-1.059,2.586,1.114,1.114,0,0,0,1.114,1.114,1.114,1.114,0,0,0,1.114-1.114,1.474,1.474,0,0,1,1.473-1.473,1.474,1.474,0,0,1,1.473,1.473,1.114,1.114,0,0,0,1.114,1.114,1.114,1.114,0,0,0,1.113-1.114,3.685,3.685,0,0,0-1.059-2.586,3.684,3.684,0,0,0,1.059-2.586,3.7,3.7,0,0,0-3.7-3.7,3.7,3.7,0,0,0-3.7,3.7A3.686,3.686,0,0,0,1568.619-35.32Zm4.114-2.586a1.475,1.475,0,0,1-1.473,1.473,1.474,1.474,0,0,1-1.473-1.473,1.474,1.474,0,0,1,1.473-1.473A1.475,1.475,0,0,1,1572.733-37.906Z" transform="translate(-1560.714 41.606)" fill="#fff"/><g transform="translate(0 7.759)"><path d="M1542.567-12.168a1.114,1.114,0,0,1,1.114-1.114h1.866a1.114,1.114,0,0,1,1.114,1.114,1.114,1.114,0,0,1-1.114,1.114h-1.866A1.114,1.114,0,0,1,1542.567-12.168Z" transform="translate(-1542.567 13.282)" fill="#fff"/></g><g transform="translate(0 4.181)"><path d="M1542.567-25.23a1.114,1.114,0,0,1,1.114-1.114h1.866a1.114,1.114,0,0,1,1.114,1.114,1.114,1.114,0,0,1-1.114,1.114h-1.866A1.114,1.114,0,0,1,1542.567-25.23Z" transform="translate(-1542.567 26.344)" fill="#fff"/></g></g><path d="M1435.607,31.54v-12.4a1.114,1.114,0,0,1,1.114-1.114h18.586a1.114,1.114,0,0,1,1.114,1.114v12.4a1.114,1.114,0,0,1-1.114,1.114h-18.586A1.113,1.113,0,0,1,1435.607,31.54Z" transform="translate(-90.629 -135.094)" fill="#ff9800"/><path d="M1435.607,94.51V83.9a1.114,1.114,0,0,1,1.114-1.114h18.586a1.114,1.114,0,0,1,1.114,1.114V94.51a1.114,1.114,0,0,1-1.114,1.114h-18.586A1.114,1.114,0,0,1,1435.607,94.51Z" transform="translate(-90.629 -182.113)" fill="#ffee58"/><g transform="translate(1348.262 -114.746)"><path d="M1473.645,32.783a3.684,3.684,0,0,0-1.059,2.586,1.114,1.114,0,0,0,2.227,0,1.473,1.473,0,0,1,2.946,0,1.113,1.113,0,1,0,2.227,0,3.686,3.686,0,0,0-1.059-2.586,3.7,3.7,0,1,0-5.281,0Zm4.114-2.587a1.473,1.473,0,1,1-1.473-1.473A1.474,1.474,0,0,1,1477.759,30.2Z" transform="translate(-1465.74 -26.497)" fill="#fff"/><g transform="translate(0 7.759)"><path d="M1447.593,55.935a1.114,1.114,0,0,1,1.113-1.114h1.866a1.114,1.114,0,1,1,0,2.227h-1.866A1.113,1.113,0,0,1,1447.593,55.935Z" transform="translate(-1447.593 -54.821)" fill="#fff"/></g><g transform="translate(0 4.181)"><path d="M1447.593,42.873a1.113,1.113,0,0,1,1.113-1.114h1.866a1.114,1.114,0,1,1,0,2.227h-1.866A1.114,1.114,0,0,1,1447.593,42.873Z" transform="translate(-1447.593 -41.759)" fill="#fff"/></g></g><g transform="translate(1343.864 -156.48)"><g transform="translate(38.441 0)"><g transform="translate(7.174)"><path d="M1599.177-123.608a1.114,1.114,0,0,1-1.113-1.114v-.026a1.113,1.113,0,0,1,1.113-1.114,1.114,1.114,0,0,1,1.114,1.114v.026A1.114,1.114,0,0,1,1599.177-123.608Z" transform="translate(-1598.063 125.861)" fill="#111e61"/></g><g transform="translate(3.587)"><path d="M1586.082-123.608a1.114,1.114,0,0,1-1.114-1.114v-.026a1.113,1.113,0,0,1,1.114-1.114,1.113,1.113,0,0,1,1.114,1.114v.026A1.113,1.113,0,0,1,1586.082-123.608Z" transform="translate(-1584.968 125.861)" fill="#111e61"/></g><path d="M1572.986-123.608a1.113,1.113,0,0,1-1.113-1.114v-.026a1.113,1.113,0,0,1,1.113-1.114,1.114,1.114,0,0,1,1.114,1.114v.026A1.114,1.114,0,0,1,1572.986-123.608Z" transform="translate(-1571.873 125.861)" fill="#111e61"/></g><g transform="translate(0 0.013)"><path d="M1448.154-123.587h-15.5a1.114,1.114,0,0,1-1.114-1.114,1.114,1.114,0,0,1,1.114-1.113h15.5a1.114,1.114,0,0,1,1.114,1.113,1.113,1.113,0,0,1-1.114,1.114Z" transform="translate(-1431.539 125.814)" fill="#111e61"/></g></g></g></svg>