<svg xmlns="http://www.w3.org/2000/svg" width="76" height="76" viewBox="0 0 76 76"><g transform="translate(-263 -2208)"><rect height="76" transform="translate(339 2208)" fill="none"/><g transform="translate(263 2223)"><rect width="73.467" height="43.067" transform="translate(1.267 1.267)" fill="#fdcc69"/><path d="M787.429-255.745H815.3v-32.933H787.429Z" transform="translate(-779.829 295.011)" fill="#fffdfb"/><path d="M607.429-232.061v-8.55a1.267,1.267,0,0,0-1.267-1.267h0a1.267,1.267,0,0,0-1.267,1.267v8.55a.317.317,0,0,1-.317.317h-70.3a.317.317,0,0,1-.317-.317v-31.35a1.267,1.267,0,0,0-1.267-1.267h0a1.267,1.267,0,0,0-1.267,1.267v31.35a2.853,2.853,0,0,0,2.85,2.85h70.3A2.853,2.853,0,0,0,607.429-232.061Z" transform="translate(-531.429 274.811)"/><path d="M607.429-299.545v-26.283a2.853,2.853,0,0,0-2.85-2.85h-70.3a2.853,2.853,0,0,0-2.85,2.85v3.483a1.267,1.267,0,0,0,1.267,1.267h0a1.267,1.267,0,0,0,1.267-1.267v-3.483a.317.317,0,0,1,.317-.317h70.3a.317.317,0,0,1,.317.317v26.283a1.267,1.267,0,0,0,1.267,1.267h0A1.267,1.267,0,0,0,607.429-299.545Z" transform="translate(-531.429 328.678)"/><g transform="translate(41.8 32.933)"><path d="M605.962-120.678h-2.533v5.067h2.533Z" transform="translate(-583.162 120.678)"/><path d="M573.962-120.678h-2.533v5.067h2.533Z" transform="translate(-546.096 120.678)"/><path d="M640.5-120.678h-5.067v5.067H640.5Z" transform="translate(-622.762 120.678)"/><path d="M685.962-120.678h-2.533v5.067h2.533Z" transform="translate(-675.829 120.678)"/><path d="M720.5-120.678h-5.067v5.067H720.5Z" transform="translate(-715.429 120.678)"/></g><path d="M587.9-200.678H572.7a1.267,1.267,0,0,0-1.267,1.267h0a1.267,1.267,0,0,0,1.267,1.267h15.2a1.267,1.267,0,0,0,1.267-1.267h0A1.267,1.267,0,0,0,587.9-200.678Z" transform="translate(-519.496 220.945)"/><path d="M705.762-200.678H700.7a1.267,1.267,0,0,0-1.267,1.267h0a1.267,1.267,0,0,0,1.267,1.267h5.067a1.267,1.267,0,0,0,1.267-1.267h0A1.267,1.267,0,0,0,705.762-200.678Z" transform="translate(-657.629 220.945)"/><path d="M651.9-168.678H636.7a1.267,1.267,0,0,0-1.267,1.267h0a1.267,1.267,0,0,0,1.267,1.267h15.2a1.267,1.267,0,0,0,1.267-1.267h0A1.267,1.267,0,0,0,651.9-168.678Z" transform="translate(-593.629 194.011)"/><path d="M577.762-168.678H572.7a1.267,1.267,0,0,0-1.267,1.267h0a1.267,1.267,0,0,0,1.267,1.267h5.067a1.267,1.267,0,0,0,1.267-1.267h0A1.267,1.267,0,0,0,577.762-168.678Z" transform="translate(-509.362 194.011)"/><path d="M575.229-232.678H572.7a1.267,1.267,0,0,0-1.267,1.267h0a1.267,1.267,0,0,0,1.267,1.267h2.533a1.267,1.267,0,0,0,1.267-1.267h0A1.267,1.267,0,0,0,575.229-232.678Z" transform="translate(-506.829 247.878)"/><path d="M628.3-232.678h-7.6a1.267,1.267,0,0,0-1.267,1.267h0a1.267,1.267,0,0,0,1.267,1.267h7.6a1.267,1.267,0,0,0,1.267-1.267h0A1.267,1.267,0,0,0,628.3-232.678Z" transform="translate(-567.496 247.878)"/><path d="M669.962-280.678h-2.533v2.533h2.533Z" transform="translate(-615.496 288.278)"/><path d="M701.962-280.678h-2.533v2.533h2.533Z" transform="translate(-652.562 288.278)"/><path d="M733.962-280.678h-2.533v2.533h2.533Z" transform="translate(-689.629 288.278)"/><path d="M581.562-264.678H572.7a1.267,1.267,0,0,0-1.267,1.267h0a1.267,1.267,0,0,0,1.267,1.267h8.867a1.267,1.267,0,0,0,1.267-1.267h0A1.267,1.267,0,0,0,581.562-264.678Z" transform="translate(-513.162 274.811)"/><g transform="translate(8.263 6.508)"><path d="M837.727-271.945v14.2H820.255v-14.2a8.736,8.736,0,0,1,8.736-8.736A8.736,8.736,0,0,1,837.727-271.945Z" transform="translate(-815.72 281.773)" fill="#d3a06c"/><path d="M851.865-218.611v4.368a5.461,5.461,0,0,1-5.46,5.46,5.461,5.461,0,0,1-5.46-5.46v-4.368Z" transform="translate(-833.134 229.531)" fill="#f9e0a6"/><path d="M823.589-151.426H799.566l.691-4.841a4.368,4.368,0,0,1,3.124-3.582l4.921-1.405v-2.184h6.552v2.184l4.921,1.406a4.367,4.367,0,0,1,3.124,3.582Z" transform="translate(-798.307 183.093)" fill="#fa5131"/><path d="M791.614-254.818l.871-6.087a5.459,5.459,0,0,1,2.573-3.886v-12.958a9.839,9.839,0,0,1,9.828-9.828,9.839,9.839,0,0,1,9.828,9.828v12.958a5.462,5.462,0,0,1,2.573,3.886l.869,6.087Zm5.627-22.931v12.124l3.276-.935v-.859a6.533,6.533,0,0,1-2.184-4.87v-5.46h2.184v1.092h8.736v-1.092h2.184v5.46a6.53,6.53,0,0,1-2.184,4.87v.858l3.276.935v-12.123a7.653,7.653,0,0,0-7.644-7.644A7.653,7.653,0,0,0,797.241-277.749Zm7.644,9.828a4.372,4.372,0,0,0,4.368-4.368v-2.184h-8.736v2.184A4.372,4.372,0,0,0,804.885-267.922ZM794.132-257h21.505l-.513-3.594a3.279,3.279,0,0,0-2.343-2.686l-5.712-1.632v-1.206a6.526,6.526,0,0,1-2.184.382,6.5,6.5,0,0,1-2.184-.382v1.206l-5.712,1.632a3.279,3.279,0,0,0-2.343,2.686Z" transform="translate(-791.614 287.577)"/></g></g></g></svg>