<svg xmlns="http://www.w3.org/2000/svg" width="76" height="76" viewBox="0 0 76 76"><g transform="translate(-339 -2068)"><rect width="76" height="76" transform="translate(339 2068)" fill="none"/><g transform="translate(263.341 2068)"><path d="M139.865,129.421H98.73a2.055,2.055,0,0,1-2.055-2.055V66.182a2.055,2.055,0,0,1,2.055-2.055h41.135a4.11,4.11,0,0,1,4.11,4.11v57.074a4.11,4.11,0,0,1-4.11,4.11Z" transform="translate(-6.666 -54.608)" fill="#dd667c"/><path d="M139.865,462.424H98.73a2.055,2.055,0,0,1-2.055-2.055v2.672A2.055,2.055,0,0,0,98.73,465.1h41.135a4.11,4.11,0,0,0,4.11-4.11v-2.672A4.11,4.11,0,0,1,139.865,462.424Z" transform="translate(-6.666 -390.283)" fill="#db4858"/><g transform="translate(100.596 22.462)"><circle cx="13.019" cy="13.019" r="13.019" fill="#f2d266"/></g><path d="M108.777,16.332h39.379V10.95a2.948,2.948,0,0,0-3.607-2.873l-36.075,8.278v0A2.062,2.062,0,0,1,108.777,16.332Z" transform="translate(-16.714 -6.812)" fill="#db4858"/><path d="M108.474,48.821v0a2.062,2.062,0,0,1,.3-.025h39.379V46.127H120.215Z" transform="translate(-16.714 -39.28)" fill="#cc3c50"/><path d="M133.238,8.348h-.645V4.071A4.069,4.069,0,0,0,127.614.1L91.469,8.4l-.008,0a3.178,3.178,0,0,0-2.613,3.122V30.014a1.116,1.116,0,1,0,2.231,0V11.522a.945.945,0,0,1,.943-.943h27.083a1.116,1.116,0,1,0,0-2.231H101.665l26.449-6.069a1.838,1.838,0,0,1,2.249,1.792V8.348h-6.8a1.116,1.116,0,0,0,0,2.231h9.671a3.006,3.006,0,0,1,3,3v46.1a1.116,1.116,0,1,0,2.231,0v-46.1a5.239,5.239,0,0,0-5.233-5.233Z" transform="translate(-0.001 0)"/><path d="M137.355,254.412a1.116,1.116,0,0,0-1.116,1.116v6.62a3.006,3.006,0,0,1-3,3H92.021a.945.945,0,0,1-.943-.943v-38.35a1.116,1.116,0,1,0-2.231,0v38.35a3.178,3.178,0,0,0,3.174,3.174h41.216a5.239,5.239,0,0,0,5.233-5.233v-6.62a1.115,1.115,0,0,0-1.115-1.116Z" transform="translate(0 -191.38)"/><path d="M174.471,171.922a14.16,14.16,0,1,0-14.16-14.16,14.176,14.176,0,0,0,14.16,14.16Zm0-2.231c-1.114,0-2.582-2.321-3.349-6.25h6.7C177.053,167.37,175.584,169.691,174.471,169.691Zm3.784-.619a12.808,12.808,0,0,0,.78-1.688,21.812,21.812,0,0,0,1.055-3.943h4.869A11.991,11.991,0,0,1,178.255,169.072Zm8.145-11.31a11.885,11.885,0,0,1-.51,3.448H180.4c.112-1.114.171-2.27.171-3.448,0-1.065-.048-2.111-.14-3.125h5.554a11.9,11.9,0,0,1,.418,3.125Zm-1.275-5.356h-4.98a22.211,22.211,0,0,0-1.11-4.266,12.759,12.759,0,0,0-.78-1.688A11.987,11.987,0,0,1,185.125,152.406Zm-10.654-6.573c1.144,0,2.663,2.448,3.41,6.573H171.06C171.808,148.281,173.327,145.833,174.471,145.833Zm3.718,8.8c.1.977.148,2.02.148,3.125a31.989,31.989,0,0,1-.182,3.448h-7.368a31.989,31.989,0,0,1-.182-3.448c0-1.105.053-2.148.148-3.125Zm-7.5-8.185a12.8,12.8,0,0,0-.78,1.688,22.221,22.221,0,0,0-1.11,4.266h-4.98a11.988,11.988,0,0,1,6.87-5.954Zm-8.145,11.31a11.9,11.9,0,0,1,.418-3.125h5.554c-.092,1.014-.14,2.06-.14,3.125,0,1.178.059,2.334.171,3.448h-5.492a11.89,11.89,0,0,1-.51-3.448Zm6.31,5.679a21.81,21.81,0,0,0,1.055,3.943,12.775,12.775,0,0,0,.78,1.688,11.991,11.991,0,0,1-6.7-5.631Z" transform="translate(-60.856 -122.286)"/><path d="M161.427,368.211H187.6a1.116,1.116,0,1,0,0-2.231H161.427a1.116,1.116,0,1,0,0,2.231Z" transform="translate(-60.856 -311.654)"/><path d="M194.715,409.6a1.116,1.116,0,0,0,0,2.231h16.294a1.116,1.116,0,0,0,0-2.231Z" transform="translate(-89.203 -348.804)"/></g></g></svg>