<svg xmlns="http://www.w3.org/2000/svg" width="85" height="85" viewBox="0 0 85 85"><g transform="translate(-285 -620)"><rect width="85" height="85" transform="translate(285 620)" fill="none"/><g transform="translate(-2063.627 1537.279)"><path d="M2419.4-908.724h-44.958a3.027,3.027,0,0,0-3.027,3.027v57.641h-8.148a5.087,5.087,0,0,0-5.087,5.087v7.248a6.593,6.593,0,0,0,6.665,6.577H2415a7.42,7.42,0,0,0,7.419-7.419V-905.7A3.027,3.027,0,0,0,2419.4-908.724Z" transform="translate(-6.341 -6.345)" fill="#bacbec"/><path d="M2363.264-529.924h8.155v12.335a6.6,6.6,0,0,1-6.577,6.577h-.088a6.6,6.6,0,0,1-6.577-6.577v-7.248A5.087,5.087,0,0,1,2363.264-529.924Z" transform="translate(-6.341 -324.478)" fill="#acb0c8"/><path d="M2459.469-905.7v69.136a7.418,7.418,0,0,1-7.417,7.419h-49.764v-.013a6.6,6.6,0,0,0,6.179-6.563l-.008-12.338V-905.7a3.027,3.027,0,0,1,3.027-3.027h44.957A3.027,3.027,0,0,1,2459.469-905.7Z" transform="translate(-43.386 -6.342)" fill="#f3f9ff"/><path d="M2702.67-453.623v.385a6.309,6.309,0,0,1-6.309,6.308h-9.8a6.31,6.31,0,0,1-6.308-6.308v-.385Z" transform="translate(-276.836 -388.559)" fill="#ff9800"/><path d="M2731.877-453.623v.385a6.308,6.308,0,0,1-6.309,6.308h-4.228a6.308,6.308,0,0,1-6.308-6.308v-.385Z" transform="translate(-306.044 -388.559)" fill="#ffb74d"/><path d="M2574.624-870.13a5.614,5.614,0,0,1-5.614,5.614,5.614,5.614,0,0,1-5.615-5.614,5.614,5.614,0,0,1,5.615-5.614A5.614,5.614,0,0,1,2574.624-870.13Z" transform="translate(-178.693 -34.043)" fill="#ff9800"/><path d="M2703.072-705.112c-.1.581-6.658,25.125-7.077,27.179H2688.1c-.746-3.781-6.06-23.243-6.793-26.966a11.074,11.074,0,0,1,11.257-13.317,10.921,10.921,0,0,1,2.436.358A11.236,11.236,0,0,1,2703.072-705.112Z" transform="translate(-277.539 -166.336)" fill="#ff9800"/><path d="M2733-703.2c-.1.581-6.658,25.125-7.077,27.179h-2.185c-.747-3.781-6.06-23.243-6.793-26.966a11.109,11.109,0,0,1,7.987-12.96A11.236,11.236,0,0,1,2733-703.2Z" transform="translate(-307.465 -168.248)" fill="#ffb74d"/><path d="M2679.031-510.045v2a4.032,4.032,0,0,1-4.031,4.031H2649.51a4.032,4.032,0,0,1-4.031-4.031v-2a4.031,4.031,0,0,1,4.031-4.031H2675A4.031,4.031,0,0,1,2679.031-510.045Z" transform="translate(-247.629 -337.788)" fill="#ff9800"/><path d="M2706.76-510.045v1.5h-24.234a4.03,4.03,0,0,1-4.031-4.031v-1.5h24.235A4.031,4.031,0,0,1,2706.76-510.045Z" transform="translate(-275.357 -337.788)" fill="#ffb74d"/><path d="M2434.476-866.449a1.209,1.209,0,0,0,1.209-1.209v-44.385a1.82,1.82,0,0,1,1.817-1.817h44.957a1.819,1.819,0,0,1,1.817,1.817v26.274a12.227,12.227,0,0,0-12.306,9.969,1.209,1.209,0,0,0,.959,1.416,1.21,1.21,0,0,0,1.416-.96,9.756,9.756,0,0,1,9.685-8.008,10,10,0,0,1,9.719,11.683c-.118.531-2.151,8.22-3.042,11.591a1.21,1.21,0,0,0,1.171,1.519,1.209,1.209,0,0,0,1.167-.9c3.182-12.043,3.264-11.96,3.264-13.9a12.406,12.406,0,0,0-9.614-12.121v-26.562a4.242,4.242,0,0,0-4.237-4.236H2437.5a4.241,4.241,0,0,0-4.236,4.236v44.385A1.207,1.207,0,0,0,2434.476-866.449Z" transform="translate(-69.405)"/><path d="M2427.372-623.211h-5.412c.179-.681.334-1.269.447-1.7a1.209,1.209,0,0,0-.861-1.477,1.21,1.21,0,0,0-1.477.863q-.323,1.231-.608,2.314h-9.825c-1.981-7.64-4.23-16.117-4.678-18.4a1.211,1.211,0,0,0-1.421-.953,1.212,1.212,0,0,0-.953,1.421c.485,2.462,2.835,11.288,4.552,17.928h-5.255a5.247,5.247,0,0,0-5.24,5.241v2a5.247,5.247,0,0,0,5.24,5.243h.428a7.5,7.5,0,0,0,1.9,3.889h-40.071a7.791,7.791,0,0,0,2.15-5.368c0-.537-.008-16.589-.008-20.755a1.21,1.21,0,0,0-1.209-1.209,1.209,1.209,0,0,0-1.21,1.209v7.21h-6.939a6.3,6.3,0,0,0-6.3,6.3v7.248a7.8,7.8,0,0,0,7.786,7.786c5.033,0-20.274,0,61.112,0a7.528,7.528,0,0,0,7.419-6.308h.427a5.247,5.247,0,0,0,5.241-5.243v-2A5.247,5.247,0,0,0,2427.372-623.211Zm-63.5,11.007a5.372,5.372,0,0,1-5.455,5.367,5.374,5.374,0,0,1-5.368-5.367v-7.248a3.882,3.882,0,0,1,3.878-3.878h6.94C2363.869-613.868,2363.869-616.149,2363.869-612.2Zm55.656,5.368c-10.695,0-9.958.011-10.3-.026a5.108,5.108,0,0,1-4.452-3.863h19.706A5.109,5.109,0,0,1,2419.525-606.835Zm10.668-9.132a2.825,2.825,0,0,1-2.821,2.823H2401.88a2.825,2.825,0,0,1-2.821-2.823v-2a2.825,2.825,0,0,1,2.821-2.822h25.491a2.825,2.825,0,0,1,2.821,2.822Z" transform="translate(0 -229.862)"/><path d="M2569.492-876.471a6.831,6.831,0,0,0-6.823-6.824,6.831,6.831,0,0,0-6.824,6.824,6.831,6.831,0,0,0,6.824,6.823A6.831,6.831,0,0,0,2569.492-876.471Zm-11.229,0a4.409,4.409,0,0,1,4.405-4.4,4.41,4.41,0,0,1,4.4,4.4,4.41,4.41,0,0,1-4.4,4.4A4.41,4.41,0,0,1,2558.264-876.471Z" transform="translate(-172.351 -27.701)"/><path d="M2665.409-845.821a1.21,1.21,0,0,0,1.209-1.209,1.21,1.21,0,0,0-1.209-1.209h-5.671a1.209,1.209,0,0,0-1.209,1.209,1.209,1.209,0,0,0,1.209,1.209Z" transform="translate(-258.59 -57.142)"/><path d="M2489.066-845.821h5.671a1.209,1.209,0,0,0,1.209-1.209,1.209,1.209,0,0,0-1.209-1.209h-5.671a1.209,1.209,0,0,0-1.209,1.209A1.209,1.209,0,0,0,2489.066-845.821Z" transform="translate(-115.252 -57.142)"/><path d="M2481.486-775.359a1.209,1.209,0,0,0,1.209,1.209h35.046a1.209,1.209,0,0,0,1.209-1.209,1.209,1.209,0,0,0-1.209-1.209H2482.7A1.209,1.209,0,0,0,2481.486-775.359Z" transform="translate(-109.901 -117.335)"/><path d="M2482.7-738.911h35.046a1.209,1.209,0,0,0,1.209-1.209,1.209,1.209,0,0,0-1.209-1.209H2482.7a1.209,1.209,0,0,0-1.209,1.209A1.209,1.209,0,0,0,2482.7-738.911Z" transform="translate(-109.901 -146.93)"/><path d="M2482.7-703.673h27.843a1.21,1.21,0,0,0,1.209-1.21,1.209,1.209,0,0,0-1.209-1.209H2482.7a1.209,1.209,0,0,0-1.209,1.209A1.21,1.21,0,0,0,2482.7-703.673Z" transform="translate(-109.901 -176.524)"/><path d="M2482.7-668.43H2508.6a1.209,1.209,0,0,0,1.209-1.209,1.209,1.209,0,0,0-1.209-1.209H2482.7a1.209,1.209,0,0,0-1.209,1.209A1.209,1.209,0,0,0,2482.7-668.43Z" transform="translate(-109.901 -206.123)"/><path d="M2482.7-633.192H2508.6a1.209,1.209,0,0,0,1.209-1.209,1.209,1.209,0,0,0-1.209-1.209H2482.7a1.209,1.209,0,0,0-1.209,1.209A1.209,1.209,0,0,0,2482.7-633.192Z" transform="translate(-109.901 -235.717)"/><path d="M2482.7-597.954h26.715a1.21,1.21,0,0,0,1.209-1.21,1.21,1.21,0,0,0-1.209-1.209H2482.7a1.209,1.209,0,0,0-1.209,1.209A1.21,1.21,0,0,0,2482.7-597.954Z" transform="translate(-109.901 -265.312)"/><path d="M2513.038-563.922a1.209,1.209,0,0,0-1.21-1.209H2482.7a1.209,1.209,0,0,0-1.209,1.209,1.209,1.209,0,0,0,1.209,1.209h29.133A1.209,1.209,0,0,0,2513.038-563.922Z" transform="translate(-109.901 -294.909)"/><path d="M2482.7-494.654a1.209,1.209,0,0,0-1.209,1.209,1.209,1.209,0,0,0,1.209,1.209H2492.8a1.209,1.209,0,0,0,1.21-1.209,1.209,1.209,0,0,0-1.21-1.209Z" transform="translate(-109.901 -354.099)"/></g></g></svg>