<svg xmlns="http://www.w3.org/2000/svg" width="76" height="76" viewBox="0 0 76 76"><g transform="translate(-193 -1366)"><circle cx="38" cy="38" r="38" transform="translate(193 1366)" fill="#fa9500"/><g transform="translate(-2577.248 4082.008)"><path d="M3210.578-2375.341l3.039,2.118a.817.817,0,0,0,1.137-.2.817.817,0,0,0-.2-1.137l-2.689-1.873v-3.747a.817.817,0,0,0-.817-.817.817.817,0,0,0-.817.817v4.174A.817.817,0,0,0,3210.578-2375.341Z" transform="translate(-386.61 -288.17)" fill="#fff"/><path d="M3132.947-2405.933a9.184,9.184,0,0,0,9.174-9.174,9.184,9.184,0,0,0-9.174-9.174,9.184,9.184,0,0,0-9.174,9.174A9.184,9.184,0,0,0,3132.947-2405.933Zm0-16.714a7.548,7.548,0,0,1,7.54,7.54,7.548,7.548,0,0,1-7.54,7.54,7.549,7.549,0,0,1-7.54-7.54A7.549,7.549,0,0,1,3132.947-2422.647Z" transform="translate(-308.512 -249.075)" fill="#fff"/><path d="M2812.1-2659.183h-26.4a2.008,2.008,0,0,1-2.006-2.006v-26.406h2.365a.725.725,0,0,0,.725-.725.725.725,0,0,0-.725-.725H2783.7v-4a2.008,2.008,0,0,1,2.006-2.006h2.4v.892a2.622,2.622,0,0,0,2.619,2.619,2.622,2.622,0,0,0,2.619-2.619v-.892h23.222v.892a2.622,2.622,0,0,0,2.619,2.619h0a2.622,2.622,0,0,0,2.619-2.619v-.892h2.4a2.008,2.008,0,0,1,2.006,2.006v4h-36.754a.725.725,0,0,0-.725.725.725.725,0,0,0,.725.725h36.754v12.409a.725.725,0,0,0,.725.725.725.725,0,0,0,.725-.725v-17.855a3.459,3.459,0,0,0-3.456-3.456h-2.4v-.891a2.622,2.622,0,0,0-2.619-2.619,2.622,2.622,0,0,0-2.619,2.619v.891h-23.222v-.891a2.622,2.622,0,0,0-2.619-2.619,2.622,2.622,0,0,0-2.619,2.619v.891h-2.4a3.46,3.46,0,0,0-3.456,3.456v31.853a3.46,3.46,0,0,0,3.456,3.456h26.4a.725.725,0,0,0,.725-.725.725.725,0,0,0-.725-.725Zm5.909-38.206a1.17,1.17,0,0,1,1.169-1.169,1.17,1.17,0,0,1,1.169,1.169v3.233a1.17,1.17,0,0,1-1.169,1.169,1.17,1.17,0,0,1-1.169-1.169Zm-28.46,0a1.17,1.17,0,0,1,1.169-1.169,1.17,1.17,0,0,1,1.169,1.169v3.233a1.17,1.17,0,0,1-1.169,1.169,1.17,1.17,0,0,1-1.169-1.169Z" transform="translate(0 0)" fill="#fff"/><path d="M2839.444-2535.285a1.76,1.76,0,0,0-1.758-1.758H2833.5a1.76,1.76,0,0,0-1.758,1.758v4.186a1.76,1.76,0,0,0,1.758,1.758h4.186a1.76,1.76,0,0,0,1.758-1.758Zm-1.45,4.186a.308.308,0,0,1-.308.308H2833.5a.309.309,0,0,1-.308-.308v-4.186a.308.308,0,0,1,.308-.308h4.186a.308.308,0,0,1,.308.308Z" transform="translate(-44.709 -147.213)" fill="#fff"/><path d="M2837.686-2423.66H2833.5a1.76,1.76,0,0,0-1.758,1.758v4.186a1.76,1.76,0,0,0,1.758,1.758h4.186a1.76,1.76,0,0,0,1.758-1.758v-4.186A1.76,1.76,0,0,0,2837.686-2423.66Zm.308,5.944a.308.308,0,0,1-.308.308H2833.5a.308.308,0,0,1-.308-.308v-4.186a.309.309,0,0,1,.308-.308h4.186a.309.309,0,0,1,.308.308Z" transform="translate(-44.709 -249.636)" fill="#fff"/><path d="M2936.788-2535.285a1.76,1.76,0,0,0-1.758-1.758h-4.186a1.76,1.76,0,0,0-1.758,1.758v4.186a1.76,1.76,0,0,0,1.758,1.758h4.186a1.76,1.76,0,0,0,1.758-1.758Zm-1.45,4.186a.309.309,0,0,1-.308.308h-4.186a.309.309,0,0,1-.308-.308v-4.186a.309.309,0,0,1,.308-.308h4.186a.309.309,0,0,1,.308.308Z" transform="translate(-132.644 -147.213)" fill="#fff"/><path d="M2935.03-2423.66h-4.186a1.76,1.76,0,0,0-1.758,1.758v4.186a1.76,1.76,0,0,0,1.758,1.758h4.186a1.76,1.76,0,0,0,1.758-1.758v-4.186A1.76,1.76,0,0,0,2935.03-2423.66Zm.308,5.944a.308.308,0,0,1-.308.308h-4.186a.309.309,0,0,1-.308-.308v-4.186a.309.309,0,0,1,.308-.308h4.186a.309.309,0,0,1,.308.308Z" transform="translate(-132.644 -249.636)" fill="#fff"/><path d="M3032.373-2529.341a1.76,1.76,0,0,0,1.758-1.758v-4.186a1.76,1.76,0,0,0-1.758-1.758h-4.186a1.76,1.76,0,0,0-1.758,1.758v4.186a1.76,1.76,0,0,0,1.758,1.758Zm-4.494-1.758v-4.186a.308.308,0,0,1,.308-.308h4.186a.308.308,0,0,1,.308.308v4.186a.308.308,0,0,1-.308.308h-4.186a.308.308,0,0,1-.308-.308Z" transform="translate(-220.578 -147.213)" fill="#fff"/><path d="M3032.373-2415.958a1.76,1.76,0,0,0,1.758-1.758v-4.186a1.76,1.76,0,0,0-1.758-1.758h-4.186a1.76,1.76,0,0,0-1.758,1.758v4.186a1.76,1.76,0,0,0,1.758,1.758Zm-4.494-1.758v-4.186a.309.309,0,0,1,.308-.308h4.186a.309.309,0,0,1,.308.308v4.186a.308.308,0,0,1-.308.308h-4.186a.308.308,0,0,1-.308-.308Z" transform="translate(-220.578 -249.636)" fill="#fff"/><path d="M3125.531-2537.043a1.76,1.76,0,0,0-1.758,1.758v4.186a1.76,1.76,0,0,0,1.758,1.758h4.186a1.76,1.76,0,0,0,1.758-1.758v-4.186a1.76,1.76,0,0,0-1.758-1.758Zm4.494,1.758v4.186a.309.309,0,0,1-.308.308h-4.186a.309.309,0,0,1-.308-.308v-4.186a.309.309,0,0,1,.308-.308h4.186A.309.309,0,0,1,3130.025-2535.285Z" transform="translate(-308.512 -147.213)" fill="#fff"/></g></g></svg>