<svg xmlns="http://www.w3.org/2000/svg" width="76" height="76" viewBox="0 0 76 76">
  <g id="t2-i12" transform="translate(5244 7760)">
    <rect id="Rectangle_5630" data-name="Rectangle 5630" width="76" height="76" transform="translate(-5244 -7760)" fill="none"/>
    <g id="Group_56008" data-name="Group 56008" transform="translate(-5701.08 -7507.839)">
      <path id="Path_101354" data-name="Path 101354" d="M458.73-179.336l18.61-7.526v30.371l-18.61,7.54Z" transform="translate(-0.877 -32.062)" fill="#ffc571"/>
      <path id="Path_101355" data-name="Path 101355" d="M457.853-149.057a.774.774,0,0,1-.432-.132.773.773,0,0,1-.341-.641v-30.385a.773.773,0,0,1,.483-.716l18.61-7.527a.772.772,0,0,1,.722.076.773.773,0,0,1,.341.641v30.371a.773.773,0,0,1-.482.716l-18.611,7.54A.772.772,0,0,1,457.853-149.057Zm.773-30.636v28.717l17.065-6.914v-28.7Z" transform="translate(0 -31.184)" fill="#111e61"/>
      <path id="Path_101356" data-name="Path 101356" d="M517.1-179.336l-18.624-7.526v30.371l18.624,7.54Z" transform="translate(-22.009 -32.062)" fill="#ffee58"/>
      <path id="Path_101357" data-name="Path 101357" d="M516.218-149.057a.768.768,0,0,1-.29-.057l-18.624-7.54a.772.772,0,0,1-.483-.716v-30.371a.772.772,0,0,1,.341-.641.771.771,0,0,1,.721-.076l18.624,7.527a.773.773,0,0,1,.483.716v30.385a.773.773,0,0,1-.341.641A.774.774,0,0,1,516.218-149.057Zm-17.851-8.833,17.078,6.914v-28.717l-17.078-6.9Z" transform="translate(-21.131 -31.184)" fill="#111e61"/>
      <path id="Path_101358" data-name="Path 101358" d="M538.242-179.336l18.61-7.526v30.371l-18.61,7.54Z" transform="translate(-43.155 -32.062)" fill="#ffc571"/>
      <path id="Path_101359" data-name="Path 101359" d="M537.365-149.057a.773.773,0,0,1-.432-.132.773.773,0,0,1-.341-.641v-30.385a.774.774,0,0,1,.483-.716l18.611-7.527a.772.772,0,0,1,.722.076.772.772,0,0,1,.34.641v30.371a.772.772,0,0,1-.482.716l-18.61,7.54A.774.774,0,0,1,537.365-149.057Zm.773-30.636v28.717L555.2-157.89v-28.7Z" transform="translate(-42.278 -31.184)" fill="#111e61"/>
      <path id="Path_101360" data-name="Path 101360" d="M596.594-179.336l-18.61-7.526v30.371l18.61,7.54Z" transform="translate(-64.286 -32.062)" fill="#ffee58"/>
      <path id="Path_101361" data-name="Path 101361" d="M595.717-149.057a.77.77,0,0,1-.29-.057l-18.61-7.54a.772.772,0,0,1-.482-.716v-30.371a.772.772,0,0,1,.34-.641.772.772,0,0,1,.722-.076l18.61,7.527a.774.774,0,0,1,.483.716v30.385a.773.773,0,0,1-.341.641A.773.773,0,0,1,595.717-149.057Zm-17.838-8.833,17.065,6.914v-28.717l-17.065-6.9Z" transform="translate(-63.409 -31.184)" fill="#111e61"/>
      <path id="Path_101362" data-name="Path 101362" d="M523.321-245.511a13.953,13.953,0,0,1,13.951,13.964c0,7.712-11.681,37.659-13.951,37.659s-13.964-29.947-13.964-37.659a13.964,13.964,0,0,1,13.964-13.964Z" transform="translate(-27.797 -0.877)" fill="#ff9800"/>
      <path id="Path_101363" data-name="Path 101363" d="M522.444-193.993c-.66,0-1.5-.4-3.835-5.236-1.41-2.916-3.086-6.893-4.721-11.2-2.988-7.873-6.181-17.786-6.181-22a14.753,14.753,0,0,1,14.737-14.737,14.747,14.747,0,0,1,14.724,14.737c0,4.21-3.19,14.122-6.174,22-1.633,4.307-3.308,8.285-4.716,11.2C523.943-194.4,523.1-193.993,522.444-193.993Zm0-51.623a13.206,13.206,0,0,0-13.191,13.192c0,7.447,10.655,34.265,13.191,36.778,2.535-2.515,13.179-29.331,13.179-36.778A13.2,13.2,0,0,0,522.444-245.616Z" transform="translate(-26.919 0)" fill="#111e61"/>
      <path id="Path_101364" data-name="Path 101364" d="M530.706-216.716a7.484,7.484,0,0,0,7.46-7.46,7.487,7.487,0,0,0-7.46-7.473,7.478,7.478,0,0,0-7.46,7.473,7.476,7.476,0,0,0,7.46,7.46Z" transform="translate(-35.182 -8.247)" fill="#f3f9ff"/>
      <path id="Path_101365" data-name="Path 101365" d="M529.829-216.821a8.242,8.242,0,0,1-8.233-8.233,8.249,8.249,0,0,1,8.233-8.246,8.249,8.249,0,0,1,8.233,8.246A8.242,8.242,0,0,1,529.829-216.821Zm0-14.934a6.7,6.7,0,0,0-6.688,6.7,6.7,6.7,0,0,0,6.688,6.688,6.7,6.7,0,0,0,6.688-6.688A6.7,6.7,0,0,0,529.829-231.755Z" transform="translate(-34.304 -7.37)" fill="#111e61"/>
    </g>
  </g>
</svg>
