<svg xmlns="http://www.w3.org/2000/svg" width="76" height="76" viewBox="0 0 76 76">
  <g id="t2-i6" transform="translate(5375 7957)">
    <rect id="Rectangle_5533" data-name="Rectangle 5533" width="76" height="76" transform="translate(-5375 -7957)" fill="none"/>
    <g id="Group_56007" data-name="Group 56007" transform="translate(-6200.195 -7336.867)">
      <path id="Path_101339" data-name="Path 101339" d="M883.62-595.2h-10a18.281,18.281,0,0,0-4.159,15.354c1.55,9.685,7.876,15.45,14.158,15.353s14.291-3.454,15.619-14.745-3.916-15.962-3.916-15.962Z" transform="translate(-21.271 -11.089)" fill="#f3f9ff"/>
      <path id="Path_101340" data-name="Path 101340" d="M871-587.314s9.409,1.109,12.841-7.029c0,0,3.321,9.575,16.162,8.8,0,0-1.346-8.8-4.658-9.652H874.493Z" transform="translate(-22.142 -11.089)" fill="#ffee58"/>
      <g id="Group_55990" data-name="Group 55990" transform="translate(847.238 -607.136)">
        <path id="Path_101341" data-name="Path 101341" d="M883.83-564.433c-10.48,0-15.964-9.35-15.964-18.585,0-9.362,4.354-13.435,4.539-13.6a.852.852,0,0,1,.574-.222H883.83a.852.852,0,0,1,.852.852.852.852,0,0,1-.852.852H873.342c-.824.92-3.771,4.728-3.771,12.121,0,8.389,4.9,16.881,14.259,16.881a.852.852,0,0,1,.852.852A.852.852,0,0,1,883.83-564.433Z" transform="translate(-867.866 596.844)" fill="#111e61"/>
      </g>
      <g id="Group_55991" data-name="Group 55991" transform="translate(847.706 -607.136)">
        <path id="Path_101342" data-name="Path 101342" d="M871.373-587.058a13.783,13.783,0,0,1-1.881-.112.853.853,0,0,1-.709-.975.853.853,0,0,1,.975-.709c.425.066,10.018,1.441,12.279-7.351a.852.852,0,0,1,1.038-.613.853.853,0,0,1,.613,1.038C881.7-588.038,874.755-587.058,871.373-587.058Z" transform="translate(-868.773 596.845)" fill="#111e61"/>
      </g>
      <g id="Group_55992" data-name="Group 55992" transform="translate(862.349 -607.136)">
        <path id="Path_101343" data-name="Path 101343" d="M897.971-564.433a.852.852,0,0,1-.852-.852.852.852,0,0,1,.852-.852c9.361,0,14.26-8.492,14.26-16.881,0-7.39-2.944-11.2-3.772-12.121H897.971a.852.852,0,0,1-.852-.852.852.852,0,0,1,.852-.852h10.851a.852.852,0,0,1,.574.222c.185.168,4.539,4.242,4.539,13.6C913.935-573.782,908.452-564.433,897.971-564.433Z" transform="translate(-897.119 596.844)" fill="#111e61"/>
      </g>
      <g id="Group_55993" data-name="Group 55993" transform="translate(860.944 -607.136)">
        <path id="Path_101344" data-name="Path 101344" d="M910.062-585.584c-3.9,0-13.914-.927-15.649-10.253a.852.852,0,0,1,.682-.994.853.853,0,0,1,.994.682c1.871,10.052,15.227,8.825,15.359,8.811a.852.852,0,0,1,.934.762.853.853,0,0,1-.763.934C911.59-585.638,911-585.584,910.062-585.584Z" transform="translate(-894.398 596.845)" fill="#111e61"/>
      </g>
      <g id="Group_55994" data-name="Group 55994" transform="translate(851.499 -618.133)">
        <path id="Path_101345" data-name="Path 101345" d="M877.764-605.486h21.7v-7.556a3.456,3.456,0,0,0-3.441-3.441H881.205a3.456,3.456,0,0,0-3.441,3.441Z" transform="translate(-876.912 617.335)" fill="#ff9800"/>
        <path id="Path_101346" data-name="Path 101346" d="M898.668-605.431h-21.7a.852.852,0,0,1-.852-.852v-7.556a4.3,4.3,0,0,1,4.294-4.293h14.819a4.3,4.3,0,0,1,4.294,4.293v7.556A.852.852,0,0,1,898.668-605.431Zm-20.849-1.7h20v-6.7a2.592,2.592,0,0,0-2.589-2.589H880.408a2.592,2.592,0,0,0-2.589,2.589Z" transform="translate(-876.114 618.133)" fill="#111e61"/>
      </g>
      <g id="Group_55995" data-name="Group 55995" transform="translate(826.048 -570.247)">
        <path id="Path_101347" data-name="Path 101347" d="M875.861-525.434s-1.362,7.014-7.219,7.014h-9.3c-5.857,0-7.2-7.014-7.2-7.014A2.971,2.971,0,0,1,851-524.409c-2.153,1.113-13.135,3.207-18.626,6.882-6.414,4.305-5.477,10.148-5.477,13.076v3.207h74.2v-3.207c0-2.928.952-8.771-5.477-13.076-5.476-3.675-16.474-5.77-18.626-6.882a3.034,3.034,0,0,1-1.127-1.025Z" transform="translate(-826.846 525.434)" fill="#ff9800" fill-rule="evenodd"/>
      </g>
      <g id="Group_55996" data-name="Group 55996" transform="translate(825.195 -575.537)">
        <path id="Path_101348" data-name="Path 101348" d="M863.2-505.342H826.1a.853.853,0,0,1-.852-.852V-509.4c0-.3-.01-.625-.021-.979-.1-3.248-.262-8.686,5.874-12.8,3.806-2.547,9.939-4.291,14.417-5.565a35.032,35.032,0,0,0,4.292-1.367c1.724-.891,1.712-4.052,1.692-4.678a.853.853,0,0,1,.825-.879.852.852,0,0,1,.879.825c.046,1.448-.117,4.955-2.613,6.246a32.874,32.874,0,0,1-4.609,1.492c-4.123,1.172-10.353,2.943-13.934,5.341-5.354,3.593-5.213,8.254-5.12,11.338.011.372.022.718.022,1.03v2.355H863.2a.853.853,0,0,1,.852.852A.853.853,0,0,1,863.2-505.342Z" transform="translate(-825.195 535.674)" fill="#111e61"/>
      </g>
      <g id="Group_55997" data-name="Group 55997" transform="translate(851.499 -574.863)">
        <path id="Path_101349" data-name="Path 101349" d="M883.161-527.555c-5.214,0-6.939-5.481-7.009-5.714a.852.852,0,0,1,.568-1.064.851.851,0,0,1,1.063.567c.058.189,1.44,4.507,5.379,4.507a.852.852,0,0,1,.852.852A.852.852,0,0,1,883.161-527.555Z" transform="translate(-876.114 534.371)" fill="#111e61"/>
      </g>
      <g id="Group_55998" data-name="Group 55998" transform="translate(850.488 -571.099)">
        <path id="Path_101350" data-name="Path 101350" d="M882.215-518.365c-5.19,0-7.53-5.041-8.042-7.706a.853.853,0,0,1,.677-1,.854.854,0,0,1,1,.676c.053.271,1.3,6.323,6.367,6.323a.853.853,0,0,1,.852.852A.853.853,0,0,1,882.215-518.365Z" transform="translate(-874.158 527.084)" fill="#111e61"/>
      </g>
      <g id="Group_55999" data-name="Group 55999" transform="translate(862.177 -569.969)">
        <rect id="Rectangle_5591" data-name="Rectangle 5591" width="2.109" height="7.658" transform="translate(0 0)" fill="#111e61"/>
      </g>
      <g id="Group_56000" data-name="Group 56000" transform="translate(856.627 -552.207)">
        <rect id="Rectangle_5592" data-name="Rectangle 5592" width="2.109" height="2.299" transform="translate(0)" fill="#111e61"/>
      </g>
      <g id="Group_56001" data-name="Group 56001" transform="translate(856.627 -557.917)">
        <rect id="Rectangle_5593" data-name="Rectangle 5593" width="2.109" height="2.299" transform="translate(0)" fill="#111e61"/>
      </g>
      <g id="Group_56002" data-name="Group 56002" transform="translate(862.349 -575.537)">
        <path id="Path_101351" data-name="Path 101351" d="M935.063-505.342H897.971a.853.853,0,0,1-.852-.852.853.853,0,0,1,.852-.852H934.21V-509.4c0-.316.011-.665.022-1.041.1-3.081.239-7.737-5.121-11.327-3.573-2.4-9.808-4.17-13.934-5.342a32.82,32.82,0,0,1-4.609-1.491c-2.483-1.293-2.644-4.8-2.6-6.246a.851.851,0,0,1,.879-.825.853.853,0,0,1,.825.879c-.02.625-.032,3.788,1.679,4.679a35.274,35.274,0,0,0,4.29,1.364c4.482,1.274,10.621,3.018,14.418,5.566,6.144,4.115,5.976,9.548,5.875,12.8-.011.358-.021.689-.021.989v3.207A.853.853,0,0,1,935.063-505.342Z" transform="translate(-897.119 535.675)" fill="#111e61"/>
      </g>
      <g id="Group_56003" data-name="Group 56003" transform="translate(866.991 -574.862)">
        <path id="Path_101352" data-name="Path 101352" d="M906.957-527.554a.852.852,0,0,1-.852-.852.852.852,0,0,1,.852-.852c3.955,0,5.337-4.324,5.394-4.508a.853.853,0,0,1,1.065-.565.852.852,0,0,1,.566,1.062C913.911-533.035,912.186-527.554,906.957-527.554Z" transform="translate(-906.105 534.368)" fill="#111e61"/>
      </g>
      <g id="Group_56004" data-name="Group 56004" transform="translate(866.991 -571.1)">
        <path id="Path_101353" data-name="Path 101353" d="M906.957-518.366a.853.853,0,0,1-.852-.852.853.853,0,0,1,.852-.852c5.1,0,6.37-6.261,6.382-6.325a.85.85,0,0,1,1-.674.852.852,0,0,1,.674,1C914.5-523.406,912.146-518.366,906.957-518.366Z" transform="translate(-906.105 527.086)" fill="#111e61"/>
      </g>
      <g id="Group_56005" data-name="Group 56005" transform="translate(867.668 -552.207)">
        <rect id="Rectangle_5594" data-name="Rectangle 5594" width="2.094" height="2.299" fill="#111e61"/>
      </g>
      <g id="Group_56006" data-name="Group 56006" transform="translate(867.668 -557.917)">
        <rect id="Rectangle_5595" data-name="Rectangle 5595" width="2.094" height="2.299" fill="#111e61"/>
      </g>
    </g>
  </g>
</svg>
