<svg xmlns="http://www.w3.org/2000/svg" width="76" height="76.203" viewBox="0 0 76 76.203">
  <g id="t2-i3" transform="translate(5087 7868)">
    <rect id="Rectangle_5627" data-name="Rectangle 5627" width="76" height="76" transform="translate(-5087 -7868)" fill="none"/>
    <g id="Group_56011" data-name="Group 56011" transform="translate(-5476.539 -7791.193)">
      <path id="Path_101366" data-name="Path 101366" d="M391.189-38.59a37.206,37.206,0,0,0,37.217,37.2,37.206,37.206,0,0,0,37.217-37.2,37.218,37.218,0,0,0-37.217-37.217A37.218,37.218,0,0,0,391.189-38.59Z" transform="translate(-0.867 0)" fill="#f3f9ff"/>
      <path id="Path_101367" data-name="Path 101367" d="M428.742,40.162A37.207,37.207,0,0,0,465.692,7.35a24.489,24.489,0,0,0-2.463-1.821c-3.015-1.916-6.379.765-7.56,3.19s-5.722.354-6.074-1.252-3.867-3.553-3.867-3.553l-33.243-.605s-4.2,2.242-5.117,4.68-4.884,1.538-4.884,1.538-3.353-4.833-5.6-5.047c-.821-.078-2.831,1.339-5.053,3.167A37.207,37.207,0,0,0,428.742,40.162Z" transform="translate(-1.203 -41.549)" fill="#2b80fc"/>
      <g id="Group_56009" data-name="Group 56009" transform="translate(389.862 -38.539)">
        <path id="Path_101368" data-name="Path 101368" d="M403.508,10.168c-2.308,0-3.782-1.777-4.965-3.2-.872-1.051-1.7-2.045-2.559-2.045-1.837,0-3.75,2.22-4.332,3.075a.784.784,0,0,1-1.3-.879c.1-.153,2.583-3.763,5.629-3.763,1.6,0,2.7,1.328,3.765,2.612,1.125,1.357,2.187,2.638,3.759,2.638,1.538,0,2.609-1.513,3.643-2.976,1.025-1.448,2.084-2.946,3.706-2.946a.783.783,0,0,1,0,1.566c-.811,0-1.6,1.11-2.426,2.284C407.284,8.151,405.857,10.168,403.508,10.168Z" transform="translate(-390.22 -2.679)" fill="#111e61"/>
      </g>
      <g id="Group_56010" data-name="Group 56010" transform="translate(443.756 -38.539)">
        <path id="Path_101369" data-name="Path 101369" d="M511.851,10.168c-2.352,0-3.783-2.02-4.932-3.643-.83-1.172-1.614-2.279-2.417-2.279a.783.783,0,1,1,0-1.566c1.614,0,2.672,1.495,3.7,2.94,1.038,1.466,2.112,2.982,3.653,2.982,1.572,0,2.634-1.281,3.759-2.638,1.065-1.284,2.165-2.612,3.765-2.612,3.046,0,5.525,3.609,5.629,3.763a.783.783,0,0,1-1.3.879c-.582-.855-2.5-3.075-4.332-3.075-.864,0-1.687.993-2.559,2.045C515.633,8.391,514.159,10.168,511.851,10.168Z" transform="translate(-503.719 -2.679)" fill="#111e61"/>
      </g>
      <path id="Path_101370" data-name="Path 101370" d="M402.609,6.757h12.455V-18.835H427.58v-7.427H440.5s-1.322,12.6,0,12.708,12.414,0,12.414,0V6.757H466.2a37.518,37.518,0,0,1-31.8,17.875C412.215,24.816,402.609,6.757,402.609,6.757Z" transform="translate(-6.864 -26.019)" fill="#ffee58"/>
      <path id="Path_101371" data-name="Path 101371" d="M427.539,1.909a38.037,38.037,0,0,1-38-37.987,38.067,38.067,0,0,1,22.47-34.688.784.784,0,0,1,1.036.395.784.784,0,0,1-.395,1.036,36.5,36.5,0,0,0-21.544,33.257A36.468,36.468,0,0,0,427.539.342a36.467,36.467,0,0,0,36.433-36.42A36.417,36.417,0,0,0,442.007-69.52a.783.783,0,0,1-.408-1.03.783.783,0,0,1,1.03-.408,37.983,37.983,0,0,1,22.91,34.88A38.036,38.036,0,0,1,427.539,1.909Z" transform="translate(0 -2.513)" fill="#111e61"/>
      <path id="Path_101372" data-name="Path 101372" d="M459.623-75.166l2.113,6.541,6.878-.013L463.042-64.6l2.14,6.541-5.559-4.065-5.559,4.065L456.2-64.6l-5.572-4.038,6.878.013Z" transform="translate(-32.084 -0.336)" fill="#ff9800"/>
      <path id="Path_101373" data-name="Path 101373" d="M467.608,24.024a.784.784,0,0,1-.784-.783V-26.4H455.793v49.57a.783.783,0,0,1-1.567,0V-27.181a.784.784,0,0,1,.783-.783h12.6a.784.784,0,0,1,.783.783V23.24A.784.784,0,0,1,467.608,24.024Z" transform="translate(-33.971 -25.126)" fill="#111e61"/>
      <path id="Path_101374" data-name="Path 101374" d="M441.076,32.218a.784.784,0,0,1-.783-.783v-42.1H429.261v37.4a.783.783,0,1,1-1.567,0V-11.449a.784.784,0,0,1,.783-.783h12.6a.784.784,0,0,1,.783.783V31.435A.784.784,0,0,1,441.076,32.218Z" transform="translate(-20.038 -33.387)" fill="#111e61"/>
      <path id="Path_101375" data-name="Path 101375" d="M481.541,38.107a.784.784,0,0,1-.783-.783V-.365a.784.784,0,0,1,.783-.783h12.6a.784.784,0,0,1,.783.783V32.8a.783.783,0,0,1-1.567,0V.419H482.325v36.9A.784.784,0,0,1,481.541,38.107Z" transform="translate(-47.905 -39.208)" fill="#111e61"/>
      <path id="Path_101376" data-name="Path 101376" d="M508.073,55.928a.783.783,0,0,1-.783-.783V42.183a.784.784,0,0,1,.783-.783h13.178a.783.783,0,0,1,0,1.567H508.857V55.145A.783.783,0,0,1,508.073,55.928Z" transform="translate(-61.839 -61.553)" fill="#111e61"/>
      <path id="Path_101377" data-name="Path 101377" d="M414.365,55.686a.784.784,0,0,1-.783-.783V42.967H401.6a.783.783,0,1,1,0-1.567h12.76a.784.784,0,0,1,.783.783V54.9A.784.784,0,0,1,414.365,55.686Z" transform="translate(-5.925 -61.553)" fill="#111e61"/>
      <rect id="Rectangle_5596" data-name="Rectangle 5596" width="4.051" height="1.615" transform="translate(412.37 -40.381)" fill="#111e61"/>
      <rect id="Rectangle_5597" data-name="Rectangle 5597" width="4.051" height="1.615" transform="translate(412.37 -35.697)" fill="#111e61"/>
      <rect id="Rectangle_5598" data-name="Rectangle 5598" width="4.051" height="1.615" transform="translate(412.37 -30.501)" fill="#111e61"/>
      <rect id="Rectangle_5599" data-name="Rectangle 5599" width="4.051" height="1.615" transform="translate(412.37 -25.279)" fill="#111e61"/>
      <rect id="Rectangle_5600" data-name="Rectangle 5600" width="4.051" height="1.615" transform="translate(412.37 -19.787)" fill="#111e61"/>
      <rect id="Rectangle_5601" data-name="Rectangle 5601" width="4.051" height="1.615" transform="translate(412.37 -15.103)" fill="#111e61"/>
      <rect id="Rectangle_5602" data-name="Rectangle 5602" width="4.051" height="1.615" transform="translate(412.37 -10.096)" fill="#111e61"/>
      <rect id="Rectangle_5603" data-name="Rectangle 5603" width="4.051" height="1.615" transform="translate(425.076 -48.47)" fill="#111e61"/>
      <rect id="Rectangle_5604" data-name="Rectangle 5604" width="4.051" height="1.615" transform="translate(425.076 -43.019)" fill="#111e61"/>
      <rect id="Rectangle_5605" data-name="Rectangle 5605" width="4.051" height="1.615" transform="translate(425.076 -37.635)" fill="#111e61"/>
      <rect id="Rectangle_5606" data-name="Rectangle 5606" width="4.051" height="1.615" transform="translate(425.076 -32.83)" fill="#111e61"/>
      <rect id="Rectangle_5607" data-name="Rectangle 5607" width="4.051" height="1.615" transform="translate(425.076 -27.903)" fill="#111e61"/>
      <rect id="Rectangle_5608" data-name="Rectangle 5608" width="4.051" height="1.615" transform="translate(425.076 -22.977)" fill="#111e61"/>
      <rect id="Rectangle_5609" data-name="Rectangle 5609" width="4.051" height="1.615" transform="translate(425.076 -18.051)" fill="#111e61"/>
      <rect id="Rectangle_5610" data-name="Rectangle 5610" width="4.051" height="1.615" transform="translate(425.076 -13.124)" fill="#111e61"/>
      <rect id="Rectangle_5611" data-name="Rectangle 5611" width="4.051" height="1.615" transform="translate(425.076 -8.212)" fill="#111e61"/>
      <rect id="Rectangle_5612" data-name="Rectangle 5612" width="4.051" height="1.615" transform="translate(437.944 -35.67)" fill="#111e61"/>
      <rect id="Rectangle_5613" data-name="Rectangle 5613" width="4.051" height="1.615" transform="translate(437.944 -30.649)" fill="#111e61"/>
      <rect id="Rectangle_5614" data-name="Rectangle 5614" width="4.051" height="1.615" transform="translate(437.944 -25.279)" fill="#111e61"/>
      <rect id="Rectangle_5615" data-name="Rectangle 5615" width="4.051" height="1.615" transform="translate(437.944 -20.07)" fill="#111e61"/>
      <rect id="Rectangle_5616" data-name="Rectangle 5616" width="4.051" height="1.615" transform="translate(437.944 -15.143)" fill="#111e61"/>
      <rect id="Rectangle_5617" data-name="Rectangle 5617" width="4.051" height="1.615" transform="translate(437.944 -10.109)" fill="#111e61"/>
      <rect id="Rectangle_5618" data-name="Rectangle 5618" width="4.051" height="1.602" transform="translate(450.488 -15.116)" fill="#111e61"/>
      <rect id="Rectangle_5619" data-name="Rectangle 5619" width="4.051" height="1.602" transform="translate(400.027 -15.116)" fill="#111e61"/>
    </g>
  </g>
</svg>
