<svg xmlns="http://www.w3.org/2000/svg" width="110.151" height="150" viewBox="0 0 110.151 150">
  <g id="t2-i1" transform="translate(-1528.156 630.565)">
    <path id="Path_101253" data-name="Path 101253" d="M1642.514-617.875V-487.1a7.687,7.687,0,0,1-7.689,7.69H1545.8a7.69,7.69,0,0,1-7.689-7.69V-617.875a7.69,7.69,0,0,1,7.689-7.69h89.021A7.687,7.687,0,0,1,1642.514-617.875Z" transform="translate(-6.129 -3.078)" fill="#ffc571"/>
    <path id="Path_101254" data-name="Path 101254" d="M1630.792-541.723v96.892a8,8,0,0,1-7.774,7.993c.077,0,.154.015.231.015h-80.955a7.969,7.969,0,0,1-4.179-1.176v-17.248h11.727v-86.476a3.841,3.841,0,0,1,3.845-3.845h73.262a3.844,3.844,0,0,1,3.845,3.845Z" transform="translate(-6.129 -52.318)" fill="#ffb74d"/>
    <path id="Path_101255" data-name="Path 101255" d="M1649.565-593.686v109.069a8.009,8.009,0,0,1-8,8.005h-72.947V-593.686a3.841,3.841,0,0,1,3.845-3.845h73.262A3.844,3.844,0,0,1,1649.565-593.686Z" transform="translate(-24.903 -20.333)" fill="#f3f9ff"/>
    <g id="Group_55924" data-name="Group 55924" transform="translate(1604.121 -526.038)">
      <path id="Path_101256" data-name="Path 101256" d="M1731.2-342.326c-.051,0-.1,0-.152-.007a1.737,1.737,0,0,1-1.461-1.085l-1.879-4.7a.249.249,0,0,0-.232-.157,1.736,1.736,0,0,1-1.736-1.736,1.736,1.736,0,0,1,1.736-1.736,3.7,3.7,0,0,1,3.456,2.34l.6,1.509,6.192-9.978a1.736,1.736,0,0,1,2.391-.56,1.736,1.736,0,0,1,.559,2.391l-8,12.9a1.733,1.733,0,0,1-1.474.82Z" transform="translate(-1725.738 358.696)" fill="#ff9800"/>
    </g>
    <g id="Group_55926" data-name="Group 55926" transform="translate(1551.072 -521.522)">
      <g id="Group_55925" data-name="Group 55925" transform="translate(0 0)">
        <path id="Path_101257" data-name="Path 101257" d="M1594.11-343.1h-4.429a1.922,1.922,0,0,1-1.922-1.922,1.922,1.922,0,0,1,1.922-1.922h4.429a1.922,1.922,0,0,1,1.922,1.922A1.923,1.923,0,0,1,1594.11-343.1Z" transform="translate(-1587.758 346.949)" fill="#111e61"/>
      </g>
    </g>
    <path id="Path_101258" data-name="Path 101258" d="M1658.7-597.2v7.609a3.846,3.846,0,0,1-3.845,3.845h-42.846a3.846,3.846,0,0,1-3.845-3.845V-597.2Z" transform="translate(-49.247 -20.535)" fill="#d2deff"/>
    <path id="Path_101259" data-name="Path 101259" d="M1654.857-608.41h-42.844a3.845,3.845,0,0,1-3.845-3.845v-13.31H1658.7v13.31A3.845,3.845,0,0,1,1654.857-608.41Z" transform="translate(-49.249 -3.078)" fill="#111e61"/>
    <path id="Path_101260" data-name="Path 101260" d="M1631.749-480.565h-89.02a9.623,9.623,0,0,1-9.612-9.612v-55.015a1.923,1.923,0,0,1,1.922-1.922,1.923,1.923,0,0,1,1.922,1.922v55.015a5.774,5.774,0,0,0,5.767,5.767h89.02a5.774,5.774,0,0,0,5.767-5.767V-620.953a5.774,5.774,0,0,0-5.767-5.767H1604.21a1.923,1.923,0,0,1-1.922-1.922,1.923,1.923,0,0,1,1.922-1.922h27.539a9.623,9.623,0,0,1,9.612,9.612v130.776a9.623,9.623,0,0,1-9.612,9.612Z" transform="translate(-3.054)" fill="#111e61"/>
    <path id="Path_101261" data-name="Path 101261" d="M1535.039-554.516a1.923,1.923,0,0,1-1.922-1.922v-64.515a9.623,9.623,0,0,1,9.612-9.612h50.235a1.923,1.923,0,0,1,1.922,1.922,1.923,1.923,0,0,1-1.922,1.922h-50.235a5.774,5.774,0,0,0-5.767,5.767v64.515A1.922,1.922,0,0,1,1535.039-554.516Z" transform="translate(-3.054)" fill="#111e61"/>
    <path id="Path_101262" data-name="Path 101262" d="M1617.12-312.524h-80.955a8.011,8.011,0,0,1-8.009-8.012V-327.1a3.845,3.845,0,0,1,3.845-3.845h73.266a3.845,3.845,0,0,1,3.845,3.845v6.567a8.011,8.011,0,0,0,8.009,8.012Z" transform="translate(0 -184.422)" fill="#d2deff"/>
    <g id="Group_55929" data-name="Group 55929" transform="translate(1564.289 -619.539)">
      <g id="Group_55927" data-name="Group 55927" transform="translate(0 0)">
        <circle id="Ellipse_4060" data-name="Ellipse 4060" cx="1.799" cy="1.799" r="1.799" transform="translate(5.691)" fill="#f3f9ff"/>
        <circle id="Ellipse_4061" data-name="Ellipse 4061" cx="1.799" cy="1.799" r="1.799" fill="#f3f9ff"/>
      </g>
      <g id="Group_55928" data-name="Group 55928" transform="translate(30.505 0)">
        <circle id="Ellipse_4062" data-name="Ellipse 4062" cx="1.799" cy="1.799" r="1.799" transform="translate(5.69)" fill="#f3f9ff"/>
        <circle id="Ellipse_4063" data-name="Ellipse 4063" cx="1.799" cy="1.799" r="1.799" fill="#f3f9ff"/>
      </g>
    </g>
    <path id="Path_101263" data-name="Path 101263" d="M1731.2-450.5c-.051,0-.1,0-.152-.007a1.737,1.737,0,0,1-1.461-1.085l-1.879-4.7a.249.249,0,0,0-.232-.157,1.736,1.736,0,0,1-1.736-1.736,1.736,1.736,0,0,1,1.736-1.736,3.7,3.7,0,0,1,3.456,2.34l.6,1.509,6.192-9.978a1.736,1.736,0,0,1,2.391-.56,1.736,1.736,0,0,1,.559,2.391l-8,12.9a1.734,1.734,0,0,1-1.474.82Z" transform="translate(-121.617 -100.759)" fill="#ff9800"/>
    <g id="Group_55930" data-name="Group 55930" transform="translate(1551.072 -555.41)">
      <path id="Path_101264" data-name="Path 101264" d="M1611.411-431.246h-21.73a1.922,1.922,0,0,1-1.922-1.922,1.922,1.922,0,0,1,1.922-1.922h21.73a1.922,1.922,0,0,1,1.922,1.922A1.923,1.923,0,0,1,1611.411-431.246Z" transform="translate(-1587.758 435.091)" fill="#111e61"/>
    </g>
    <g id="Group_55931" data-name="Group 55931" transform="translate(1582.121 -555.41)">
      <path id="Path_101265" data-name="Path 101265" d="M1678.713-431.246h-8.274a1.922,1.922,0,0,1-1.922-1.922,1.922,1.922,0,0,1,1.922-1.922h8.274a1.922,1.922,0,0,1,1.922,1.922A1.922,1.922,0,0,1,1678.713-431.246Z" transform="translate(-1668.517 435.091)" fill="#111e61"/>
    </g>
    <g id="Group_55932" data-name="Group 55932" transform="translate(1551.072 -563.112)">
      <path id="Path_101266" data-name="Path 101266" d="M1594.11-451.278h-4.429a1.922,1.922,0,0,1-1.922-1.922,1.922,1.922,0,0,1,1.922-1.922h4.429a1.922,1.922,0,0,1,1.922,1.922A1.923,1.923,0,0,1,1594.11-451.278Z" transform="translate(-1587.758 455.123)" fill="#111e61"/>
    </g>
    <g id="Group_55933" data-name="Group 55933" transform="translate(1604.121 -587.841)">
      <path id="Path_101267" data-name="Path 101267" d="M1731.2-503.072c-.051,0-.1,0-.152-.007a1.737,1.737,0,0,1-1.461-1.085l-1.879-4.7a.248.248,0,0,0-.232-.157,1.736,1.736,0,0,1-1.736-1.736,1.736,1.736,0,0,1,1.736-1.736,3.7,3.7,0,0,1,3.456,2.34l.6,1.509,6.192-9.977a1.736,1.736,0,0,1,2.391-.56,1.736,1.736,0,0,1,.559,2.391l-8,12.9a1.733,1.733,0,0,1-1.474.82Z" transform="translate(-1725.738 519.442)" fill="#ff9800"/>
    </g>
    <g id="Group_55937" data-name="Group 55937" transform="translate(1551.072 -583.325)">
      <g id="Group_55934" data-name="Group 55934" transform="translate(0 7.702)">
        <path id="Path_101268" data-name="Path 101268" d="M1611.411-483.819h-21.73a1.922,1.922,0,0,1-1.922-1.922,1.922,1.922,0,0,1,1.922-1.922h21.73a1.922,1.922,0,0,1,1.922,1.922A1.923,1.923,0,0,1,1611.411-483.819Z" transform="translate(-1587.758 487.664)" fill="#111e61"/>
      </g>
      <g id="Group_55935" data-name="Group 55935" transform="translate(31.05 7.702)">
        <path id="Path_101269" data-name="Path 101269" d="M1678.713-483.819h-8.274a1.922,1.922,0,0,1-1.922-1.922,1.922,1.922,0,0,1,1.922-1.922h8.274a1.922,1.922,0,0,1,1.922,1.922A1.922,1.922,0,0,1,1678.713-483.819Z" transform="translate(-1668.517 487.664)" fill="#111e61"/>
      </g>
      <g id="Group_55936" data-name="Group 55936" transform="translate(0)">
        <path id="Path_101270" data-name="Path 101270" d="M1594.11-503.851h-4.429a1.922,1.922,0,0,1-1.922-1.922,1.922,1.922,0,0,1,1.922-1.922h4.429a1.922,1.922,0,0,1,1.922,1.922A1.923,1.923,0,0,1,1594.11-503.851Z" transform="translate(-1587.758 507.696)" fill="#111e61"/>
      </g>
    </g>
    <g id="Group_55938" data-name="Group 55938" transform="translate(1604.506 -608.054)">
      <path id="Path_101271" data-name="Path 101271" d="M1732.2-555.645c-.051,0-.1,0-.152-.007a1.737,1.737,0,0,1-1.461-1.085l-1.879-4.7a.248.248,0,0,0-.232-.157,1.736,1.736,0,0,1-1.736-1.736,1.736,1.736,0,0,1,1.736-1.736,3.7,3.7,0,0,1,3.456,2.34l.6,1.509,6.192-9.978a1.736,1.736,0,0,1,2.391-.56,1.736,1.736,0,0,1,.559,2.391l-8,12.9a1.733,1.733,0,0,1-1.474.82Z" transform="translate(-1726.738 572.015)" fill="#ff9800"/>
    </g>
    <g id="Group_55942" data-name="Group 55942" transform="translate(1551.072 -603.538)">
      <g id="Group_55939" data-name="Group 55939" transform="translate(0 7.702)">
        <path id="Path_101272" data-name="Path 101272" d="M1611.411-536.392h-21.73a1.922,1.922,0,0,1-1.922-1.922,1.922,1.922,0,0,1,1.922-1.922h21.73a1.922,1.922,0,0,1,1.922,1.922A1.923,1.923,0,0,1,1611.411-536.392Z" transform="translate(-1587.758 540.237)" fill="#111e61"/>
      </g>
      <g id="Group_55940" data-name="Group 55940" transform="translate(31.05 7.702)">
        <path id="Path_101273" data-name="Path 101273" d="M1678.713-536.392h-8.274a1.922,1.922,0,0,1-1.922-1.922,1.922,1.922,0,0,1,1.922-1.922h8.274a1.922,1.922,0,0,1,1.922,1.922A1.922,1.922,0,0,1,1678.713-536.392Z" transform="translate(-1668.517 540.237)" fill="#111e61"/>
      </g>
      <g id="Group_55941" data-name="Group 55941" transform="translate(0 0)">
        <path id="Path_101274" data-name="Path 101274" d="M1594.11-556.424h-4.429a1.922,1.922,0,0,1-1.922-1.922,1.922,1.922,0,0,1,1.922-1.922h4.429a1.922,1.922,0,0,1,1.922,1.922A1.923,1.923,0,0,1,1594.11-556.424Z" transform="translate(-1587.758 560.269)" fill="#111e61"/>
      </g>
    </g>
    <g id="Group_55943" data-name="Group 55943" transform="translate(1604.121 -546.833)">
      <path id="Path_101275" data-name="Path 101275" d="M1731.2-396.413c-.051,0-.1,0-.152-.007a1.737,1.737,0,0,1-1.461-1.085l-1.879-4.7a.249.249,0,0,0-.232-.157,1.736,1.736,0,0,1-1.736-1.736,1.736,1.736,0,0,1,1.736-1.736,3.7,3.7,0,0,1,3.456,2.34l.6,1.509,6.192-9.978a1.736,1.736,0,0,1,2.391-.56,1.736,1.736,0,0,1,.559,2.391l-8,12.9a1.733,1.733,0,0,1-1.474.82Z" transform="translate(-1725.738 412.783)" fill="#ff9800"/>
    </g>
    <g id="Group_55947" data-name="Group 55947" transform="translate(1551.072 -542.317)">
      <g id="Group_55944" data-name="Group 55944" transform="translate(0 7.701)">
        <path id="Path_101276" data-name="Path 101276" d="M1611.411-377.16h-21.73a1.922,1.922,0,0,1-1.922-1.922,1.922,1.922,0,0,1,1.922-1.922h21.73a1.922,1.922,0,0,1,1.922,1.922A1.923,1.923,0,0,1,1611.411-377.16Z" transform="translate(-1587.758 381.005)" fill="#111e61"/>
      </g>
      <g id="Group_55945" data-name="Group 55945" transform="translate(31.05 7.701)">
        <path id="Path_101277" data-name="Path 101277" d="M1678.713-377.16h-8.274a1.922,1.922,0,0,1-1.922-1.922,1.922,1.922,0,0,1,1.922-1.922h8.274a1.922,1.922,0,0,1,1.922,1.922A1.922,1.922,0,0,1,1678.713-377.16Z" transform="translate(-1668.517 381.005)" fill="#111e61"/>
      </g>
      <g id="Group_55946" data-name="Group 55946" transform="translate(0)">
        <path id="Path_101278" data-name="Path 101278" d="M1594.11-397.191h-4.429a1.922,1.922,0,0,1-1.922-1.922,1.922,1.922,0,0,1,1.922-1.922h4.429a1.922,1.922,0,0,1,1.922,1.922A1.923,1.923,0,0,1,1594.11-397.191Z" transform="translate(-1587.758 401.036)" fill="#111e61"/>
      </g>
    </g>
  </g>
</svg>
